<svg width="26" height="30" viewBox="0 0 26 30" fill="none" xmlns="http://www.w3.org/2000/svg">
<path d="M0.634413 6.84778L12.3805 0.160206C12.7642 -0.0582554 13.2328 -0.0529706 13.6117 0.174091L25.3894 7.23257C25.7677 7.4593 26 7.87327 26 8.32067V21.6793C26 22.1267 25.7677 22.5407 25.3894 22.7674L13.6117 29.8259C13.2328 30.053 12.7642 30.0583 12.3805 29.8398L0.634414 23.1522C0.242711 22.9292 0 22.5076 0 22.0502V7.94977C0 7.49239 0.24271 7.0708 0.634413 6.84778Z" fill="white"/>
<path d="M2.64704 7.85152L12.3676 2.16794C12.7593 1.93893 13.2377 1.94447 13.6244 2.18249L23.3772 8.18505C23.7631 8.42253 24 8.85595 24 9.32434V20.6757C24 21.1441 23.7631 21.5775 23.3772 21.815L13.6244 27.8175C13.2377 28.0555 12.7593 28.0611 12.3676 27.8321L2.64704 22.1485C2.24752 21.9149 2 21.4735 2 20.9946V9.00537C2 8.52652 2.24752 8.08512 2.64704 7.85152Z" fill="#4F5A3C"/>
<path d="M18.4763 20.81C18.6963 20.81 18.8763 20.7933 19.0163 20.76C19.1629 20.72 19.2796 20.67 19.3663 20.61C19.4529 20.5433 19.5129 20.4667 19.5463 20.38C19.5796 20.2933 19.5963 20.1967 19.5963 20.09C19.5963 19.8633 19.4896 19.6767 19.2762 19.53C19.0629 19.3767 18.6963 19.2133 18.1763 19.04C17.9496 18.96 17.7229 18.87 17.4963 18.77C17.2696 18.6633 17.0663 18.5333 16.8863 18.38C16.7063 18.22 16.5596 18.03 16.4462 17.81C16.3329 17.5833 16.2762 17.31 16.2762 16.99C16.2762 16.67 16.3363 16.3833 16.4563 16.13C16.5763 15.87 16.7463 15.65 16.9663 15.47C17.1863 15.29 17.4529 15.1533 17.7663 15.06C18.0796 14.96 18.4329 14.91 18.8263 14.91C19.2929 14.91 19.6963 14.96 20.0363 15.06C20.3763 15.16 20.6563 15.27 20.8763 15.39L20.4263 16.62C20.2329 16.52 20.0162 16.4333 19.7762 16.36C19.5429 16.28 19.2596 16.24 18.9263 16.24C18.5529 16.24 18.2829 16.2933 18.1163 16.4C17.9562 16.5 17.8763 16.6567 17.8763 16.87C17.8763 16.9967 17.9063 17.1033 17.9663 17.19C18.0263 17.2767 18.1096 17.3567 18.2163 17.43C18.3296 17.4967 18.4563 17.56 18.5963 17.62C18.7429 17.6733 18.9029 17.73 19.0763 17.79C19.4362 17.9233 19.7496 18.0567 20.0163 18.19C20.2829 18.3167 20.5029 18.4667 20.6763 18.64C20.8563 18.8133 20.9896 19.0167 21.0763 19.25C21.1629 19.4833 21.2063 19.7667 21.2063 20.1C21.2063 20.7467 20.9796 21.25 20.5263 21.61C20.0729 21.9633 19.3896 22.14 18.4763 22.14C18.1696 22.14 17.8929 22.12 17.6462 22.08C17.3996 22.0467 17.1796 22.0033 16.9862 21.95C16.7996 21.8967 16.6363 21.84 16.4963 21.78C16.3629 21.72 16.2496 21.6633 16.1562 21.61L16.5963 20.37C16.8029 20.4833 17.0562 20.5867 17.3562 20.68C17.6629 20.7667 18.0363 20.81 18.4763 20.81Z" fill="white"/>
<path d="M13.8337 22C13.7603 21.76 13.677 21.5133 13.5837 21.26C13.497 21.0067 13.4103 20.7533 13.3237 20.5H10.6237C10.537 20.7533 10.447 21.0067 10.3537 21.26C10.267 21.5133 10.187 21.76 10.1137 22H8.49365C8.75365 21.2533 9.00032 20.5633 9.23365 19.93C9.46699 19.2967 9.69365 18.7 9.91365 18.14C10.1403 17.58 10.3603 17.05 10.5737 16.55C10.7937 16.0433 11.0203 15.55 11.2537 15.07H12.7437C12.9703 15.55 13.1937 16.0433 13.4137 16.55C13.6337 17.05 13.8537 17.58 14.0737 18.14C14.3003 18.7 14.5303 19.2967 14.7637 19.93C14.997 20.5633 15.2437 21.2533 15.5037 22H13.8337ZM11.9637 16.64C11.9303 16.74 11.8803 16.8767 11.8137 17.05C11.747 17.2233 11.6703 17.4233 11.5837 17.65C11.497 17.8767 11.4003 18.1267 11.2937 18.4C11.1937 18.6733 11.0903 18.96 10.9837 19.26H12.9537C12.847 18.96 12.7437 18.6733 12.6437 18.4C12.5437 18.1267 12.447 17.8767 12.3537 17.65C12.267 17.4233 12.1903 17.2233 12.1237 17.05C12.057 16.8767 12.0037 16.74 11.9637 16.64Z" fill="white"/>
</svg>
