<svg width="27" height="30" viewBox="0 0 27 30" fill="none" xmlns="http://www.w3.org/2000/svg">
<path d="M0.876112 6.84778L12.6222 0.160206C13.0059 -0.0582554 13.4745 -0.0529706 13.8534 0.174091L25.6311 7.23257C26.0094 7.4593 26.2417 7.87327 26.2417 8.32067V21.6793C26.2417 22.1267 26.0094 22.5407 25.6311 22.7674L13.8534 29.8259C13.4745 30.053 13.0059 30.0583 12.6222 29.8398L0.876113 23.1522C0.48441 22.9292 0.241699 22.5076 0.241699 22.0502V7.94977C0.241699 7.49239 0.484409 7.0708 0.876112 6.84778Z" fill="white"/>
<path d="M2.88874 7.85152L12.6093 2.16794C13.001 1.93893 13.4794 1.94447 13.8661 2.18249L18.7425 5.18377L7.74903 24.9903L2.88874 22.1485C2.48922 21.9149 2.2417 21.4735 2.2417 20.9946V9.00537C2.2417 8.52652 2.48922 8.08512 2.88874 7.85152Z" fill="#6296CD"/>
<path d="M23.6189 21.815L13.8661 27.8175C13.4794 28.0555 13.001 28.0611 12.6093 27.8321L7.74902 24.9903L18.7425 5.18377L23.6189 8.18505C24.0048 8.42253 24.2417 8.85595 24.2417 9.32434V20.6757C24.2417 21.144 24.0048 21.5775 23.6189 21.815Z" fill="#0B4D89"/>
<path d="M14.7017 22.23C13.575 22.23 12.715 21.9167 12.1217 21.29C11.535 20.6633 11.2417 19.7733 11.2417 18.62C11.2417 18.0467 11.3317 17.5367 11.5117 17.09C11.6917 16.6367 11.9384 16.2567 12.2517 15.95C12.565 15.6367 12.9384 15.4 13.3717 15.24C13.805 15.08 14.275 15 14.7817 15C15.075 15 15.3417 15.0233 15.5817 15.07C15.8217 15.11 16.0317 15.16 16.2117 15.22C16.3917 15.2733 16.5417 15.33 16.6617 15.39C16.7817 15.45 16.8684 15.4967 16.9217 15.53L16.4717 16.79C16.2584 16.6767 16.0084 16.58 15.7217 16.5C15.4417 16.42 15.1217 16.38 14.7617 16.38C14.5217 16.38 14.285 16.42 14.0517 16.5C13.825 16.58 13.6217 16.71 13.4417 16.89C13.2684 17.0633 13.1284 17.29 13.0217 17.57C12.915 17.85 12.8617 18.19 12.8617 18.59C12.8617 18.91 12.895 19.21 12.9617 19.49C13.035 19.7633 13.1484 20 13.3017 20.2C13.4617 20.4 13.6684 20.56 13.9217 20.68C14.175 20.7933 14.4817 20.85 14.8417 20.85C15.0684 20.85 15.2717 20.8367 15.4517 20.81C15.6317 20.7833 15.7917 20.7533 15.9317 20.72C16.0717 20.68 16.195 20.6367 16.3017 20.59C16.4084 20.5433 16.505 20.5 16.5917 20.46L17.0217 21.71C16.8017 21.8433 16.4917 21.9633 16.0917 22.07C15.6917 22.1767 15.2284 22.23 14.7017 22.23Z" fill="white"/>
<path d="M19.8286 18.285H20.6636V17.36H21.3436V18.285H22.1786V18.91H21.3436V19.835H20.6636V18.91H19.8286V18.285Z" fill="white"/>
<path d="M16.9868 18.285H17.8218V17.36H18.5018V18.285H19.3368V18.91H18.5018V19.835H17.8218V18.91H16.9868V18.285Z" fill="white"/>
</svg>
