<svg width="27" height="30" viewBox="0 0 27 30" fill="none" xmlns="http://www.w3.org/2000/svg">
<path d="M0.876112 6.84778L12.6222 0.160206C13.0059 -0.0582554 13.4745 -0.0529706 13.8534 0.174091L25.6311 7.23257C26.0094 7.4593 26.2417 7.87327 26.2417 8.32067V21.6793C26.2417 22.1267 26.0094 22.5407 25.6311 22.7674L13.8534 29.8259C13.4745 30.053 13.0059 30.0583 12.6222 29.8398L0.876113 23.1522C0.48441 22.9292 0.241699 22.5076 0.241699 22.0502V7.94977C0.241699 7.49239 0.484409 7.0708 0.876112 6.84778Z" fill="white"/>
<path d="M2.88874 7.85152L12.6093 2.16794C13.001 1.93893 13.4794 1.94447 13.8661 2.18249L18.7425 5.18377L7.74903 24.9903L2.88874 22.1485C2.48922 21.9149 2.2417 21.4735 2.2417 20.9946V9.00537C2.2417 8.52652 2.48922 8.08512 2.88874 7.85152Z" fill="#5C6BC0"/>
<path d="M23.6189 21.815L13.8661 27.8175C13.4794 28.0555 13.001 28.0611 12.6093 27.8321L7.74902 24.9903L18.7425 5.18377L23.6189 8.18505C24.0048 8.42253 24.2417 8.85595 24.2417 9.32434V20.6757C24.2417 21.144 24.0048 21.5775 23.6189 21.815Z" fill="#273493"/>
<path d="M18.2017 22.14C17.075 22.14 16.215 21.8267 15.6217 21.2C15.035 20.5733 14.7417 19.6833 14.7417 18.53C14.7417 17.9567 14.8317 17.4467 15.0117 17C15.1917 16.5467 15.4384 16.1667 15.7517 15.86C16.065 15.5467 16.4384 15.31 16.8717 15.15C17.305 14.99 17.775 14.91 18.2817 14.91C18.575 14.91 18.8417 14.9333 19.0817 14.98C19.3217 15.02 19.5317 15.07 19.7117 15.13C19.8917 15.1833 20.0417 15.24 20.1617 15.3C20.2817 15.36 20.3684 15.4067 20.4217 15.44L19.9717 16.7C19.7584 16.5867 19.5084 16.49 19.2217 16.41C18.9417 16.33 18.6217 16.29 18.2617 16.29C18.0217 16.29 17.785 16.33 17.5517 16.41C17.325 16.49 17.1217 16.62 16.9417 16.8C16.7684 16.9733 16.6284 17.2 16.5217 17.48C16.415 17.76 16.3617 18.1 16.3617 18.5C16.3617 18.82 16.395 19.12 16.4617 19.4C16.535 19.6733 16.6484 19.91 16.8017 20.11C16.9617 20.31 17.1684 20.47 17.4217 20.59C17.675 20.7033 17.9817 20.76 18.3417 20.76C18.5684 20.76 18.7717 20.7467 18.9517 20.72C19.1317 20.6933 19.2917 20.6633 19.4317 20.63C19.5717 20.59 19.695 20.5467 19.8017 20.5C19.9084 20.4533 20.005 20.41 20.0917 20.37L20.5217 21.62C20.3017 21.7533 19.9917 21.8733 19.5917 21.98C19.1917 22.0867 18.7284 22.14 18.2017 22.14Z" fill="white"/>
</svg>
