<svg width="27" height="30" viewBox="0 0 27 30" fill="none" xmlns="http://www.w3.org/2000/svg">
<path d="M0.876112 6.84778L12.6222 0.160206C13.0059 -0.0582554 13.4745 -0.0529706 13.8534 0.174091L25.6311 7.23257C26.0094 7.4593 26.2417 7.87327 26.2417 8.32067V21.6793C26.2417 22.1267 26.0094 22.5407 25.6311 22.7674L13.8534 29.8259C13.4745 30.053 13.0059 30.0583 12.6222 29.8398L0.876113 23.1522C0.48441 22.9292 0.241699 22.5076 0.241699 22.0502V7.94977C0.241699 7.49239 0.484409 7.0708 0.876112 6.84778Z" fill="white"/>
<path d="M2.88874 7.85152L12.6093 2.16794C13.001 1.93893 13.4794 1.94447 13.8661 2.18249L23.6189 8.18505C24.0048 8.42253 24.2417 8.85595 24.2417 9.32434V20.6757C24.2417 21.1441 24.0048 21.5775 23.6189 21.815L13.8661 27.8175C13.4794 28.0555 13.001 28.0611 12.6093 27.8321L2.88874 22.1485C2.48922 21.9149 2.2417 21.4735 2.2417 20.9946V9.00537C2.2417 8.52652 2.48922 8.08512 2.88874 7.85152Z" fill="#536AA2"/>
<path d="M18.8469 20.81C19.0669 20.81 19.2469 20.7933 19.3869 20.76C19.5335 20.72 19.6502 20.67 19.7369 20.61C19.8235 20.5433 19.8835 20.4667 19.9169 20.38C19.9502 20.2933 19.9669 20.1967 19.9669 20.09C19.9669 19.8633 19.8602 19.6767 19.6469 19.53C19.4335 19.3767 19.0669 19.2133 18.5469 19.04C18.3202 18.96 18.0935 18.87 17.8669 18.77C17.6402 18.6633 17.4369 18.5333 17.2569 18.38C17.0769 18.22 16.9302 18.03 16.8169 17.81C16.7035 17.5833 16.6469 17.31 16.6469 16.99C16.6469 16.67 16.7069 16.3833 16.8269 16.13C16.9469 15.87 17.1169 15.65 17.3369 15.47C17.5569 15.29 17.8235 15.1533 18.1369 15.06C18.4502 14.96 18.8035 14.91 19.1969 14.91C19.6635 14.91 20.0669 14.96 20.4069 15.06C20.7469 15.16 21.0269 15.27 21.2469 15.39L20.7969 16.62C20.6035 16.52 20.3869 16.4333 20.1469 16.36C19.9135 16.28 19.6302 16.24 19.2969 16.24C18.9235 16.24 18.6535 16.2933 18.4869 16.4C18.3269 16.5 18.2469 16.6567 18.2469 16.87C18.2469 16.9967 18.2769 17.1033 18.3369 17.19C18.3969 17.2767 18.4802 17.3567 18.5869 17.43C18.7002 17.4967 18.8269 17.56 18.9669 17.62C19.1135 17.6733 19.2735 17.73 19.4469 17.79C19.8069 17.9233 20.1202 18.0567 20.3869 18.19C20.6535 18.3167 20.8735 18.4667 21.0469 18.64C21.2269 18.8133 21.3602 19.0167 21.4469 19.25C21.5335 19.4833 21.5769 19.7667 21.5769 20.1C21.5769 20.7467 21.3502 21.25 20.8969 21.61C20.4435 21.9633 19.7602 22.14 18.8469 22.14C18.5402 22.14 18.2635 22.12 18.0169 22.08C17.7702 22.0467 17.5502 22.0033 17.3569 21.95C17.1702 21.8967 17.0069 21.84 16.8669 21.78C16.7335 21.72 16.6202 21.6633 16.5269 21.61L16.9669 20.37C17.1735 20.4833 17.4269 20.5867 17.7269 20.68C18.0335 20.7667 18.4069 20.81 18.8469 20.81Z" fill="white"/>
<path d="M13.4663 22.14C12.3397 22.14 11.4797 21.8267 10.8863 21.2C10.2997 20.5733 10.0063 19.6833 10.0063 18.53C10.0063 17.9567 10.0963 17.4467 10.2763 17C10.4563 16.5467 10.703 16.1667 11.0163 15.86C11.3297 15.5467 11.703 15.31 12.1363 15.15C12.5697 14.99 13.0397 14.91 13.5463 14.91C13.8397 14.91 14.1063 14.9333 14.3463 14.98C14.5863 15.02 14.7963 15.07 14.9763 15.13C15.1563 15.1833 15.3063 15.24 15.4263 15.3C15.5463 15.36 15.633 15.4067 15.6863 15.44L15.2363 16.7C15.023 16.5867 14.773 16.49 14.4863 16.41C14.2063 16.33 13.8863 16.29 13.5263 16.29C13.2863 16.29 13.0497 16.33 12.8163 16.41C12.5897 16.49 12.3863 16.62 12.2063 16.8C12.033 16.9733 11.893 17.2 11.7863 17.48C11.6797 17.76 11.6263 18.1 11.6263 18.5C11.6263 18.82 11.6597 19.12 11.7263 19.4C11.7997 19.6733 11.913 19.91 12.0663 20.11C12.2263 20.31 12.433 20.47 12.6863 20.59C12.9397 20.7033 13.2463 20.76 13.6063 20.76C13.833 20.76 14.0363 20.7467 14.2163 20.72C14.3963 20.6933 14.5563 20.6633 14.6963 20.63C14.8363 20.59 14.9597 20.5467 15.0663 20.5C15.173 20.4533 15.2697 20.41 15.3563 20.37L15.7863 21.62C15.5663 21.7533 15.2563 21.8733 14.8563 21.98C14.4563 22.0867 13.993 22.14 13.4663 22.14Z" fill="white"/>
</svg>
