<svg width="27" height="30" viewBox="0 0 27 30" fill="none" xmlns="http://www.w3.org/2000/svg">
<path d="M0.876112 6.84778L12.6222 0.160206C13.0059 -0.0582554 13.4745 -0.0529706 13.8534 0.174091L25.6311 7.23257C26.0094 7.4593 26.2417 7.87327 26.2417 8.32067V21.6793C26.2417 22.1267 26.0094 22.5407 25.6311 22.7674L13.8534 29.8259C13.4745 30.053 13.0059 30.0583 12.6222 29.8398L0.876113 23.1522C0.48441 22.9292 0.241699 22.5076 0.241699 22.0502V7.94977C0.241699 7.49239 0.484409 7.0708 0.876112 6.84778Z" fill="white"/>
<path d="M2.88874 7.85152L12.6093 2.16794C13.001 1.93893 13.4794 1.94447 13.8661 2.18249L18.7425 5.18377L7.74903 24.9903L2.88874 22.1485C2.48922 21.9149 2.2417 21.4735 2.2417 20.9946V9.00537C2.2417 8.52652 2.48922 8.08512 2.88874 7.85152Z" fill="#9B4F97"/>
<path d="M23.6189 21.815L13.8661 27.8175C13.4794 28.0555 13.001 28.0611 12.6093 27.8321L7.74902 24.9903L18.7425 5.18377L23.6189 8.18505C24.0048 8.42253 24.2417 8.85595 24.2417 9.32434V20.6757C24.2417 21.144 24.0048 21.5775 23.6189 21.815Z" fill="#813788"/>
<path d="M17.9759 16.77H19.1359L19.4659 15.07H20.7659L20.4359 16.77H21.1659V17.92H20.2159L19.9759 19.15H21.1659V20.3H19.7559L19.4359 22H18.1359L18.4559 20.3H17.2959L16.9759 22H15.6759L15.9959 20.3H15.2759V19.15H16.2159L16.4559 17.92H15.2759V16.77H16.6759L17.0059 15.07H18.3059L17.9759 16.77ZM17.5159 19.15H18.6759L18.9159 17.92H17.7559L17.5159 19.15Z" fill="white"/>
<path d="M12.2017 22.14C11.075 22.14 10.215 21.8267 9.6217 21.2C9.03503 20.5733 8.7417 19.6833 8.7417 18.53C8.7417 17.9567 8.8317 17.4467 9.0117 17C9.1917 16.5467 9.43837 16.1667 9.7517 15.86C10.065 15.5467 10.4384 15.31 10.8717 15.15C11.305 14.99 11.775 14.91 12.2817 14.91C12.575 14.91 12.8417 14.9333 13.0817 14.98C13.3217 15.02 13.5317 15.07 13.7117 15.13C13.8917 15.1833 14.0417 15.24 14.1617 15.3C14.2817 15.36 14.3684 15.4067 14.4217 15.44L13.9717 16.7C13.7584 16.5867 13.5084 16.49 13.2217 16.41C12.9417 16.33 12.6217 16.29 12.2617 16.29C12.0217 16.29 11.785 16.33 11.5517 16.41C11.325 16.49 11.1217 16.62 10.9417 16.8C10.7684 16.9733 10.6284 17.2 10.5217 17.48C10.415 17.76 10.3617 18.1 10.3617 18.5C10.3617 18.82 10.395 19.12 10.4617 19.4C10.535 19.6733 10.6484 19.91 10.8017 20.11C10.9617 20.31 11.1684 20.47 11.4217 20.59C11.675 20.7033 11.9817 20.76 12.3417 20.76C12.5684 20.76 12.7717 20.7467 12.9517 20.72C13.1317 20.6933 13.2917 20.6633 13.4317 20.63C13.5717 20.59 13.695 20.5467 13.8017 20.5C13.9084 20.4533 14.005 20.41 14.0917 20.37L14.5217 21.62C14.3017 21.7533 13.9917 21.8733 13.5917 21.98C13.1917 22.0867 12.7284 22.14 12.2017 22.14Z" fill="white"/>
</svg>
