<svg width="27" height="30" viewBox="0 0 27 30" fill="none" xmlns="http://www.w3.org/2000/svg">
<path d="M0.876112 6.84778L12.6222 0.160206C13.0059 -0.0582554 13.4745 -0.0529706 13.8534 0.174091L25.6311 7.23257C26.0094 7.4593 26.2417 7.87327 26.2417 8.32067V21.6793C26.2417 22.1267 26.0094 22.5407 25.6311 22.7674L13.8534 29.8259C13.4745 30.053 13.0059 30.0583 12.6222 29.8398L0.876113 23.1522C0.48441 22.9292 0.241699 22.5076 0.241699 22.0502V7.94977C0.241699 7.49239 0.484409 7.0708 0.876112 6.84778Z" fill="white"/>
<path d="M2.88874 7.85152L12.6093 2.16794C12.8058 2.05306 13.0241 1.9972 13.2417 2.00011V27.9999C13.0241 28.0028 12.8058 27.9469 12.6093 27.8321L2.88874 22.1485C2.48922 21.9149 2.2417 21.4735 2.2417 20.9946V9.00537C2.2417 8.52652 2.48922 8.08512 2.88874 7.85152Z" fill="#2073F9"/>
<path d="M23.6189 21.815L13.8661 27.8175C13.6734 27.9361 13.4579 27.997 13.2417 27.9999V2C13.4579 2.00288 13.6734 2.06387 13.8661 2.18249L23.6189 8.18505C24.0048 8.42253 24.2417 8.85595 24.2417 9.32434V20.6757C24.2417 21.1441 24.0048 21.5775 23.6189 21.815Z" fill="#2F92F9"/>
<path d="M19.8221 20.405C19.9321 20.405 20.0221 20.3967 20.0921 20.38C20.1654 20.36 20.2238 20.335 20.2671 20.305C20.3104 20.2717 20.3404 20.2333 20.3571 20.19C20.3738 20.1467 20.3821 20.0983 20.3821 20.045C20.3821 19.9317 20.3288 19.8383 20.2221 19.765C20.1154 19.6883 19.9321 19.6067 19.6721 19.52C19.5588 19.48 19.4454 19.435 19.3321 19.385C19.2188 19.3317 19.1171 19.2667 19.0271 19.19C18.9371 19.11 18.8638 19.015 18.8071 18.905C18.7504 18.7917 18.7221 18.655 18.7221 18.495C18.7221 18.335 18.7521 18.1917 18.8121 18.065C18.8721 17.935 18.9571 17.825 19.0671 17.735C19.1771 17.645 19.3104 17.5767 19.4671 17.53C19.6238 17.48 19.8004 17.455 19.9971 17.455C20.2304 17.455 20.4321 17.48 20.6021 17.53C20.7721 17.58 20.9121 17.635 21.0221 17.695L20.7971 18.31C20.7004 18.26 20.5921 18.2167 20.4721 18.18C20.3554 18.14 20.2138 18.12 20.0471 18.12C19.8604 18.12 19.7254 18.1467 19.6421 18.2C19.5621 18.25 19.5221 18.3283 19.5221 18.435C19.5221 18.4983 19.5371 18.5517 19.5671 18.595C19.5971 18.6383 19.6388 18.6783 19.6921 18.715C19.7488 18.7483 19.8121 18.78 19.8821 18.81C19.9554 18.8367 20.0354 18.865 20.1221 18.895C20.3021 18.9617 20.4588 19.0283 20.5921 19.095C20.7254 19.1583 20.8354 19.2333 20.9221 19.32C21.0121 19.4067 21.0788 19.5083 21.1221 19.625C21.1654 19.7417 21.1871 19.8833 21.1871 20.05C21.1871 20.3733 21.0738 20.625 20.8471 20.805C20.6204 20.9817 20.2788 21.07 19.8221 21.07C19.6688 21.07 19.5304 21.06 19.4071 21.04C19.2838 21.0233 19.1738 21.0017 19.0771 20.975C18.9838 20.9483 18.9021 20.92 18.8321 20.89C18.7654 20.86 18.7088 20.8317 18.6621 20.805L18.8821 20.185C18.9854 20.2417 19.1121 20.2933 19.2621 20.34C19.4154 20.3833 19.6021 20.405 19.8221 20.405Z" fill="white"/>
<path d="M16.912 20.405C17.022 20.405 17.112 20.3967 17.182 20.38C17.2553 20.36 17.3136 20.335 17.357 20.305C17.4003 20.2717 17.4303 20.2333 17.447 20.19C17.4636 20.1467 17.472 20.0983 17.472 20.045C17.472 19.9317 17.4186 19.8383 17.312 19.765C17.2053 19.6883 17.022 19.6067 16.762 19.52C16.6486 19.48 16.5353 19.435 16.422 19.385C16.3086 19.3317 16.207 19.2667 16.117 19.19C16.027 19.11 15.9536 19.015 15.897 18.905C15.8403 18.7917 15.812 18.655 15.812 18.495C15.812 18.335 15.842 18.1917 15.902 18.065C15.962 17.935 16.047 17.825 16.157 17.735C16.267 17.645 16.4003 17.5767 16.557 17.53C16.7136 17.48 16.8903 17.455 17.087 17.455C17.3203 17.455 17.522 17.48 17.692 17.53C17.862 17.58 18.002 17.635 18.112 17.695L17.887 18.31C17.7903 18.26 17.682 18.2167 17.562 18.18C17.4453 18.14 17.3036 18.12 17.137 18.12C16.9503 18.12 16.8153 18.1467 16.732 18.2C16.652 18.25 16.612 18.3283 16.612 18.435C16.612 18.4983 16.627 18.5517 16.657 18.595C16.687 18.6383 16.7286 18.6783 16.782 18.715C16.8386 18.7483 16.902 18.78 16.972 18.81C17.0453 18.8367 17.1253 18.865 17.212 18.895C17.392 18.9617 17.5486 19.0283 17.682 19.095C17.8153 19.1583 17.9253 19.2333 18.012 19.32C18.102 19.4067 18.1686 19.5083 18.212 19.625C18.2553 19.7417 18.277 19.8833 18.277 20.05C18.277 20.3733 18.1636 20.625 17.937 20.805C17.7103 20.9817 17.3686 21.07 16.912 21.07C16.7586 21.07 16.6203 21.06 16.497 21.04C16.3736 21.0233 16.2636 21.0017 16.167 20.975C16.0736 20.9483 15.992 20.92 15.922 20.89C15.8553 20.86 15.7986 20.8317 15.752 20.805L15.972 20.185C16.0753 20.2417 16.202 20.2933 16.352 20.34C16.5053 20.3833 16.692 20.405 16.912 20.405Z" fill="white"/>
<path d="M14.2217 21.07C13.6584 21.07 13.2284 20.9133 12.9317 20.6C12.6384 20.2867 12.4917 19.8417 12.4917 19.265C12.4917 18.9783 12.5367 18.7233 12.6267 18.5C12.7167 18.2733 12.84 18.0833 12.9967 17.93C13.1534 17.7733 13.34 17.655 13.5567 17.575C13.7734 17.495 14.0084 17.455 14.2617 17.455C14.4084 17.455 14.5417 17.4667 14.6617 17.49C14.7817 17.51 14.8867 17.535 14.9767 17.565C15.0667 17.5917 15.1417 17.62 15.2017 17.65C15.2617 17.68 15.305 17.7033 15.3317 17.72L15.1067 18.35C15 18.2933 14.875 18.245 14.7317 18.205C14.5917 18.165 14.4317 18.145 14.2517 18.145C14.1317 18.145 14.0134 18.165 13.8967 18.205C13.7834 18.245 13.6817 18.31 13.5917 18.4C13.505 18.4867 13.435 18.6 13.3817 18.74C13.3284 18.88 13.3017 19.05 13.3017 19.25C13.3017 19.41 13.3184 19.56 13.3517 19.7C13.3884 19.8367 13.445 19.955 13.5217 20.055C13.6017 20.155 13.705 20.235 13.8317 20.295C13.9584 20.3517 14.1117 20.38 14.2917 20.38C14.405 20.38 14.5067 20.3733 14.5967 20.36C14.6867 20.3467 14.7667 20.3317 14.8367 20.315C14.9067 20.295 14.9684 20.2733 15.0217 20.25C15.075 20.2267 15.1234 20.205 15.1667 20.185L15.3817 20.81C15.2717 20.8767 15.1167 20.9367 14.9167 20.99C14.7167 21.0433 14.485 21.07 14.2217 21.07Z" fill="white"/>
</svg>
