<svg width="27" height="30" viewBox="0 0 27 30" fill="none" xmlns="http://www.w3.org/2000/svg">
<path d="M0.876112 6.84778L12.6222 0.160206C13.0059 -0.0582554 13.4745 -0.0529706 13.8534 0.174091L25.6311 7.23257C26.0094 7.4593 26.2417 7.87327 26.2417 8.32067V21.6793C26.2417 22.1267 26.0094 22.5407 25.6311 22.7674L13.8534 29.8259C13.4745 30.053 13.0059 30.0583 12.6222 29.8398L0.876113 23.1522C0.48441 22.9292 0.241699 22.5076 0.241699 22.0502V7.94977C0.241699 7.49239 0.484409 7.0708 0.876112 6.84778Z" fill="white"/>
<path d="M2.24072 20.9946V9.00537C2.24072 8.52652 2.48825 8.08512 2.88776 7.85152L7.74805 5.00974L18.7415 24.8162L13.8651 27.8175C13.4784 28.0555 13 28.0611 12.6083 27.8321L2.88776 22.1485C2.48825 21.9149 2.24072 21.4735 2.24072 20.9946Z" fill="#78CBFE"/>
<path d="M24.2407 9.32434V20.6757C24.2407 21.1441 24.0038 21.5775 23.6179 21.815L18.7415 24.8162L7.74805 5.00973L12.6083 2.16794C13 1.93893 13.4784 1.94447 13.8651 2.18249L23.6179 8.18505C24.0038 8.42253 24.2407 8.85595 24.2407 9.32434Z" fill="#5794DB"/>
<path d="M22.66 17.535V18.2H21.615V21H20.835V18.2H19.79V17.535H22.66Z" fill="white"/>
<path d="M17.8187 17.495C18.3387 17.495 18.737 17.5883 19.0137 17.775C19.2904 17.9583 19.4287 18.245 19.4287 18.635C19.4287 18.8783 19.372 19.0767 19.2587 19.23C19.1487 19.38 18.9887 19.4983 18.7787 19.585C18.8487 19.6717 18.922 19.7717 18.9987 19.885C19.0754 19.995 19.1504 20.1117 19.2237 20.235C19.3004 20.355 19.3737 20.4817 19.4437 20.615C19.5137 20.745 19.5787 20.8733 19.6387 21H18.7637C18.7004 20.8867 18.6354 20.7717 18.5687 20.655C18.5054 20.5383 18.4387 20.425 18.3687 20.315C18.302 20.205 18.2354 20.1017 18.1687 20.005C18.102 19.905 18.0354 19.815 17.9687 19.735H17.5837V21H16.8037V17.585C16.9737 17.5517 17.1487 17.5283 17.3287 17.515C17.512 17.5017 17.6754 17.495 17.8187 17.495ZM17.8637 18.16C17.807 18.16 17.7554 18.1617 17.7087 18.165C17.6654 18.1683 17.6237 18.1717 17.5837 18.175V19.115H17.8037C18.097 19.115 18.307 19.0783 18.4337 19.005C18.5604 18.9317 18.6237 18.8067 18.6237 18.63C18.6237 18.46 18.5587 18.34 18.4287 18.27C18.302 18.1967 18.1137 18.16 17.8637 18.16Z" fill="white"/>
<path d="M15.5201 21C15.4834 20.88 15.4418 20.7567 15.3951 20.63C15.3518 20.5033 15.3084 20.3767 15.2651 20.25H13.9151C13.8718 20.3767 13.8268 20.5033 13.7801 20.63C13.7368 20.7567 13.6968 20.88 13.6601 21H12.8501C12.9801 20.6267 13.1034 20.2817 13.2201 19.965C13.3368 19.6483 13.4501 19.35 13.5601 19.07C13.6734 18.79 13.7834 18.525 13.8901 18.275C14.0001 18.0217 14.1134 17.775 14.2301 17.535H14.9751C15.0884 17.775 15.2001 18.0217 15.3101 18.275C15.4201 18.525 15.5301 18.79 15.6401 19.07C15.7534 19.35 15.8684 19.6483 15.9851 19.965C16.1018 20.2817 16.2251 20.6267 16.3551 21H15.5201ZM14.5851 18.32C14.5684 18.37 14.5434 18.4383 14.5101 18.525C14.4768 18.6117 14.4384 18.7117 14.3951 18.825C14.3518 18.9383 14.3034 19.0633 14.2501 19.2C14.2001 19.3367 14.1484 19.48 14.0951 19.63H15.0801C15.0268 19.48 14.9751 19.3367 14.9251 19.2C14.8751 19.0633 14.8268 18.9383 14.7801 18.825C14.7368 18.7117 14.6984 18.6117 14.6651 18.525C14.6318 18.4383 14.6051 18.37 14.5851 18.32Z" fill="white"/>
<path d="M10.4206 20.365C10.4573 20.3683 10.499 20.3717 10.5456 20.375C10.5956 20.375 10.654 20.375 10.7206 20.375C11.1106 20.375 11.399 20.2767 11.5856 20.08C11.7756 19.8833 11.8706 19.6117 11.8706 19.265C11.8706 18.9017 11.7806 18.6267 11.6006 18.44C11.4206 18.2533 11.1356 18.16 10.7456 18.16C10.6923 18.16 10.6373 18.1617 10.5806 18.165C10.524 18.165 10.4706 18.1683 10.4206 18.175V20.365ZM12.6756 19.265C12.6756 19.565 12.629 19.8267 12.5356 20.05C12.4423 20.2733 12.309 20.4583 12.1356 20.605C11.9656 20.7517 11.7573 20.8617 11.5106 20.935C11.264 21.0083 10.9873 21.045 10.6806 21.045C10.5406 21.045 10.3773 21.0383 10.1906 21.025C10.004 21.015 9.82062 20.9917 9.64062 20.955V17.58C9.82062 17.5467 10.0073 17.525 10.2006 17.515C10.3973 17.5017 10.5656 17.495 10.7056 17.495C11.0023 17.495 11.2706 17.5283 11.5106 17.595C11.754 17.6617 11.9623 17.7667 12.1356 17.91C12.309 18.0533 12.4423 18.2367 12.5356 18.46C12.629 18.6833 12.6756 18.9517 12.6756 19.265Z" fill="white"/>
</svg>
