<svg width="26" height="30" viewBox="0 0 26 30" fill="none" xmlns="http://www.w3.org/2000/svg">
<path d="M0.634413 6.84778L12.3805 0.160206C12.7642 -0.0582554 13.2328 -0.0529706 13.6117 0.174091L25.3894 7.23257C25.7677 7.4593 26 7.87327 26 8.32067V21.6793C26 22.1267 25.7677 22.5407 25.3894 22.7674L13.6117 29.8259C13.2328 30.053 12.7642 30.0583 12.3805 29.8398L0.634414 23.1522C0.242711 22.9292 0 22.5076 0 22.0502V7.94977C0 7.49239 0.24271 7.0708 0.634413 6.84778Z" fill="white"/>
<path d="M2.64704 7.85152L12.3676 2.16794C12.7593 1.93893 13.2377 1.94447 13.6244 2.18249L23.3772 8.18505C23.7631 8.42253 24 8.85595 24 9.32434V20.6757C24 21.1441 23.7631 21.5775 23.3772 21.815L13.6244 27.8175C13.2377 28.0555 12.7593 28.0611 12.3676 27.8321L2.64704 22.1485C2.24752 21.9149 2 21.4735 2 20.9946V9.00537C2 8.52652 2.24752 8.08512 2.64704 7.85152Z" fill="#0097F4"/>
<path d="M16.6152 22V15.07H21.2552V16.38H18.1752V17.83H20.9152V19.14H18.1752V22H16.6152Z" fill="white"/>
<path d="M10.8022 20.73C10.8755 20.7367 10.9589 20.7433 11.0522 20.75C11.1522 20.75 11.2689 20.75 11.4022 20.75C12.1822 20.75 12.7589 20.5533 13.1322 20.16C13.5122 19.7667 13.7022 19.2233 13.7022 18.53C13.7022 17.8033 13.5222 17.2533 13.1622 16.88C12.8022 16.5067 12.2322 16.32 11.4522 16.32C11.3455 16.32 11.2355 16.3233 11.1222 16.33C11.0089 16.33 10.9022 16.3367 10.8022 16.35V20.73ZM15.3122 18.53C15.3122 19.13 15.2189 19.6533 15.0322 20.1C14.8455 20.5467 14.5789 20.9167 14.2322 21.21C13.8922 21.5033 13.4755 21.7233 12.9822 21.87C12.4889 22.0167 11.9355 22.09 11.3222 22.09C11.0422 22.09 10.7155 22.0767 10.3422 22.05C9.96885 22.03 9.60219 21.9833 9.24219 21.91V15.16C9.60219 15.0933 9.97552 15.05 10.3622 15.03C10.7555 15.0033 11.0922 14.99 11.3722 14.99C11.9655 14.99 12.5022 15.0567 12.9822 15.19C13.4689 15.3233 13.8855 15.5333 14.2322 15.82C14.5789 16.1067 14.8455 16.4733 15.0322 16.92C15.2189 17.3667 15.3122 17.9033 15.3122 18.53Z" fill="white"/>
</svg>
