<svg width="26" height="30" viewBox="0 0 26 30" fill="none" xmlns="http://www.w3.org/2000/svg">
<path d="M0.634413 6.84778L12.3805 0.160206C12.7642 -0.0582554 13.2328 -0.0529706 13.6117 0.174091L25.3894 7.23257C25.7677 7.4593 26 7.87327 26 8.32067V21.6793C26 22.1267 25.7677 22.5407 25.3894 22.7674L13.6117 29.8259C13.2328 30.053 12.7642 30.0583 12.3805 29.8398L0.634414 23.1522C0.242711 22.9292 0 22.5076 0 22.0502V7.94977C0 7.49239 0.24271 7.0708 0.634413 6.84778Z" fill="white"/>
<path d="M1.99902 20.9946V9.00537C1.99902 8.52652 2.24655 8.08512 2.64606 7.85152L7.50635 5.00974L18.4998 24.8162L13.6234 27.8175C13.2367 28.0555 12.7583 28.0611 12.3666 27.8321L2.64606 22.1485C2.24655 21.9149 1.99902 21.4735 1.99902 20.9946Z" fill="#B5CA5E"/>
<path d="M23.999 9.32434V20.6757C23.999 21.1441 23.7621 21.5775 23.3762 21.815L18.4998 24.8162L7.50635 5.00973L12.3666 2.16794C12.7583 1.93893 13.2367 1.94447 13.6234 2.18249L23.3762 8.18505C23.7621 8.42253 23.999 8.85595 23.999 9.32434Z" fill="#A46B6A"/>
<path d="M20.2904 20.405C20.4004 20.405 20.4904 20.3967 20.5604 20.38C20.6337 20.36 20.692 20.335 20.7354 20.305C20.7787 20.2717 20.8087 20.2333 20.8254 20.19C20.842 20.1467 20.8504 20.0983 20.8504 20.045C20.8504 19.9317 20.797 19.8383 20.6904 19.765C20.5837 19.6883 20.4004 19.6067 20.1404 19.52C20.027 19.48 19.9137 19.435 19.8004 19.385C19.687 19.3317 19.5854 19.2667 19.4954 19.19C19.4054 19.11 19.332 19.015 19.2754 18.905C19.2187 18.7917 19.1904 18.655 19.1904 18.495C19.1904 18.335 19.2204 18.1917 19.2804 18.065C19.3404 17.935 19.4254 17.825 19.5354 17.735C19.6454 17.645 19.7787 17.5767 19.9354 17.53C20.092 17.48 20.2687 17.455 20.4654 17.455C20.6987 17.455 20.9004 17.48 21.0704 17.53C21.2404 17.58 21.3804 17.635 21.4904 17.695L21.2654 18.31C21.1687 18.26 21.0604 18.2167 20.9404 18.18C20.8237 18.14 20.682 18.12 20.5154 18.12C20.3287 18.12 20.1937 18.1467 20.1104 18.2C20.0304 18.25 19.9904 18.3283 19.9904 18.435C19.9904 18.4983 20.0054 18.5517 20.0354 18.595C20.0654 18.6383 20.107 18.6783 20.1604 18.715C20.217 18.7483 20.2804 18.78 20.3504 18.81C20.4237 18.8367 20.5037 18.865 20.5904 18.895C20.7704 18.9617 20.927 19.0283 21.0604 19.095C21.1937 19.1583 21.3037 19.2333 21.3904 19.32C21.4804 19.4067 21.547 19.5083 21.5904 19.625C21.6337 19.7417 21.6554 19.8833 21.6554 20.05C21.6554 20.3733 21.542 20.625 21.3154 20.805C21.0887 20.9817 20.747 21.07 20.2904 21.07C20.137 21.07 19.9987 21.06 19.8754 21.04C19.752 21.0233 19.642 21.0017 19.5454 20.975C19.452 20.9483 19.3704 20.92 19.3004 20.89C19.2337 20.86 19.177 20.8317 19.1304 20.805L19.3504 20.185C19.4537 20.2417 19.5804 20.2933 19.7304 20.34C19.8837 20.3833 20.0704 20.405 20.2904 20.405Z" fill="white"/>
<path d="M18.5936 19.835C18.5936 20.005 18.5736 20.165 18.5336 20.315C18.497 20.465 18.4303 20.5966 18.3336 20.71C18.2403 20.82 18.112 20.9083 17.9486 20.975C17.7886 21.0383 17.5853 21.07 17.3386 21.07C17.112 21.07 16.917 21.0433 16.7536 20.99C16.5903 20.9333 16.4553 20.8683 16.3486 20.795L16.6086 20.19C16.7053 20.2466 16.8086 20.2966 16.9186 20.34C17.0286 20.3833 17.1486 20.405 17.2786 20.405C17.4686 20.405 17.6053 20.3583 17.6886 20.265C17.772 20.1716 17.8136 20.015 17.8136 19.795V17.535H18.5936V19.835Z" fill="white"/>
<path d="M13.5444 21V17.535H15.8844V18.19H14.3244V18.87H15.7094V19.51H14.3244V20.345H15.9994V21H13.5444Z" fill="white"/>
</svg>
