<svg width="27" height="30" viewBox="0 0 27 30" fill="none" xmlns="http://www.w3.org/2000/svg">
<path d="M0.876112 6.84778L12.6222 0.160206C13.0059 -0.0582554 13.4745 -0.0529706 13.8534 0.174091L25.6311 7.23257C26.0094 7.4593 26.2417 7.87327 26.2417 8.32067V21.6793C26.2417 22.1267 26.0094 22.5407 25.6311 22.7674L13.8534 29.8259C13.4745 30.053 13.0059 30.0583 12.6222 29.8398L0.876113 23.1522C0.48441 22.9292 0.241699 22.5076 0.241699 22.0502V7.94977C0.241699 7.49239 0.484409 7.0708 0.876112 6.84778Z" fill="white"/>
<path d="M2.88874 7.85152L12.6093 2.16794C13.001 1.93893 13.4794 1.94447 13.8661 2.18249L23.6189 8.18505C24.0048 8.42253 24.2417 8.85595 24.2417 9.32434V20.6757C24.2417 21.1441 24.0048 21.5775 23.6189 21.815L13.8661 27.8175C13.4794 28.0555 13.001 28.0611 12.6093 27.8321L2.88874 22.1485C2.48922 21.9149 2.2417 21.4735 2.2417 20.9946V9.00537C2.2417 8.52652 2.48922 8.08512 2.88874 7.85152Z" fill="#6E4F7B"/>
<path d="M19.9686 22C19.7752 21.6133 19.5619 21.2233 19.3286 20.83C19.1019 20.43 18.8386 20.0233 18.5386 19.61C18.4452 19.73 18.3252 19.8967 18.1786 20.11C18.0386 20.3233 17.8952 20.55 17.7486 20.79C17.6086 21.03 17.4752 21.26 17.3486 21.48C17.2219 21.7 17.1286 21.8733 17.0686 22H15.2886C15.5819 21.46 15.9219 20.8933 16.3086 20.3C16.7019 19.7067 17.1386 19.0767 17.6186 18.41L15.3886 15.07H17.2786L18.6286 17.23L19.9486 15.07H21.7286L19.5286 18.43C20.0886 19.1567 20.5586 19.83 20.9386 20.45C21.3186 21.0633 21.6186 21.58 21.8386 22H19.9686Z" fill="white"/>
<path d="M14.6715 20.66V22H10.0415V15.07H11.6015V20.66H14.6715Z" fill="white"/>
</svg>
