<svg width="26" height="30" viewBox="0 0 26 30" fill="none" xmlns="http://www.w3.org/2000/svg">
<path d="M0.634413 6.84778L12.3805 0.160206C12.7642 -0.0582554 13.2328 -0.0529706 13.6117 0.174091L25.3894 7.23257C25.7677 7.4593 26 7.87327 26 8.32067V21.6793C26 22.1267 25.7677 22.5407 25.3894 22.7674L13.6117 29.8259C13.2328 30.053 12.7642 30.0583 12.3805 29.8398L0.634414 23.1522C0.242711 22.9292 0 22.5076 0 22.0502V7.94977C0 7.49239 0.24271 7.0708 0.634413 6.84778Z" fill="white"/>
<path d="M2.64704 7.85152L12.3676 2.16794C12.7593 1.93893 13.2377 1.94447 13.6244 2.18249L23.3772 8.18505C23.7631 8.42253 24 8.85595 24 9.32434V20.6757C24 21.1441 23.7631 21.5775 23.3772 21.815L13.6244 27.8175C13.2377 28.0555 12.7593 28.0611 12.3676 27.8321L2.64704 22.1485C2.24752 21.9149 2 21.4735 2 20.9946V9.00537C2 8.52652 2.24752 8.08512 2.64704 7.85152Z" fill="#C4C4C4"/>
<path d="M21.629 19.63L17.329 21.44L16.939 20.23L20.079 19.01L16.939 17.79L17.329 16.58L21.629 18.39V19.63Z" fill="white"/>
<path d="M14.1638 23.85H12.6338L15.9938 14.17H17.5038L14.1638 23.85Z" fill="white"/>
<path d="M8.5 18.39L12.8 16.58L13.19 17.79L10.05 19.01L13.19 20.23L12.8 21.44L8.5 19.63V18.39Z" fill="white"/>
</svg>
