<svg width="27" height="30" viewBox="0 0 27 30" fill="none" xmlns="http://www.w3.org/2000/svg">
<path d="M0.876112 6.84778L12.6222 0.160206C13.0059 -0.0582554 13.4745 -0.0529706 13.8534 0.174091L25.6311 7.23257C26.0094 7.4593 26.2417 7.87327 26.2417 8.32067V21.6793C26.2417 22.1267 26.0094 22.5407 25.6311 22.7674L13.8534 29.8259C13.4745 30.053 13.0059 30.0583 12.6222 29.8398L0.876113 23.1522C0.48441 22.9292 0.241699 22.5076 0.241699 22.0502V7.94977C0.241699 7.49239 0.484409 7.0708 0.876112 6.84778Z" fill="white"/>
<path d="M2.88874 7.85152L12.6093 2.16794C13.001 1.93893 13.4794 1.94447 13.8661 2.18249L23.6189 8.18505C24.0048 8.42253 24.2417 8.85595 24.2417 9.32434V20.6757C24.2417 21.1441 24.0048 21.5775 23.6189 21.815L13.8661 27.8175C13.4794 28.0555 13.001 28.0611 12.6093 27.8321L2.88874 22.1485C2.48922 21.9149 2.2417 21.4735 2.2417 20.9946V9.00537C2.2417 8.52652 2.48922 8.08512 2.88874 7.85152Z" fill="#00ACD7"/>
<path d="M16.3732 18.53C16.3732 18.87 16.4132 19.1767 16.4932 19.45C16.5799 19.7233 16.6999 19.96 16.8532 20.16C17.0132 20.3533 17.2065 20.5033 17.4332 20.61C17.6599 20.7167 17.9199 20.77 18.2132 20.77C18.4999 20.77 18.7565 20.7167 18.9832 20.61C19.2165 20.5033 19.4099 20.3533 19.5632 20.16C19.7232 19.96 19.8432 19.7233 19.9232 19.45C20.0099 19.1767 20.0532 18.87 20.0532 18.53C20.0532 18.19 20.0099 17.8833 19.9232 17.61C19.8432 17.33 19.7232 17.0933 19.5632 16.9C19.4099 16.7 19.2165 16.5467 18.9832 16.44C18.7565 16.3333 18.4999 16.28 18.2132 16.28C17.9199 16.28 17.6599 16.3367 17.4332 16.45C17.2065 16.5567 17.0132 16.71 16.8532 16.91C16.6999 17.1033 16.5799 17.34 16.4932 17.62C16.4132 17.8933 16.3732 18.1967 16.3732 18.53ZM21.6632 18.53C21.6632 19.1233 21.5732 19.6467 21.3932 20.1C21.2199 20.5467 20.9799 20.9233 20.6732 21.23C20.3665 21.53 19.9999 21.7567 19.5732 21.91C19.1532 22.0633 18.6999 22.14 18.2132 22.14C17.7399 22.14 17.2932 22.0633 16.8732 21.91C16.4532 21.7567 16.0865 21.53 15.7732 21.23C15.4599 20.9233 15.2132 20.5467 15.0332 20.1C14.8532 19.6467 14.7632 19.1233 14.7632 18.53C14.7632 17.9367 14.8565 17.4167 15.0432 16.97C15.2299 16.5167 15.4798 16.1367 15.7932 15.83C16.1132 15.5233 16.4799 15.2933 16.8932 15.14C17.3132 14.9867 17.7532 14.91 18.2132 14.91C18.6865 14.91 19.1332 14.9867 19.5532 15.14C19.9732 15.2933 20.3399 15.5233 20.6532 15.83C20.9665 16.1367 21.2132 16.5167 21.3932 16.97C21.5732 17.4167 21.6632 17.9367 21.6632 18.53Z" fill="white"/>
<path d="M11.4217 16.27C10.695 16.27 10.1684 16.4733 9.8417 16.88C9.5217 17.28 9.3617 17.83 9.3617 18.53C9.3617 18.87 9.4017 19.18 9.4817 19.46C9.5617 19.7333 9.6817 19.97 9.8417 20.17C10.0017 20.37 10.2017 20.5267 10.4417 20.64C10.6817 20.7467 10.9617 20.8 11.2817 20.8C11.455 20.8 11.6017 20.7967 11.7217 20.79C11.8484 20.7833 11.9584 20.77 12.0517 20.75V18.34H13.6117V21.77C13.425 21.8433 13.125 21.92 12.7117 22C12.2984 22.0867 11.7884 22.13 11.1817 22.13C10.6617 22.13 10.1884 22.05 9.7617 21.89C9.3417 21.73 8.9817 21.4967 8.6817 21.19C8.3817 20.8833 8.14837 20.5067 7.9817 20.06C7.8217 19.6133 7.7417 19.1033 7.7417 18.53C7.7417 17.95 7.8317 17.4367 8.0117 16.99C8.1917 16.5433 8.43837 16.1667 8.7517 15.86C9.06503 15.5467 9.4317 15.31 9.8517 15.15C10.2784 14.99 10.7317 14.91 11.2117 14.91C11.5384 14.91 11.8317 14.9333 12.0917 14.98C12.3584 15.02 12.585 15.07 12.7717 15.13C12.965 15.1833 13.1217 15.24 13.2417 15.3C13.3684 15.36 13.4584 15.4067 13.5117 15.44L13.0617 16.69C12.8484 16.5767 12.6017 16.48 12.3217 16.4C12.0484 16.3133 11.7484 16.27 11.4217 16.27Z" fill="white"/>
</svg>
