<svg width="27" height="30" viewBox="0 0 27 30" fill="none" xmlns="http://www.w3.org/2000/svg">
<path d="M0.876112 6.84778L12.6222 0.160206C13.0059 -0.0582554 13.4745 -0.0529706 13.8534 0.174091L25.6311 7.23257C26.0094 7.4593 26.2417 7.87327 26.2417 8.32067V21.6793C26.2417 22.1267 26.0094 22.5407 25.6311 22.7674L13.8534 29.8259C13.4745 30.053 13.0059 30.0583 12.6222 29.8398L0.876113 23.1522C0.48441 22.9292 0.241699 22.5076 0.241699 22.0502V7.94977C0.241699 7.49239 0.484409 7.0708 0.876112 6.84778Z" fill="white"/>
<path d="M2.88874 7.85152L12.6093 2.16794C13.001 1.93893 13.4794 1.94447 13.8661 2.18249L23.6189 8.18505C24.0048 8.42253 24.2417 8.85595 24.2417 9.32434V20.6757C24.2417 21.1441 24.0048 21.5775 23.6189 21.815L13.8661 27.8175C13.4794 28.0555 13.001 28.0611 12.6093 27.8321L2.88874 22.1485C2.48922 21.9149 2.2417 21.4735 2.2417 20.9946V9.00537C2.2417 8.52652 2.48922 8.08512 2.88874 7.85152Z" fill="#499CC9"/>
<path d="M17.2473 14.99C18.2873 14.99 19.084 15.1767 19.6373 15.55C20.1906 15.9167 20.4673 16.49 20.4673 17.27C20.4673 17.7567 20.354 18.1533 20.1273 18.46C19.9073 18.76 19.5873 18.9967 19.1673 19.17C19.3073 19.3433 19.454 19.5433 19.6073 19.77C19.7606 19.99 19.9106 20.2233 20.0573 20.47C20.2106 20.71 20.3573 20.9633 20.4973 21.23C20.6373 21.49 20.7673 21.7467 20.8873 22H19.1373C19.0106 21.7733 18.8806 21.5433 18.7473 21.31C18.6206 21.0767 18.4873 20.85 18.3473 20.63C18.214 20.41 18.0806 20.2033 17.9473 20.01C17.814 19.81 17.6806 19.63 17.5473 19.47H16.7773V22H15.2173V15.17C15.5573 15.1033 15.9073 15.0567 16.2673 15.03C16.634 15.0033 16.9606 14.99 17.2473 14.99ZM17.3373 16.32C17.224 16.32 17.1206 16.3233 17.0273 16.33C16.9406 16.3367 16.8573 16.3433 16.7773 16.35V18.23H17.2173C17.804 18.23 18.224 18.1567 18.4773 18.01C18.7306 17.8633 18.8573 17.6133 18.8573 17.26C18.8573 16.92 18.7273 16.68 18.4673 16.54C18.214 16.3933 17.8373 16.32 17.3373 16.32Z" fill="white"/>
<path d="M11.576 16.27C10.8493 16.27 10.3227 16.4733 9.996 16.88C9.676 17.28 9.516 17.83 9.516 18.53C9.516 18.87 9.556 19.18 9.636 19.46C9.716 19.7333 9.836 19.97 9.996 20.17C10.156 20.37 10.356 20.5267 10.596 20.64C10.836 20.7467 11.116 20.8 11.436 20.8C11.6093 20.8 11.756 20.7967 11.876 20.79C12.0027 20.7833 12.1127 20.77 12.206 20.75V18.34H13.766V21.77C13.5793 21.8433 13.2793 21.92 12.866 22C12.4527 22.0867 11.9427 22.13 11.336 22.13C10.816 22.13 10.3427 22.05 9.916 21.89C9.496 21.73 9.136 21.4967 8.836 21.19C8.536 20.8833 8.30266 20.5067 8.136 20.06C7.976 19.6133 7.896 19.1033 7.896 18.53C7.896 17.95 7.986 17.4367 8.166 16.99C8.346 16.5433 8.59266 16.1667 8.906 15.86C9.21933 15.5467 9.586 15.31 10.006 15.15C10.4327 14.99 10.886 14.91 11.366 14.91C11.6927 14.91 11.986 14.9333 12.246 14.98C12.5127 15.02 12.7393 15.07 12.926 15.13C13.1193 15.1833 13.276 15.24 13.396 15.3C13.5227 15.36 13.6127 15.4067 13.666 15.44L13.216 16.69C13.0027 16.5767 12.756 16.48 12.476 16.4C12.2027 16.3133 11.9027 16.27 11.576 16.27Z" fill="white"/>
</svg>
