<svg width="27" height="30" viewBox="0 0 27 30" fill="none" xmlns="http://www.w3.org/2000/svg">
<path d="M0.876112 6.84778L12.6222 0.160206C13.0059 -0.0582554 13.4745 -0.0529706 13.8534 0.174091L25.6311 7.23257C26.0094 7.4593 26.2417 7.87327 26.2417 8.32067V21.6793C26.2417 22.1267 26.0094 22.5407 25.6311 22.7674L13.8534 29.8259C13.4745 30.053 13.0059 30.0583 12.6222 29.8398L0.876113 23.1522C0.48441 22.9292 0.241699 22.5076 0.241699 22.0502V7.94977C0.241699 7.49239 0.484409 7.0708 0.876112 6.84778Z" fill="white"/>
<path d="M2.88874 7.85152L12.6093 2.16794C13.001 1.93893 13.4794 1.94447 13.8661 2.18249L23.6189 8.18505C24.0048 8.42253 24.2417 8.85595 24.2417 9.32434V20.6757C24.2417 21.1441 24.0048 21.5775 23.6189 21.815L13.8661 27.8175C13.4794 28.0555 13.001 28.0611 12.6093 27.8321L2.88874 22.1485C2.48922 21.9149 2.2417 21.4735 2.2417 20.9946V9.00537C2.2417 8.52652 2.48922 8.08512 2.88874 7.85152Z" fill="#E8AB8B"/>
<path d="M18.164 22.09C17.784 22.09 17.404 22.0767 17.024 22.05C16.6507 22.03 16.2607 21.9767 15.854 21.89V15.17C16.174 15.11 16.524 15.0667 16.904 15.04C17.284 15.0067 17.6373 14.99 17.964 14.99C18.404 14.99 18.8073 15.0233 19.174 15.09C19.5473 15.15 19.8673 15.2567 20.134 15.41C20.4007 15.5633 20.6073 15.7667 20.754 16.02C20.9073 16.2667 20.984 16.5733 20.984 16.94C20.984 17.4933 20.7173 17.93 20.184 18.25C20.624 18.4167 20.924 18.6433 21.084 18.93C21.244 19.2167 21.324 19.54 21.324 19.9C21.324 20.6267 21.0573 21.1733 20.524 21.54C19.9973 21.9067 19.2107 22.09 18.164 22.09ZM17.374 18.98V20.77C17.4873 20.7833 17.6107 20.7933 17.744 20.8C17.8773 20.8067 18.024 20.81 18.184 20.81C18.6507 20.81 19.0273 20.7433 19.314 20.61C19.6007 20.4767 19.744 20.23 19.744 19.87C19.744 19.55 19.624 19.3233 19.384 19.19C19.144 19.05 18.8007 18.98 18.354 18.98H17.374ZM17.374 17.79H18.134C18.614 17.79 18.9573 17.73 19.164 17.61C19.3707 17.4833 19.474 17.2833 19.474 17.01C19.474 16.73 19.3673 16.5333 19.154 16.42C18.9407 16.3067 18.6273 16.25 18.214 16.25C18.0807 16.25 17.9373 16.2533 17.784 16.26C17.6307 16.26 17.494 16.2667 17.374 16.28V17.79Z" fill="white"/>
<path d="M12.6903 15.07H14.2503V22H12.6903V19.06H10.0703V22H8.51025V15.07H10.0703V17.72H12.6903V15.07Z" fill="white"/>
</svg>
