<svg width="27" height="30" viewBox="0 0 27 30" fill="none" xmlns="http://www.w3.org/2000/svg">
<path d="M0.876112 6.84778L12.6222 0.160206C13.0059 -0.0582554 13.4745 -0.0529706 13.8534 0.174091L25.6311 7.23257C26.0094 7.4593 26.2417 7.87327 26.2417 8.32067V21.6793C26.2417 22.1267 26.0094 22.5407 25.6311 22.7674L13.8534 29.8259C13.4745 30.053 13.0059 30.0583 12.6222 29.8398L0.876113 23.1522C0.48441 22.9292 0.241699 22.5076 0.241699 22.0502V7.94977C0.241699 7.49239 0.484409 7.0708 0.876112 6.84778Z" fill="white"/>
<path d="M2.88874 7.85152L12.6093 2.16794C13.001 1.93893 13.4794 1.94447 13.8661 2.18249L23.6189 8.18505C24.0048 8.42253 24.2417 8.85595 24.2417 9.32434V20.6757C24.2417 21.1441 24.0048 21.5775 23.6189 21.815L13.8661 27.8175C13.4794 28.0555 13.001 28.0611 12.6093 27.8321L2.88874 22.1485C2.48922 21.9149 2.2417 21.4735 2.2417 20.9946V9.00537C2.2417 8.52652 2.48922 8.08512 2.88874 7.85152Z" fill="#5F43E9"/>
<path d="M20.8707 20.33V21H18.5557V17.535H19.3357V20.33H20.8707Z" fill="white"/>
<path d="M16.8936 21.07C16.3302 21.07 15.9002 20.9133 15.6036 20.6C15.3102 20.2867 15.1636 19.8417 15.1636 19.265C15.1636 18.9783 15.2086 18.7233 15.2986 18.5C15.3886 18.2733 15.5119 18.0833 15.6686 17.93C15.8252 17.7733 16.0119 17.655 16.2286 17.575C16.4452 17.495 16.6802 17.455 16.9336 17.455C17.0802 17.455 17.2136 17.4667 17.3336 17.49C17.4536 17.51 17.5586 17.535 17.6486 17.565C17.7386 17.5917 17.8136 17.62 17.8736 17.65C17.9336 17.68 17.9769 17.7033 18.0036 17.72L17.7786 18.35C17.6719 18.2933 17.5469 18.245 17.4036 18.205C17.2636 18.165 17.1036 18.145 16.9236 18.145C16.8036 18.145 16.6852 18.165 16.5686 18.205C16.4552 18.245 16.3536 18.31 16.2636 18.4C16.1769 18.4867 16.1069 18.6 16.0536 18.74C16.0002 18.88 15.9736 19.05 15.9736 19.25C15.9736 19.41 15.9902 19.56 16.0236 19.7C16.0602 19.8367 16.1169 19.955 16.1936 20.055C16.2736 20.155 16.3769 20.235 16.5036 20.295C16.6302 20.3517 16.7836 20.38 16.9636 20.38C17.0769 20.38 17.1786 20.3733 17.2686 20.36C17.3586 20.3467 17.4386 20.3317 17.5086 20.315C17.5786 20.295 17.6402 20.2733 17.6936 20.25C17.7469 20.2267 17.7952 20.205 17.8386 20.185L18.0536 20.81C17.9436 20.8767 17.7886 20.9367 17.5886 20.99C17.3886 21.0433 17.1569 21.07 16.8936 21.07Z" fill="white"/>
<path d="M13.7316 17.535H14.5116V21H13.7316V19.53H12.4216V21H11.6416V17.535H12.4216V18.86H13.7316V17.535Z" fill="white"/>
</svg>
