<svg width="27" height="30" viewBox="0 0 27 30" fill="none" xmlns="http://www.w3.org/2000/svg">
<path d="M0.876112 6.84778L12.6222 0.160206C13.0059 -0.0582554 13.4745 -0.0529706 13.8534 0.174091L25.6311 7.23257C26.0094 7.4593 26.2417 7.87327 26.2417 8.32067V21.6793C26.2417 22.1267 26.0094 22.5407 25.6311 22.7674L13.8534 29.8259C13.4745 30.053 13.0059 30.0583 12.6222 29.8398L0.876113 23.1522C0.48441 22.9292 0.241699 22.5076 0.241699 22.0502V7.94977C0.241699 7.49239 0.484409 7.0708 0.876112 6.84778Z" fill="white"/>
<path d="M2.88874 7.85152L12.6093 2.16794C12.8058 2.05306 13.0241 1.9972 13.2417 2.00011V27.9999C13.0241 28.0028 12.8058 27.9469 12.6093 27.8321L2.88874 22.1485C2.48922 21.9149 2.2417 21.4735 2.2417 20.9946V9.00537C2.2417 8.52652 2.48922 8.08512 2.88874 7.85152Z" fill="#E34A22"/>
<path d="M23.6189 21.815L13.8661 27.8175C13.6734 27.9361 13.4579 27.997 13.2417 27.9999V2C13.4579 2.00288 13.6734 2.06387 13.8661 2.18249L23.6189 8.18505C24.0048 8.42253 24.2417 8.85595 24.2417 9.32434V20.6757C24.2417 21.1441 24.0048 21.5775 23.6189 21.815Z" fill="#EE5F25"/>
<path d="M22.1382 20.33V21H19.8232V17.535H20.6032V20.33H22.1382Z" fill="white"/>
<path d="M16.2558 17.535C16.3158 17.645 16.3842 17.7817 16.4608 17.945C16.5408 18.105 16.6225 18.28 16.7058 18.47C16.7925 18.6567 16.8775 18.8483 16.9608 19.045C17.0442 19.2417 17.1225 19.4267 17.1958 19.6C17.2692 19.4267 17.3475 19.2417 17.4308 19.045C17.5142 18.8483 17.5975 18.6567 17.6808 18.47C17.7675 18.28 17.8492 18.105 17.9258 17.945C18.0058 17.7817 18.0758 17.645 18.1358 17.535H18.8458C18.8792 17.765 18.9092 18.0233 18.9358 18.31C18.9658 18.5933 18.9908 18.89 19.0108 19.2C19.0342 19.5067 19.0542 19.815 19.0708 20.125C19.0908 20.435 19.1075 20.7267 19.1208 21H18.3608C18.3508 20.6633 18.3375 20.2967 18.3208 19.9C18.3042 19.5033 18.2792 19.1033 18.2458 18.7C18.1858 18.84 18.1192 18.995 18.0458 19.165C17.9725 19.335 17.8992 19.505 17.8258 19.675C17.7558 19.845 17.6875 20.0083 17.6208 20.165C17.5542 20.3183 17.4975 20.45 17.4508 20.56H16.9058C16.8592 20.45 16.8025 20.3183 16.7358 20.165C16.6692 20.0083 16.5992 19.845 16.5258 19.675C16.4558 19.505 16.3842 19.335 16.3108 19.165C16.2375 18.995 16.1708 18.84 16.1108 18.7C16.0775 19.1033 16.0525 19.5033 16.0358 19.9C16.0192 20.2967 16.0058 20.6633 15.9958 21H15.2358C15.2492 20.7267 15.2642 20.435 15.2808 20.125C15.3008 19.815 15.3208 19.5067 15.3408 19.2C15.3642 18.89 15.3892 18.5933 15.4158 18.31C15.4458 18.0233 15.4775 17.765 15.5108 17.535H16.2558Z" fill="white"/>
<path d="M14.8837 17.535V18.2H13.8387V21H13.0587V18.2H12.0137V17.535H14.8837Z" fill="white"/>
<path d="M10.7316 17.535H11.5116V21H10.7316V19.53H9.4216V21H8.6416V17.535H9.4216V18.86H10.7316V17.535Z" fill="white"/>
</svg>
