<svg width="27" height="30" viewBox="0 0 27 30" fill="none" xmlns="http://www.w3.org/2000/svg">
<path d="M0.876112 6.84778L12.6222 0.160206C13.0059 -0.0582554 13.4745 -0.0529706 13.8534 0.174091L25.6311 7.23257C26.0094 7.4593 26.2417 7.87327 26.2417 8.32067V21.6793C26.2417 22.1267 26.0094 22.5407 25.6311 22.7674L13.8534 29.8259C13.4745 30.053 13.0059 30.0583 12.6222 29.8398L0.876113 23.1522C0.48441 22.9292 0.241699 22.5076 0.241699 22.0502V7.94977C0.241699 7.49239 0.484409 7.0708 0.876112 6.84778Z" fill="white"/>
<path d="M2.88874 7.85152L12.6093 2.16794C13.001 1.93893 13.4794 1.94447 13.8661 2.18249L23.6189 8.18505C24.0048 8.42253 24.2417 8.85595 24.2417 9.32434V20.6757C24.2417 21.1441 24.0048 21.5775 23.6189 21.815L13.8661 27.8175C13.4794 28.0555 13.001 28.0611 12.6093 27.8321L2.88874 22.1485C2.48922 21.9149 2.2417 21.4735 2.2417 20.9946V9.00537C2.2417 8.52652 2.48922 8.08512 2.88874 7.85152Z" fill="#E1C908"/>
<path d="M18.2248 20.81C18.4448 20.81 18.6248 20.7933 18.7648 20.76C18.9115 20.72 19.0281 20.67 19.1148 20.61C19.2015 20.5433 19.2615 20.4667 19.2948 20.38C19.3281 20.2933 19.3448 20.1967 19.3448 20.09C19.3448 19.8633 19.2381 19.6767 19.0248 19.53C18.8115 19.3767 18.4448 19.2133 17.9248 19.04C17.6981 18.96 17.4715 18.87 17.2448 18.77C17.0181 18.6633 16.8148 18.5333 16.6348 18.38C16.4548 18.22 16.3081 18.03 16.1948 17.81C16.0815 17.5833 16.0248 17.31 16.0248 16.99C16.0248 16.67 16.0848 16.3833 16.2048 16.13C16.3248 15.87 16.4948 15.65 16.7148 15.47C16.9348 15.29 17.2015 15.1533 17.5148 15.06C17.8281 14.96 18.1815 14.91 18.5748 14.91C19.0415 14.91 19.4448 14.96 19.7848 15.06C20.1248 15.16 20.4048 15.27 20.6248 15.39L20.1748 16.62C19.9815 16.52 19.7648 16.4333 19.5248 16.36C19.2915 16.28 19.0081 16.24 18.6748 16.24C18.3015 16.24 18.0315 16.2933 17.8648 16.4C17.7048 16.5 17.6248 16.6567 17.6248 16.87C17.6248 16.9967 17.6548 17.1033 17.7148 17.19C17.7748 17.2767 17.8581 17.3567 17.9648 17.43C18.0781 17.4967 18.2048 17.56 18.3448 17.62C18.4915 17.6733 18.6515 17.73 18.8248 17.79C19.1848 17.9233 19.4981 18.0567 19.7648 18.19C20.0315 18.3167 20.2515 18.4667 20.4248 18.64C20.6048 18.8133 20.7381 19.0167 20.8248 19.25C20.9115 19.4833 20.9548 19.7667 20.9548 20.1C20.9548 20.7467 20.7281 21.25 20.2748 21.61C19.8215 21.9633 19.1381 22.14 18.2248 22.14C17.9181 22.14 17.6415 22.12 17.3948 22.08C17.1481 22.0467 16.9281 22.0033 16.7348 21.95C16.5481 21.8967 16.3848 21.84 16.2448 21.78C16.1115 21.72 15.9981 21.6633 15.9048 21.61L16.3448 20.37C16.5515 20.4833 16.8048 20.5867 17.1048 20.68C17.4115 20.7667 17.7848 20.81 18.2248 20.81Z" fill="white"/>
<path d="M14.8318 19.67C14.8318 20.01 14.7918 20.33 14.7118 20.63C14.6385 20.93 14.5051 21.1933 14.3118 21.42C14.1251 21.64 13.8685 21.8167 13.5418 21.95C13.2218 22.0767 12.8151 22.14 12.3218 22.14C11.8685 22.14 11.4785 22.0867 11.1518 21.98C10.8251 21.8667 10.5551 21.7367 10.3418 21.59L10.8618 20.38C11.0551 20.4933 11.2618 20.5933 11.4818 20.68C11.7018 20.7667 11.9418 20.81 12.2018 20.81C12.5818 20.81 12.8551 20.7167 13.0218 20.53C13.1885 20.3433 13.2718 20.03 13.2718 19.59V15.07H14.8318V19.67Z" fill="white"/>
</svg>
