<svg width="27" height="30" viewBox="0 0 27 30" fill="none" xmlns="http://www.w3.org/2000/svg">
<path d="M0.876112 6.84778L12.6222 0.160206C13.0059 -0.0582554 13.4745 -0.0529706 13.8534 0.174091L25.6311 7.23257C26.0094 7.4593 26.2417 7.87327 26.2417 8.32067V21.6793C26.2417 22.1267 26.0094 22.5407 25.6311 22.7674L13.8534 29.8259C13.4745 30.053 13.0059 30.0583 12.6222 29.8398L0.876113 23.1522C0.48441 22.9292 0.241699 22.5076 0.241699 22.0502V7.94977C0.241699 7.49239 0.484409 7.0708 0.876112 6.84778Z" fill="white"/>
<path d="M2.88874 7.85152L12.6093 2.16794C13.001 1.93893 13.4794 1.94447 13.8661 2.18249L23.6189 8.18505C24.0048 8.42253 24.2417 8.85595 24.2417 9.32434V20.6757C24.2417 21.1441 24.0048 21.5775 23.6189 21.815L13.8661 27.8175C13.4794 28.0555 13.001 28.0611 12.6093 27.8321L2.88874 22.1485C2.48922 21.9149 2.2417 21.4735 2.2417 20.9946V9.00537C2.2417 8.52652 2.48922 8.08512 2.88874 7.85152Z" fill="#EF1109"/>
<path d="M21.0728 21C21.0362 20.88 20.9945 20.7567 20.9478 20.63C20.9045 20.5033 20.8612 20.3767 20.8178 20.25H19.4678C19.4245 20.3767 19.3795 20.5033 19.3328 20.63C19.2895 20.7567 19.2495 20.88 19.2128 21H18.4028C18.5328 20.6267 18.6562 20.2817 18.7728 19.965C18.8895 19.6483 19.0028 19.35 19.1128 19.07C19.2262 18.79 19.3362 18.525 19.4428 18.275C19.5528 18.0217 19.6662 17.775 19.7828 17.535H20.5278C20.6412 17.775 20.7528 18.0217 20.8628 18.275C20.9728 18.525 21.0828 18.79 21.1928 19.07C21.3062 19.35 21.4212 19.6483 21.5378 19.965C21.6545 20.2817 21.7778 20.6267 21.9078 21H21.0728ZM20.1378 18.32C20.1212 18.37 20.0962 18.4383 20.0628 18.525C20.0295 18.6117 19.9912 18.7117 19.9478 18.825C19.9045 18.9383 19.8562 19.0633 19.8028 19.2C19.7528 19.3367 19.7012 19.48 19.6478 19.63H20.6328C20.5795 19.48 20.5278 19.3367 20.4778 19.2C20.4278 19.0633 20.3795 18.9383 20.3328 18.825C20.2895 18.7117 20.2512 18.6117 20.2178 18.525C20.1845 18.4383 20.1578 18.37 20.1378 18.32Z" fill="white"/>
<path d="M16.5016 21C16.3649 20.71 16.2299 20.4083 16.0966 20.095C15.9632 19.7817 15.8366 19.4717 15.7166 19.165C15.5966 18.8583 15.4849 18.565 15.3816 18.285C15.2816 18.005 15.1949 17.755 15.1216 17.535H15.9816C16.0482 17.735 16.1199 17.9517 16.1966 18.185C16.2766 18.415 16.3566 18.645 16.4366 18.875C16.5199 19.105 16.5999 19.325 16.6766 19.535C16.7532 19.745 16.8249 19.9267 16.8916 20.08C16.9549 19.9267 17.0249 19.745 17.1016 19.535C17.1816 19.325 17.2616 19.105 17.3416 18.875C17.4249 18.645 17.5049 18.415 17.5816 18.185C17.6616 17.9517 17.7349 17.735 17.8016 17.535H18.6316C18.5549 17.755 18.4666 18.005 18.3666 18.285C18.2666 18.565 18.1566 18.8583 18.0366 19.165C17.9166 19.4717 17.7899 19.7817 17.6566 20.095C17.5232 20.4083 17.3882 20.71 17.2516 21H16.5016Z" fill="white"/>
<path d="M14.5152 21C14.4785 20.88 14.4369 20.7567 14.3902 20.63C14.3469 20.5033 14.3035 20.3767 14.2602 20.25H12.9102C12.8669 20.3767 12.8219 20.5033 12.7752 20.63C12.7319 20.7567 12.6919 20.88 12.6552 21H11.8452C11.9752 20.6267 12.0985 20.2817 12.2152 19.965C12.3319 19.6483 12.4452 19.35 12.5552 19.07C12.6685 18.79 12.7785 18.525 12.8852 18.275C12.9952 18.0217 13.1085 17.775 13.2252 17.535H13.9702C14.0835 17.775 14.1952 18.0217 14.3052 18.275C14.4152 18.525 14.5252 18.79 14.6352 19.07C14.7485 19.35 14.8635 19.6483 14.9802 19.965C15.0969 20.2817 15.2202 20.6267 15.3502 21H14.5152ZM13.5802 18.32C13.5635 18.37 13.5385 18.4383 13.5052 18.525C13.4719 18.6117 13.4335 18.7117 13.3902 18.825C13.3469 18.9383 13.2985 19.0633 13.2452 19.2C13.1952 19.3367 13.1435 19.48 13.0902 19.63H14.0752C14.0219 19.48 13.9702 19.3367 13.9202 19.2C13.8702 19.0633 13.8219 18.9383 13.7752 18.825C13.7319 18.7117 13.6935 18.6117 13.6602 18.525C13.6269 18.4383 13.6002 18.37 13.5802 18.32Z" fill="white"/>
<path d="M11.5365 19.835C11.5365 20.005 11.5165 20.165 11.4765 20.315C11.4398 20.465 11.3732 20.5967 11.2765 20.71C11.1832 20.82 11.0548 20.9083 10.8915 20.975C10.7315 21.0383 10.5282 21.07 10.2815 21.07C10.0548 21.07 9.85984 21.0433 9.6965 20.99C9.53317 20.9333 9.39817 20.8683 9.2915 20.795L9.5515 20.19C9.64817 20.2467 9.7515 20.2967 9.8615 20.34C9.9715 20.3833 10.0915 20.405 10.2215 20.405C10.4115 20.405 10.5482 20.3583 10.6315 20.265C10.7148 20.1717 10.7565 20.015 10.7565 19.795V17.535H11.5365V19.835Z" fill="white"/>
</svg>
