<svg width="27" height="30" viewBox="0 0 27 30" fill="none" xmlns="http://www.w3.org/2000/svg">
<path d="M0.876112 6.84778L12.6222 0.160206C13.0059 -0.0582554 13.4745 -0.0529706 13.8534 0.174091L25.6311 7.23257C26.0094 7.4593 26.2417 7.87327 26.2417 8.32067V21.6793C26.2417 22.1267 26.0094 22.5407 25.6311 22.7674L13.8534 29.8259C13.4745 30.053 13.0059 30.0583 12.6222 29.8398L0.876113 23.1522C0.48441 22.9292 0.241699 22.5076 0.241699 22.0502V7.94977C0.241699 7.49239 0.484409 7.0708 0.876112 6.84778Z" fill="white"/>
<path d="M13.8661 2.18249C13.4794 1.94447 13.001 1.93893 12.6093 2.16794L7.74902 5.00973L13.2458 15.087L18.7425 5.18377L13.8661 2.18249Z" fill="#DD4F9D"/>
<path d="M2.2417 20.9946V9.00537C2.2417 8.52652 2.48922 8.08512 2.88874 7.85152L7.74903 5.00974L13.2458 15.087L7.74903 24.9903L2.88874 22.1485C2.48922 21.9149 2.2417 21.4735 2.2417 20.9946Z" fill="#B36ED5"/>
<path d="M23.6189 21.815L13.8661 27.8175C13.4794 28.0555 13.001 28.0611 12.6093 27.8321L7.74902 24.9903L18.7425 5.18377L23.6189 8.18505C24.0048 8.42253 24.2417 8.85595 24.2417 9.32434V20.6757C24.2417 21.144 24.0048 21.5775 23.6189 21.815Z" fill="#6178EF"/>
<path d="M19.0449 22.14C18.5582 22.14 18.1382 22.0733 17.7849 21.94C17.4315 21.8 17.1382 21.61 16.9049 21.37C16.6782 21.1233 16.5082 20.8333 16.3949 20.5C16.2882 20.16 16.2349 19.7867 16.2349 19.38V15.07H17.7949V19.25C17.7949 19.53 17.8249 19.77 17.8849 19.97C17.9515 20.1633 18.0382 20.3233 18.1449 20.45C18.2582 20.57 18.3915 20.6567 18.5449 20.71C18.7049 20.7633 18.8782 20.79 19.0649 20.79C19.4449 20.79 19.7515 20.6733 19.9849 20.44C20.2249 20.2067 20.3449 19.81 20.3449 19.25V15.07H21.9049V19.38C21.9049 19.7867 21.8482 20.16 21.7349 20.5C21.6215 20.84 21.4482 21.1333 21.2149 21.38C20.9815 21.62 20.6849 21.8067 20.3249 21.94C19.9649 22.0733 19.5382 22.14 19.0449 22.14Z" fill="white"/>
<path d="M14.8318 19.67C14.8318 20.01 14.7918 20.33 14.7118 20.63C14.6385 20.93 14.5051 21.1933 14.3118 21.42C14.1251 21.64 13.8685 21.8167 13.5418 21.95C13.2218 22.0767 12.8151 22.14 12.3218 22.14C11.8685 22.14 11.4785 22.0867 11.1518 21.98C10.8251 21.8667 10.5551 21.7367 10.3418 21.59L10.8618 20.38C11.0551 20.4933 11.2618 20.5933 11.4818 20.68C11.7018 20.7667 11.9418 20.81 12.2018 20.81C12.5818 20.81 12.8551 20.7167 13.0218 20.53C13.1885 20.3433 13.2718 20.03 13.2718 19.59V15.07H14.8318V19.67Z" fill="white"/>
</svg>
