<svg width="27" height="30" viewBox="0 0 27 30" fill="none" xmlns="http://www.w3.org/2000/svg">
<path d="M0.876112 6.84778L12.6222 0.160206C13.0059 -0.0582554 13.4745 -0.0529706 13.8534 0.174091L25.6311 7.23257C26.0094 7.4593 26.2417 7.87327 26.2417 8.32067V21.6793C26.2417 22.1267 26.0094 22.5407 25.6311 22.7674L13.8534 29.8259C13.4745 30.053 13.0059 30.0583 12.6222 29.8398L0.876113 23.1522C0.48441 22.9292 0.241699 22.5076 0.241699 22.0502V7.94977C0.241699 7.49239 0.484409 7.0708 0.876112 6.84778Z" fill="white"/>
<path d="M2.88874 7.85152L12.6093 2.16794C13.001 1.93893 13.4794 1.94447 13.8661 2.18249L23.6189 8.18505C24.0048 8.42253 24.2417 8.85595 24.2417 9.32434V20.6757C24.2417 21.1441 24.0048 21.5775 23.6189 21.815L13.8661 27.8175C13.4794 28.0555 13.001 28.0611 12.6093 27.8321L2.88874 22.1485C2.48922 21.9149 2.2417 21.4735 2.2417 20.9946V9.00537C2.2417 8.52652 2.48922 8.08512 2.88874 7.85152Z" fill="#F47727"/>
<path d="M19.9845 22C19.5378 21.2067 19.0545 20.4233 18.5345 19.65C18.0145 18.8767 17.4611 18.1467 16.8745 17.46V22H15.3345V15.07H16.6045C16.8245 15.29 17.0678 15.56 17.3345 15.88C17.6011 16.2 17.8711 16.5433 18.1445 16.91C18.4245 17.27 18.7011 17.6467 18.9745 18.04C19.2478 18.4267 19.5045 18.8 19.7445 19.16V15.07H21.2945V22H19.9845Z" fill="white"/>
<path d="M13.8318 19.67C13.8318 20.01 13.7918 20.33 13.7118 20.63C13.6385 20.93 13.5051 21.1933 13.3118 21.42C13.1251 21.64 12.8685 21.8167 12.5418 21.95C12.2218 22.0767 11.8151 22.14 11.3218 22.14C10.8685 22.14 10.4785 22.0867 10.1518 21.98C9.82513 21.8667 9.55513 21.7367 9.3418 21.59L9.8618 20.38C10.0551 20.4933 10.2618 20.5933 10.4818 20.68C10.7018 20.7667 10.9418 20.81 11.2018 20.81C11.5818 20.81 11.8551 20.7167 12.0218 20.53C12.1885 20.3433 12.2718 20.03 12.2718 19.59V15.07H13.8318V19.67Z" fill="white"/>
</svg>
