<svg width="27" height="30" viewBox="0 0 27 30" fill="none" xmlns="http://www.w3.org/2000/svg">
<path d="M0.876112 6.84778L12.6222 0.160206C13.0059 -0.0582554 13.4745 -0.0529706 13.8534 0.174091L25.6311 7.23257C26.0094 7.4593 26.2417 7.87327 26.2417 8.32067V21.6793C26.2417 22.1267 26.0094 22.5407 25.6311 22.7674L13.8534 29.8259C13.4745 30.053 13.0059 30.0583 12.6222 29.8398L0.876113 23.1522C0.48441 22.9292 0.241699 22.5076 0.241699 22.0502V7.94977C0.241699 7.49239 0.484409 7.0708 0.876112 6.84778Z" fill="white"/>
<path d="M2.88874 7.85152L12.6093 2.16794C13.001 1.93893 13.4794 1.94447 13.8661 2.18249L18.7425 5.18377L7.74903 24.9903L2.88874 22.1485C2.48922 21.9149 2.2417 21.4735 2.2417 20.9946V9.00537C2.2417 8.52652 2.48922 8.08512 2.88874 7.85152Z" fill="#D328A6"/>
<path d="M23.6189 21.815L13.8661 27.8175C13.4794 28.0555 13.001 28.0611 12.6093 27.8321L7.74902 24.9903L18.7425 5.18378L23.6189 8.18505C24.0048 8.42254 24.2417 8.85595 24.2417 9.32435V20.6757C24.2417 21.1441 24.0048 21.5775 23.6189 21.815Z" fill="#DE3C75"/>
<path d="M21.2517 15.07V16.4H19.1617V22H17.6017V16.4H15.5117V15.07H21.2517Z" fill="white"/>
<path d="M13.1315 22C12.9915 21.7733 12.8248 21.53 12.6315 21.27C12.4448 21.0033 12.2382 20.74 12.0115 20.48C11.7915 20.2133 11.5615 19.96 11.3215 19.72C11.0815 19.4733 10.8415 19.2567 10.6015 19.07V22H9.0415V15.07H10.6015V17.69C11.0082 17.2633 11.4148 16.82 11.8215 16.36C12.2348 15.8933 12.6182 15.4633 12.9715 15.07H14.8215C14.3482 15.63 13.8715 16.17 13.3915 16.69C12.9182 17.21 12.4182 17.7333 11.8915 18.26C12.4448 18.72 12.9782 19.2667 13.4915 19.9C14.0115 20.5333 14.5082 21.2333 14.9815 22H13.1315Z" fill="white"/>
</svg>
