<svg width="27" height="30" viewBox="0 0 27 30" fill="none" xmlns="http://www.w3.org/2000/svg">
<path d="M0.876112 6.84778L12.6222 0.160206C13.0059 -0.0582554 13.4745 -0.0529706 13.8534 0.174091L25.6311 7.23257C26.0094 7.4593 26.2417 7.87327 26.2417 8.32067V21.6793C26.2417 22.1267 26.0094 22.5407 25.6311 22.7674L13.8534 29.8259C13.4745 30.053 13.0059 30.0583 12.6222 29.8398L0.876113 23.1522C0.48441 22.9292 0.241699 22.5076 0.241699 22.0502V7.94977C0.241699 7.49239 0.484409 7.0708 0.876112 6.84778Z" fill="white"/>
<path d="M2.88874 7.85152L12.6093 2.16794C13.001 1.93893 13.4794 1.94447 13.8661 2.18249L23.6189 8.18505C24.0048 8.42253 24.2417 8.85595 24.2417 9.32434V20.6757C24.2417 21.1441 24.0048 21.5775 23.6189 21.815L13.8661 27.8175C13.4794 28.0555 13.001 28.0611 12.6093 27.8321L2.88874 22.1485C2.48922 21.9149 2.2417 21.4735 2.2417 20.9946V9.00537C2.2417 8.52652 2.48922 8.08512 2.88874 7.85152Z" fill="#1D1D98"/>
<path d="M20.1676 21C20.1309 20.88 20.0892 20.7567 20.0426 20.63C19.9992 20.5033 19.9559 20.3767 19.9126 20.25H18.5626C18.5192 20.3767 18.4742 20.5033 18.4276 20.63C18.3842 20.7567 18.3442 20.88 18.3076 21H17.4976C17.6276 20.6267 17.7509 20.2817 17.8676 19.965C17.9842 19.6483 18.0976 19.35 18.2076 19.07C18.3209 18.79 18.4309 18.525 18.5376 18.275C18.6476 18.0217 18.7609 17.775 18.8776 17.535H19.6226C19.7359 17.775 19.8476 18.0217 19.9576 18.275C20.0676 18.525 20.1776 18.79 20.2876 19.07C20.4009 19.35 20.5159 19.6483 20.6326 19.965C20.7492 20.2817 20.8726 20.6267 21.0026 21H20.1676ZM19.2326 18.32C19.2159 18.37 19.1909 18.4383 19.1576 18.525C19.1242 18.6117 19.0859 18.7117 19.0426 18.825C18.9992 18.9383 18.9509 19.0633 18.8976 19.2C18.8476 19.3367 18.7959 19.48 18.7426 19.63H19.7276C19.6742 19.48 19.6226 19.3367 19.5726 19.2C19.5226 19.0633 19.4742 18.9383 19.4276 18.825C19.3842 18.7117 19.3459 18.6117 19.3126 18.525C19.2792 18.4383 19.2526 18.37 19.2326 18.32Z" fill="white"/>
<path d="M15.7654 21.07C15.522 21.07 15.312 21.0367 15.1354 20.97C14.9587 20.9 14.812 20.805 14.6954 20.685C14.582 20.5617 14.497 20.4167 14.4404 20.25C14.387 20.08 14.3604 19.8933 14.3604 19.69V17.535H15.1404V19.625C15.1404 19.765 15.1554 19.885 15.1854 19.985C15.2187 20.0817 15.262 20.1617 15.3154 20.225C15.372 20.285 15.4387 20.3283 15.5154 20.355C15.5954 20.3817 15.682 20.395 15.7754 20.395C15.9654 20.395 16.1187 20.3367 16.2354 20.22C16.3554 20.1033 16.4154 19.905 16.4154 19.625V17.535H17.1954V19.69C17.1954 19.8933 17.167 20.08 17.1104 20.25C17.0537 20.42 16.967 20.5667 16.8504 20.69C16.7337 20.81 16.5854 20.9033 16.4054 20.97C16.2254 21.0367 16.012 21.07 15.7654 21.07Z" fill="white"/>
<path d="M13.9566 20.33V21H11.6416V17.535H12.4216V20.33H13.9566Z" fill="white"/>
</svg>
