<svg width="26" height="30" viewBox="0 0 26 30" fill="none" xmlns="http://www.w3.org/2000/svg">
<path d="M0.634413 6.84778L12.3805 0.160206C12.7642 -0.0582554 13.2328 -0.0529706 13.6117 0.174091L25.3894 7.23257C25.7677 7.4593 26 7.87327 26 8.32067V21.6793C26 22.1267 25.7677 22.5407 25.3894 22.7674L13.6117 29.8259C13.2328 30.053 12.7642 30.0583 12.3805 29.8398L0.634414 23.1522C0.242711 22.9292 0 22.5076 0 22.0502V7.94977C0 7.49239 0.24271 7.0708 0.634413 6.84778Z" fill="white"/>
<path d="M2.64704 7.85152L12.3676 2.16794C12.7593 1.93893 13.2377 1.94447 13.6244 2.18249L23.3772 8.18505C23.7631 8.42253 24 8.85595 24 9.32434V20.6757C24 21.1441 23.7631 21.5775 23.3772 21.815L13.6244 27.8175C13.2377 28.0555 12.7593 28.0611 12.3676 27.8321L2.64704 22.1485C2.24752 21.9149 2 21.4735 2 20.9946V9.00537C2 8.52652 2.24752 8.08512 2.64704 7.85152Z" fill="#BD5C59"/>
<path d="M16.9165 22V15.07H21.5565V16.38H18.4765V17.83H21.2165V19.14H18.4765V22H16.9165Z" fill="white"/>
<path d="M9.7817 15.07C9.9017 15.29 10.0384 15.5633 10.1917 15.89C10.3517 16.21 10.515 16.56 10.6817 16.94C10.855 17.3133 11.025 17.6967 11.1917 18.09C11.3584 18.4833 11.515 18.8533 11.6617 19.2C11.8084 18.8533 11.965 18.4833 12.1317 18.09C12.2984 17.6967 12.465 17.3133 12.6317 16.94C12.805 16.56 12.9684 16.21 13.1217 15.89C13.2817 15.5633 13.4217 15.29 13.5417 15.07H14.9617C15.0284 15.53 15.0884 16.0467 15.1417 16.62C15.2017 17.1867 15.2517 17.78 15.2917 18.4C15.3384 19.0133 15.3784 19.63 15.4117 20.25C15.4517 20.87 15.485 21.4533 15.5117 22H13.9917C13.9717 21.3267 13.945 20.5933 13.9117 19.8C13.8784 19.0067 13.8284 18.2067 13.7617 17.4C13.6417 17.68 13.5084 17.99 13.3617 18.33C13.215 18.67 13.0684 19.01 12.9217 19.35C12.7817 19.69 12.645 20.0167 12.5117 20.33C12.3784 20.6367 12.265 20.9 12.1717 21.12H11.0817C10.9884 20.9 10.875 20.6367 10.7417 20.33C10.6084 20.0167 10.4684 19.69 10.3217 19.35C10.1817 19.01 10.0384 18.67 9.8917 18.33C9.74503 17.99 9.6117 17.68 9.4917 17.4C9.42503 18.2067 9.37503 19.0067 9.3417 19.8C9.30837 20.5933 9.2817 21.3267 9.2617 22H7.7417C7.76837 21.4533 7.79837 20.87 7.8317 20.25C7.8717 19.63 7.9117 19.0133 7.9517 18.4C7.99837 17.78 8.04837 17.1867 8.1017 16.62C8.1617 16.0467 8.22503 15.53 8.2917 15.07H9.7817Z" fill="white"/>
</svg>
