<svg width="26" height="30" viewBox="0 0 26 30" fill="none" xmlns="http://www.w3.org/2000/svg">
<path d="M0.634413 6.84778L12.3805 0.160206C12.7642 -0.0582554 13.2328 -0.0529706 13.6117 0.174091L25.3894 7.23257C25.7677 7.4593 26 7.87327 26 8.32067V21.6793C26 22.1267 25.7677 22.5407 25.3894 22.7674L13.6117 29.8259C13.2328 30.053 12.7642 30.0583 12.3805 29.8398L0.634414 23.1522C0.242711 22.9292 0 22.5076 0 22.0502V7.94977C0 7.49239 0.24271 7.0708 0.634413 6.84778Z" fill="white"/>
<path d="M2.64704 7.85152L12.3676 2.16794C12.7593 1.93893 13.2377 1.94447 13.6244 2.18249L23.3772 8.18505C23.7631 8.42253 24 8.85595 24 9.32434V20.6757C24 21.1441 23.7631 21.5775 23.3772 21.815L13.6244 27.8175C13.2377 28.0555 12.7593 28.0611 12.3676 27.8321L2.64704 22.1485C2.24752 21.9149 2 21.4735 2 20.9946V9.00537C2 8.52652 2.24752 8.08512 2.64704 7.85152Z" fill="#F4B10D"/>
<path d="M20.6945 21C20.5978 20.8067 20.4912 20.6117 20.3745 20.415C20.2612 20.215 20.1295 20.0117 19.9795 19.805C19.9328 19.865 19.8728 19.9483 19.7995 20.055C19.7295 20.1617 19.6578 20.275 19.5845 20.395C19.5145 20.515 19.4478 20.63 19.3845 20.74C19.3212 20.85 19.2745 20.9367 19.2445 21H18.3545C18.5012 20.73 18.6712 20.4467 18.8645 20.15C19.0612 19.8533 19.2795 19.5383 19.5195 19.205L18.4045 17.535H19.3495L20.0245 18.615L20.6845 17.535H21.5745L20.4745 19.215C20.7545 19.5783 20.9895 19.915 21.1795 20.225C21.3695 20.5317 21.5195 20.79 21.6295 21H20.6945Z" fill="white"/>
<path d="M15.9885 20.365C16.0252 20.3683 16.0668 20.3717 16.1135 20.375C16.1635 20.375 16.2218 20.375 16.2885 20.375C16.6785 20.375 16.9668 20.2767 17.1535 20.08C17.3435 19.8833 17.4385 19.6117 17.4385 19.265C17.4385 18.9017 17.3485 18.6267 17.1685 18.44C16.9885 18.2533 16.7035 18.16 16.3135 18.16C16.2602 18.16 16.2052 18.1617 16.1485 18.165C16.0918 18.165 16.0385 18.1683 15.9885 18.175V20.365ZM18.2435 19.265C18.2435 19.565 18.1968 19.8267 18.1035 20.05C18.0102 20.2733 17.8768 20.4583 17.7035 20.605C17.5335 20.7517 17.3252 20.8617 17.0785 20.935C16.8318 21.0083 16.5552 21.045 16.2485 21.045C16.1085 21.045 15.9452 21.0383 15.7585 21.025C15.5718 21.015 15.3885 20.9917 15.2085 20.955V17.58C15.3885 17.5467 15.5752 17.525 15.7685 17.515C15.9652 17.5017 16.1335 17.495 16.2735 17.495C16.5702 17.495 16.8385 17.5283 17.0785 17.595C17.3218 17.6617 17.5302 17.7667 17.7035 17.91C17.8768 18.0533 18.0102 18.2367 18.1035 18.46C18.1968 18.6833 18.2435 18.9517 18.2435 19.265Z" fill="white"/>
<path d="M11.6411 17.535C11.7011 17.645 11.7694 17.7817 11.8461 17.945C11.9261 18.105 12.0078 18.28 12.0911 18.47C12.1778 18.6567 12.2628 18.8483 12.3461 19.045C12.4294 19.2417 12.5078 19.4267 12.5811 19.6C12.6544 19.4267 12.7328 19.2417 12.8161 19.045C12.8994 18.8483 12.9828 18.6567 13.0661 18.47C13.1528 18.28 13.2344 18.105 13.3111 17.945C13.3911 17.7817 13.4611 17.645 13.5211 17.535H14.2311C14.2644 17.765 14.2944 18.0233 14.3211 18.31C14.3511 18.5933 14.3761 18.89 14.3961 19.2C14.4194 19.5067 14.4394 19.815 14.4561 20.125C14.4761 20.435 14.4928 20.7267 14.5061 21H13.7461C13.7361 20.6633 13.7228 20.2967 13.7061 19.9C13.6894 19.5033 13.6644 19.1033 13.6311 18.7C13.5711 18.84 13.5044 18.995 13.4311 19.165C13.3578 19.335 13.2844 19.505 13.2111 19.675C13.1411 19.845 13.0728 20.0083 13.0061 20.165C12.9394 20.3183 12.8828 20.45 12.8361 20.56H12.2911C12.2444 20.45 12.1878 20.3183 12.1211 20.165C12.0544 20.0083 11.9844 19.845 11.9111 19.675C11.8411 19.505 11.7694 19.335 11.6961 19.165C11.6228 18.995 11.5561 18.84 11.4961 18.7C11.4628 19.1033 11.4378 19.5033 11.4211 19.9C11.4044 20.2967 11.3911 20.6633 11.3811 21H10.6211C10.6344 20.7267 10.6494 20.435 10.6661 20.125C10.6861 19.815 10.7061 19.5067 10.7261 19.2C10.7494 18.89 10.7744 18.5933 10.8011 18.31C10.8311 18.0233 10.8628 17.765 10.8961 17.535H11.6411Z" fill="white"/>
</svg>
