<svg width="27" height="30" viewBox="0 0 27 30" fill="none" xmlns="http://www.w3.org/2000/svg">
<path d="M0.876112 6.84778L12.6222 0.160206C13.0059 -0.0582554 13.4745 -0.0529706 13.8534 0.174091L25.6311 7.23257C26.0094 7.4593 26.2417 7.87327 26.2417 8.32067V21.6793C26.2417 22.1267 26.0094 22.5407 25.6311 22.7674L13.8534 29.8259C13.4745 30.053 13.0059 30.0583 12.6222 29.8398L0.876113 23.1522C0.48441 22.9292 0.241699 22.5076 0.241699 22.0502V7.94977C0.241699 7.49239 0.484409 7.0708 0.876112 6.84778Z" fill="white"/>
<path d="M2.88874 7.85152L12.6093 2.16794C13.001 1.93893 13.4794 1.94447 13.8661 2.18249L23.6189 8.18505C24.0048 8.42253 24.2417 8.85595 24.2417 9.32434V20.6757C24.2417 21.1441 24.0048 21.5775 23.6189 21.815L13.8661 27.8175C13.4794 28.0555 13.001 28.0611 12.6093 27.8321L2.88874 22.1485C2.48922 21.9149 2.2417 21.4735 2.2417 20.9946V9.00537C2.2417 8.52652 2.48922 8.08512 2.88874 7.85152Z" fill="#3EC6EB"/>
<path d="M19.4468 22.14C18.3201 22.14 17.4601 21.8267 16.8668 21.2C16.2801 20.5733 15.9868 19.6833 15.9868 18.53C15.9868 17.9567 16.0768 17.4467 16.2568 17C16.4368 16.5467 16.6835 16.1667 16.9968 15.86C17.3102 15.5467 17.6835 15.31 18.1168 15.15C18.5501 14.99 19.0201 14.91 19.5268 14.91C19.8201 14.91 20.0868 14.9333 20.3268 14.98C20.5668 15.02 20.7768 15.07 20.9568 15.13C21.1368 15.1833 21.2868 15.24 21.4068 15.3C21.5268 15.36 21.6135 15.4067 21.6668 15.44L21.2168 16.7C21.0035 16.5867 20.7535 16.49 20.4668 16.41C20.1868 16.33 19.8668 16.29 19.5068 16.29C19.2668 16.29 19.0302 16.33 18.7968 16.41C18.5702 16.49 18.3668 16.62 18.1868 16.8C18.0135 16.9733 17.8735 17.2 17.7668 17.48C17.6601 17.76 17.6068 18.1 17.6068 18.5C17.6068 18.82 17.6401 19.12 17.7068 19.4C17.7801 19.6733 17.8935 19.91 18.0468 20.11C18.2068 20.31 18.4135 20.47 18.6668 20.59C18.9202 20.7033 19.2268 20.76 19.5868 20.76C19.8135 20.76 20.0168 20.7467 20.1968 20.72C20.3768 20.6933 20.5368 20.6633 20.6768 20.63C20.8168 20.59 20.9401 20.5467 21.0468 20.5C21.1535 20.4533 21.2502 20.41 21.3368 20.37L21.7668 21.62C21.5468 21.7533 21.2368 21.8733 20.8368 21.98C20.4368 22.0867 19.9735 22.14 19.4468 22.14Z" fill="white"/>
<path d="M9.1523 15.07C9.2723 15.29 9.40897 15.5633 9.5623 15.89C9.72231 16.21 9.88564 16.56 10.0523 16.94C10.2256 17.3133 10.3956 17.6967 10.5623 18.09C10.729 18.4833 10.8856 18.8533 11.0323 19.2C11.179 18.8533 11.3356 18.4833 11.5023 18.09C11.669 17.6967 11.8356 17.3133 12.0023 16.94C12.1756 16.56 12.339 16.21 12.4923 15.89C12.6523 15.5633 12.7923 15.29 12.9123 15.07H14.3323C14.399 15.53 14.459 16.0467 14.5123 16.62C14.5723 17.1867 14.6223 17.78 14.6623 18.4C14.709 19.0133 14.749 19.63 14.7823 20.25C14.8223 20.87 14.8556 21.4533 14.8823 22H13.3623C13.3423 21.3267 13.3156 20.5933 13.2823 19.8C13.249 19.0067 13.199 18.2067 13.1323 17.4C13.0123 17.68 12.879 17.99 12.7323 18.33C12.5856 18.67 12.439 19.01 12.2923 19.35C12.1523 19.69 12.0156 20.0167 11.8823 20.33C11.749 20.6367 11.6356 20.9 11.5423 21.12H10.4523C10.359 20.9 10.2456 20.6367 10.1123 20.33C9.97897 20.0167 9.83897 19.69 9.69231 19.35C9.55231 19.01 9.40897 18.67 9.2623 18.33C9.11564 17.99 8.9823 17.68 8.8623 17.4C8.79564 18.2067 8.74564 19.0067 8.7123 19.8C8.67897 20.5933 8.6523 21.3267 8.6323 22H7.1123C7.13897 21.4533 7.16897 20.87 7.2023 20.25C7.2423 19.63 7.2823 19.0133 7.3223 18.4C7.36897 17.78 7.41897 17.1867 7.4723 16.62C7.5323 16.0467 7.59564 15.53 7.6623 15.07H9.1523Z" fill="white"/>
</svg>
