<svg width="27" height="30" viewBox="0 0 27 30" fill="none" xmlns="http://www.w3.org/2000/svg">
<path d="M0.876112 6.84778L12.6222 0.160206C13.0059 -0.0582554 13.4745 -0.0529706 13.8534 0.174091L25.6311 7.23257C26.0094 7.4593 26.2417 7.87327 26.2417 8.32067V21.6793C26.2417 22.1267 26.0094 22.5407 25.6311 22.7674L13.8534 29.8259C13.4745 30.053 13.0059 30.0583 12.6222 29.8398L0.876113 23.1522C0.48441 22.9292 0.241699 22.5076 0.241699 22.0502V7.94977C0.241699 7.49239 0.484409 7.0708 0.876112 6.84778Z" fill="white"/>
<path d="M2.88874 7.85152L12.6093 2.16794C13.001 1.93893 13.4794 1.94447 13.8661 2.18249L23.6189 8.18505C24.0048 8.42253 24.2417 8.85595 24.2417 9.32434V20.6757C24.2417 21.1441 24.0048 21.5775 23.6189 21.815L13.8661 27.8175C13.4794 28.0555 13.001 28.0611 12.6093 27.8321L2.88874 22.1485C2.48922 21.9149 2.2417 21.4735 2.2417 20.9946V9.00537C2.2417 8.52652 2.48922 8.08512 2.88874 7.85152Z" fill="#C58F5D"/>
<path d="M20.9746 21.07C20.4113 21.07 19.9813 20.9133 19.6846 20.6C19.3913 20.2867 19.2446 19.8417 19.2446 19.265C19.2446 18.9783 19.2896 18.7233 19.3796 18.5C19.4696 18.2733 19.593 18.0833 19.7496 17.93C19.9063 17.7733 20.093 17.655 20.3096 17.575C20.5263 17.495 20.7613 17.455 21.0146 17.455C21.1613 17.455 21.2946 17.4667 21.4146 17.49C21.5346 17.51 21.6396 17.535 21.7296 17.565C21.8196 17.5917 21.8946 17.62 21.9546 17.65C22.0146 17.68 22.058 17.7033 22.0846 17.72L21.8596 18.35C21.753 18.2933 21.628 18.245 21.4846 18.205C21.3446 18.165 21.1846 18.145 21.0046 18.145C20.8846 18.145 20.7663 18.165 20.6496 18.205C20.5363 18.245 20.4346 18.31 20.3446 18.4C20.258 18.4867 20.188 18.6 20.1346 18.74C20.0813 18.88 20.0546 19.05 20.0546 19.25C20.0546 19.41 20.0713 19.56 20.1046 19.7C20.1413 19.8367 20.198 19.955 20.2746 20.055C20.3546 20.155 20.458 20.235 20.5846 20.295C20.7113 20.3517 20.8646 20.38 21.0446 20.38C21.158 20.38 21.2596 20.3733 21.3496 20.36C21.4396 20.3467 21.5196 20.3317 21.5896 20.315C21.6596 20.295 21.7213 20.2733 21.7746 20.25C21.828 20.2267 21.8763 20.205 21.9196 20.185L22.1346 20.81C22.0246 20.8767 21.8696 20.9367 21.6696 20.99C21.4696 21.0433 21.238 21.07 20.9746 21.07Z" fill="white"/>
<path d="M17.3228 19.17H18.7728V19.845H17.3228V19.17Z" fill="white"/>
<path d="M16.8461 19.835C16.8461 20.005 16.8261 20.165 16.7861 20.315C16.7494 20.465 16.6827 20.5966 16.5861 20.71C16.4927 20.82 16.3644 20.9083 16.2011 20.975C16.0411 21.0383 15.8377 21.07 15.5911 21.07C15.3644 21.07 15.1694 21.0433 15.0061 20.99C14.8427 20.9333 14.7077 20.8683 14.6011 20.795L14.8611 20.19C14.9577 20.2466 15.0611 20.2966 15.1711 20.34C15.2811 20.3833 15.4011 20.405 15.5311 20.405C15.7211 20.405 15.8577 20.3583 15.9411 20.265C16.0244 20.1716 16.0661 20.015 16.0661 19.795V17.535H16.8461V19.835Z" fill="white"/>
<path d="M12.7468 21.045C12.5568 21.045 12.3668 21.0383 12.1768 21.025C11.9901 21.015 11.7951 20.9883 11.5918 20.945V17.585C11.7518 17.555 11.9268 17.5333 12.1168 17.52C12.3068 17.5033 12.4835 17.495 12.6468 17.495C12.8668 17.495 13.0685 17.5117 13.2518 17.545C13.4385 17.575 13.5985 17.6283 13.7318 17.705C13.8651 17.7817 13.9685 17.8833 14.0418 18.01C14.1185 18.1333 14.1568 18.2867 14.1568 18.47C14.1568 18.7467 14.0235 18.965 13.7568 19.125C13.9768 19.2083 14.1268 19.3217 14.2068 19.465C14.2868 19.6083 14.3268 19.77 14.3268 19.95C14.3268 20.3133 14.1935 20.5867 13.9268 20.77C13.6635 20.9533 13.2701 21.045 12.7468 21.045ZM12.3518 19.49V20.385C12.4085 20.3917 12.4701 20.3967 12.5368 20.4C12.6035 20.4033 12.6768 20.405 12.7568 20.405C12.9901 20.405 13.1785 20.3717 13.3218 20.305C13.4651 20.2383 13.5368 20.115 13.5368 19.935C13.5368 19.775 13.4768 19.6617 13.3568 19.595C13.2368 19.525 13.0651 19.49 12.8418 19.49H12.3518ZM12.3518 18.895H12.7318C12.9718 18.895 13.1435 18.865 13.2468 18.805C13.3501 18.7417 13.4018 18.6417 13.4018 18.505C13.4018 18.365 13.3485 18.2667 13.2418 18.21C13.1351 18.1533 12.9785 18.125 12.7718 18.125C12.7051 18.125 12.6335 18.1267 12.5568 18.13C12.4801 18.13 12.4118 18.1333 12.3518 18.14V18.895Z" fill="white"/>
<path d="M8.2967 19.265C8.2967 19.435 8.3167 19.5883 8.3567 19.725C8.40003 19.8617 8.46003 19.98 8.5367 20.08C8.6167 20.1767 8.71337 20.2517 8.8267 20.305C8.94003 20.3583 9.07003 20.385 9.2167 20.385C9.36003 20.385 9.48837 20.3583 9.6017 20.305C9.71837 20.2517 9.81503 20.1767 9.8917 20.08C9.9717 19.98 10.0317 19.8617 10.0717 19.725C10.115 19.5883 10.1367 19.435 10.1367 19.265C10.1367 19.095 10.115 18.9417 10.0717 18.805C10.0317 18.665 9.9717 18.5467 9.8917 18.45C9.81503 18.35 9.71837 18.2733 9.6017 18.22C9.48837 18.1667 9.36003 18.14 9.2167 18.14C9.07003 18.14 8.94003 18.1683 8.8267 18.225C8.71337 18.2783 8.6167 18.355 8.5367 18.455C8.46003 18.5517 8.40003 18.67 8.3567 18.81C8.3167 18.9467 8.2967 19.0983 8.2967 19.265ZM10.9417 19.265C10.9417 19.5617 10.8967 19.8233 10.8067 20.05C10.72 20.2733 10.6 20.4617 10.4467 20.615C10.2934 20.765 10.11 20.8783 9.8967 20.955C9.6867 21.0317 9.46003 21.07 9.2167 21.07C8.98003 21.07 8.7567 21.0317 8.5467 20.955C8.3367 20.8783 8.15337 20.765 7.9967 20.615C7.84003 20.4617 7.7167 20.2733 7.6267 20.05C7.5367 19.8233 7.4917 19.5617 7.4917 19.265C7.4917 18.9683 7.53837 18.7083 7.6317 18.485C7.72503 18.2583 7.85003 18.0683 8.0067 17.915C8.1667 17.7617 8.35003 17.6467 8.5567 17.57C8.7667 17.4933 8.9867 17.455 9.2167 17.455C9.45337 17.455 9.6767 17.4933 9.8867 17.57C10.0967 17.6467 10.28 17.7617 10.4367 17.915C10.5934 18.0683 10.7167 18.2583 10.8067 18.485C10.8967 18.7083 10.9417 18.9683 10.9417 19.265Z" fill="white"/>
</svg>
