<svg width="26" height="30" viewBox="0 0 26 30" fill="none" xmlns="http://www.w3.org/2000/svg">
<path d="M0.634413 6.84778L12.3805 0.160206C12.7642 -0.0582554 13.2328 -0.0529706 13.6117 0.174091L25.3894 7.23257C25.7677 7.4593 26 7.87327 26 8.32067V21.6793C26 22.1267 25.7677 22.5407 25.3894 22.7674L13.6117 29.8259C13.2328 30.053 12.7642 30.0583 12.3805 29.8398L0.634414 23.1522C0.242711 22.9292 0 22.5076 0 22.0502V7.94977C0 7.49239 0.24271 7.0708 0.634413 6.84778Z" fill="white"/>
<path d="M2.64704 7.85152L12.3676 2.16794C12.7593 1.93893 13.2377 1.94447 13.6244 2.18249L23.3772 8.18505C23.7631 8.42253 24 8.85595 24 9.32434V20.6757C24 21.1441 23.7631 21.5775 23.3772 21.815L13.6244 27.8175C13.2377 28.0555 12.7593 28.0611 12.3676 27.8321L2.64704 22.1485C2.24752 21.9149 2 21.4735 2 20.9946V9.00537C2 8.52652 2.24752 8.08512 2.64704 7.85152Z" fill="#004065"/>
<path d="M21.5987 20.33V21H19.2837V17.535H20.0637V20.33H21.5987Z" fill="white"/>
<path d="M16.9637 17.495C17.4837 17.495 17.8821 17.5883 18.1587 17.775C18.4354 17.9583 18.5737 18.245 18.5737 18.635C18.5737 18.8783 18.5171 19.0767 18.4037 19.23C18.2937 19.38 18.1337 19.4983 17.9237 19.585C17.9937 19.6717 18.0671 19.7717 18.1437 19.885C18.2204 19.995 18.2954 20.1117 18.3687 20.235C18.4454 20.355 18.5187 20.4817 18.5887 20.615C18.6587 20.745 18.7237 20.8733 18.7837 21H17.9087C17.8454 20.8867 17.7804 20.7717 17.7137 20.655C17.6504 20.5383 17.5837 20.425 17.5137 20.315C17.4471 20.205 17.3804 20.1017 17.3137 20.005C17.2471 19.905 17.1804 19.815 17.1137 19.735H16.7287V21H15.9487V17.585C16.1187 17.5517 16.2937 17.5283 16.4737 17.515C16.6571 17.5017 16.8204 17.495 16.9637 17.495ZM17.0087 18.16C16.9521 18.16 16.9004 18.1617 16.8537 18.165C16.8104 18.1683 16.7687 18.1717 16.7287 18.175V19.115H16.9487C17.2421 19.115 17.4521 19.0783 17.5787 19.005C17.7054 18.9317 17.7687 18.8067 17.7687 18.63C17.7687 18.46 17.7037 18.34 17.5737 18.27C17.4471 18.1967 17.2587 18.16 17.0087 18.16Z" fill="white"/>
<path d="M12.9165 21V17.535H15.2565V18.19H13.6965V18.87H15.0815V19.51H13.6965V20.345H15.3715V21H12.9165Z" fill="white"/>
<path d="M10.7387 17.495C11.2554 17.495 11.6521 17.5867 11.9287 17.77C12.2054 17.95 12.3437 18.2467 12.3437 18.66C12.3437 19.0767 12.2037 19.3783 11.9237 19.565C11.6437 19.7483 11.2437 19.84 10.7237 19.84H10.4787V21H9.69873V17.585C9.86873 17.5517 10.0487 17.5283 10.2387 17.515C10.4287 17.5017 10.5954 17.495 10.7387 17.495ZM10.7887 18.16C10.7321 18.16 10.6754 18.1617 10.6187 18.165C10.5654 18.1683 10.5187 18.1717 10.4787 18.175V19.175H10.7237C10.9937 19.175 11.1971 19.1383 11.3337 19.065C11.4704 18.9917 11.5387 18.855 11.5387 18.655C11.5387 18.5583 11.5204 18.4783 11.4837 18.415C11.4504 18.3517 11.4004 18.3017 11.3337 18.265C11.2704 18.225 11.1921 18.1983 11.0987 18.185C11.0054 18.1683 10.9021 18.16 10.7887 18.16Z" fill="white"/>
</svg>
