<svg width="27" height="30" viewBox="0 0 27 30" fill="none" xmlns="http://www.w3.org/2000/svg">
<path d="M0.876112 6.84778L12.6222 0.160206C13.0059 -0.0582554 13.4745 -0.0529706 13.8534 0.174091L25.6311 7.23257C26.0094 7.4593 26.2417 7.87327 26.2417 8.32067V21.6793C26.2417 22.1267 26.0094 22.5407 25.6311 22.7674L13.8534 29.8259C13.4745 30.053 13.0059 30.0583 12.6222 29.8398L0.876113 23.1522C0.48441 22.9292 0.241699 22.5076 0.241699 22.0502V7.94977C0.241699 7.49239 0.484409 7.0708 0.876112 6.84778Z" fill="white"/>
<path d="M2.88874 7.85152L12.6093 2.16794C13.001 1.93893 13.4794 1.94447 13.8661 2.18249L23.6189 8.18505C24.0048 8.42253 24.2417 8.85595 24.2417 9.32434V20.6757C24.2417 21.1441 24.0048 21.5775 23.6189 21.815L13.8661 27.8175C13.4794 28.0555 13.001 28.0611 12.6093 27.8321L2.88874 22.1485C2.48922 21.9149 2.2417 21.4735 2.2417 20.9946V9.00537C2.2417 8.52652 2.48922 8.08512 2.88874 7.85152Z" fill="#8293DD"/>
<path d="M19.5713 17.495C20.0879 17.495 20.4846 17.5867 20.7613 17.77C21.0379 17.95 21.1762 18.2467 21.1762 18.66C21.1762 19.0767 21.0362 19.3783 20.7562 19.565C20.4762 19.7483 20.0763 19.84 19.5563 19.84H19.3113V21H18.5312V17.585C18.7013 17.5517 18.8812 17.5283 19.0712 17.515C19.2612 17.5017 19.4279 17.495 19.5713 17.495ZM19.6212 18.16C19.5646 18.16 19.5079 18.1617 19.4512 18.165C19.3979 18.1683 19.3513 18.1717 19.3113 18.175V19.175H19.5563C19.8263 19.175 20.0296 19.1383 20.1662 19.065C20.3029 18.9917 20.3712 18.855 20.3712 18.655C20.3712 18.5583 20.3529 18.4783 20.3163 18.415C20.2829 18.3517 20.2329 18.3017 20.1662 18.265C20.1029 18.225 20.0246 18.1983 19.9313 18.185C19.8379 18.1683 19.7346 18.16 19.6212 18.16Z" fill="white"/>
<path d="M16.9494 17.535H17.7294V21H16.9494V19.53H15.6394V21H14.8594V17.535H15.6394V18.86H16.9494V17.535Z" fill="white"/>
<path d="M12.6816 17.495C13.1983 17.495 13.5949 17.5867 13.8716 17.77C14.1483 17.95 14.2866 18.2467 14.2866 18.66C14.2866 19.0767 14.1466 19.3783 13.8666 19.565C13.5866 19.7483 13.1866 19.84 12.6666 19.84H12.4216V21H11.6416V17.585C11.8116 17.5517 11.9916 17.5283 12.1816 17.515C12.3716 17.5017 12.5383 17.495 12.6816 17.495ZM12.7316 18.16C12.6749 18.16 12.6183 18.1617 12.5616 18.165C12.5083 18.1683 12.4616 18.1717 12.4216 18.175V19.175H12.6666C12.9366 19.175 13.1399 19.1383 13.2766 19.065C13.4133 18.9917 13.4816 18.855 13.4816 18.655C13.4816 18.5583 13.4633 18.4783 13.4266 18.415C13.3933 18.3517 13.3433 18.3017 13.2766 18.265C13.2133 18.225 13.1349 18.1983 13.0416 18.185C12.9483 18.1683 12.8449 18.16 12.7316 18.16Z" fill="white"/>
</svg>
