<svg width="27" height="30" viewBox="0 0 27 30" fill="none" xmlns="http://www.w3.org/2000/svg">
<path d="M0.876112 6.84778L12.6222 0.160206C13.0059 -0.0582554 13.4745 -0.0529706 13.8534 0.174091L25.6311 7.23257C26.0094 7.4593 26.2417 7.87327 26.2417 8.32067V21.6793C26.2417 22.1267 26.0094 22.5407 25.6311 22.7674L13.8534 29.8259C13.4745 30.053 13.0059 30.0583 12.6222 29.8398L0.876113 23.1522C0.48441 22.9292 0.241699 22.5076 0.241699 22.0502V7.94977C0.241699 7.49239 0.484409 7.0708 0.876112 6.84778Z" fill="white"/>
<path d="M2.88874 7.85152L12.6093 2.16794C13.001 1.93893 13.4794 1.94447 13.8661 2.18249L23.6189 8.18505C24.0048 8.42253 24.2417 8.85595 24.2417 9.32434V20.6757C24.2417 21.1441 24.0048 21.5775 23.6189 21.815L13.8661 27.8175C13.4794 28.0555 13.001 28.0611 12.6093 27.8321L2.88874 22.1485C2.48922 21.9149 2.2417 21.4735 2.2417 20.9946V9.00537C2.2417 8.52652 2.48922 8.08512 2.88874 7.85152Z" fill="#1A98E3"/>
<path d="M18.3669 20.81C18.5869 20.81 18.7669 20.7933 18.9069 20.76C19.0535 20.72 19.1702 20.67 19.2569 20.61C19.3435 20.5433 19.4035 20.4667 19.4369 20.38C19.4702 20.2933 19.4869 20.1967 19.4869 20.09C19.4869 19.8633 19.3802 19.6767 19.1669 19.53C18.9535 19.3767 18.5869 19.2133 18.0669 19.04C17.8402 18.96 17.6135 18.87 17.3869 18.77C17.1602 18.6633 16.9569 18.5333 16.7769 18.38C16.5969 18.22 16.4502 18.03 16.3369 17.81C16.2235 17.5833 16.1669 17.31 16.1669 16.99C16.1669 16.67 16.2269 16.3833 16.3469 16.13C16.4669 15.87 16.6369 15.65 16.8569 15.47C17.0769 15.29 17.3435 15.1533 17.6569 15.06C17.9702 14.96 18.3235 14.91 18.7169 14.91C19.1835 14.91 19.5869 14.96 19.9269 15.06C20.2669 15.16 20.5469 15.27 20.7669 15.39L20.3169 16.62C20.1235 16.52 19.9069 16.4333 19.6669 16.36C19.4335 16.28 19.1502 16.24 18.8169 16.24C18.4435 16.24 18.1735 16.2933 18.0069 16.4C17.8469 16.5 17.7669 16.6567 17.7669 16.87C17.7669 16.9967 17.7969 17.1033 17.8569 17.19C17.9169 17.2767 18.0002 17.3567 18.1069 17.43C18.2202 17.4967 18.3469 17.56 18.4869 17.62C18.6335 17.6733 18.7935 17.73 18.9669 17.79C19.3269 17.9233 19.6402 18.0567 19.9069 18.19C20.1735 18.3167 20.3935 18.4667 20.5669 18.64C20.7469 18.8133 20.8802 19.0167 20.9669 19.25C21.0535 19.4833 21.0969 19.7667 21.0969 20.1C21.0969 20.7467 20.8702 21.25 20.4169 21.61C19.9635 21.9633 19.2802 22.14 18.3669 22.14C18.0602 22.14 17.7835 22.12 17.5369 22.08C17.2902 22.0467 17.0702 22.0033 16.8769 21.95C16.6902 21.8967 16.5269 21.84 16.3869 21.78C16.2535 21.72 16.1402 21.6633 16.0469 21.61L16.4869 20.37C16.6935 20.4833 16.9469 20.5867 17.2469 20.68C17.5535 20.7667 17.9269 20.81 18.3669 20.81Z" fill="white"/>
<path d="M12.1215 14.99C13.1548 14.99 13.9482 15.1733 14.5015 15.54C15.0548 15.9 15.3315 16.4933 15.3315 17.32C15.3315 18.1533 15.0515 18.7567 14.4915 19.13C13.9315 19.4967 13.1315 19.68 12.0915 19.68H11.6015V22H10.0415V15.17C10.3815 15.1033 10.7415 15.0567 11.1215 15.03C11.5015 15.0033 11.8348 14.99 12.1215 14.99ZM12.2215 16.32C12.1082 16.32 11.9948 16.3233 11.8815 16.33C11.7748 16.3367 11.6815 16.3433 11.6015 16.35V18.35H12.0915C12.6315 18.35 13.0382 18.2767 13.3115 18.13C13.5848 17.9833 13.7215 17.71 13.7215 17.31C13.7215 17.1167 13.6848 16.9567 13.6115 16.83C13.5448 16.7033 13.4448 16.6033 13.3115 16.53C13.1848 16.45 13.0282 16.3967 12.8415 16.37C12.6548 16.3367 12.4482 16.32 12.2215 16.32Z" fill="white"/>
</svg>
