<svg width="27" height="30" viewBox="0 0 27 30" fill="none" xmlns="http://www.w3.org/2000/svg">
<path d="M0.876112 6.84778L12.6222 0.160206C13.0059 -0.0582554 13.4745 -0.0529706 13.8534 0.174091L25.6311 7.23257C26.0094 7.4593 26.2417 7.87327 26.2417 8.32067V21.6793C26.2417 22.1267 26.0094 22.5407 25.6311 22.7674L13.8534 29.8259C13.4745 30.053 13.0059 30.0583 12.6222 29.8398L0.876113 23.1522C0.48441 22.9292 0.241699 22.5076 0.241699 22.0502V7.94977C0.241699 7.49239 0.484409 7.0708 0.876112 6.84778Z" fill="white"/>
<path d="M2.88874 7.85152L12.6093 2.16794C12.8058 2.05306 13.0241 1.9972 13.2417 2.00011V27.9999C13.0241 28.0028 12.8058 27.9469 12.6093 27.8321L2.88874 22.1485C2.48922 21.9149 2.2417 21.4735 2.2417 20.9946V9.00537C2.2417 8.52652 2.48922 8.08512 2.88874 7.85152Z" fill="#6FB1E7"/>
<path d="M23.6189 21.815L13.8661 27.8175C13.6734 27.9361 13.4579 27.997 13.2417 27.9999V2C13.4579 2.00288 13.6734 2.06387 13.8661 2.18249L23.6189 8.18505C24.0048 8.42253 24.2417 8.85595 24.2417 9.32434V20.6757C24.2417 21.1441 24.0048 21.5775 23.6189 21.815Z" fill="#FDD04C"/>
<path d="M18.9194 17.92C19.1994 17.4467 19.4661 16.9733 19.7194 16.5C19.9727 16.0267 20.2061 15.55 20.4194 15.07H22.1394C21.7594 15.8167 21.3661 16.54 20.9594 17.24C20.5527 17.94 20.1227 18.6433 19.6694 19.35V22H18.1094V19.37C17.6561 18.6633 17.2227 17.9567 16.8094 17.25C16.4027 16.5433 16.0094 15.8167 15.6294 15.07H17.4394C17.6527 15.55 17.8827 16.0267 18.1294 16.5C18.3761 16.9733 18.6394 17.4467 18.9194 17.92Z" fill="white"/>
<path d="M12.1215 14.99C13.1548 14.99 13.9482 15.1733 14.5015 15.54C15.0548 15.9 15.3315 16.4933 15.3315 17.32C15.3315 18.1533 15.0515 18.7567 14.4915 19.13C13.9315 19.4967 13.1315 19.68 12.0915 19.68H11.6015V22H10.0415V15.17C10.3815 15.1033 10.7415 15.0567 11.1215 15.03C11.5015 15.0033 11.8348 14.99 12.1215 14.99ZM12.2215 16.32C12.1082 16.32 11.9948 16.3233 11.8815 16.33C11.7748 16.3367 11.6815 16.3433 11.6015 16.35V18.35H12.0915C12.6315 18.35 13.0382 18.2767 13.3115 18.13C13.5848 17.9833 13.7215 17.71 13.7215 17.31C13.7215 17.1167 13.6848 16.9567 13.6115 16.83C13.5448 16.7033 13.4448 16.6033 13.3115 16.53C13.1848 16.45 13.0282 16.3967 12.8415 16.37C12.6548 16.3367 12.4482 16.32 12.2215 16.32Z" fill="white"/>
</svg>
