<svg width="26" height="30" viewBox="0 0 26 30" fill="none" xmlns="http://www.w3.org/2000/svg">
<path d="M0.634413 6.84778L12.3805 0.160206C12.7642 -0.0582554 13.2328 -0.0529706 13.6117 0.174091L25.3894 7.23257C25.7677 7.4593 26 7.87327 26 8.32067V21.6793C26 22.1267 25.7677 22.5407 25.3894 22.7674L13.6117 29.8259C13.2328 30.053 12.7642 30.0583 12.3805 29.8398L0.634414 23.1522C0.242711 22.9292 0 22.5076 0 22.0502V7.94977C0 7.49239 0.24271 7.0708 0.634413 6.84778Z" fill="white"/>
<path d="M2.64704 7.85152L12.3676 2.16794C12.7593 1.93893 13.2377 1.94447 13.6244 2.18249L23.3772 8.18505C23.7631 8.42253 24 8.85595 24 9.32434V20.6757C24 21.1441 23.7631 21.5775 23.3772 21.815L13.6244 27.8175C13.2377 28.0555 12.7593 28.0611 12.3676 27.8321L2.64704 22.1485C2.24752 21.9149 2 21.4735 2 20.9946V9.00537C2 8.52652 2.24752 8.08512 2.64704 7.85152Z" fill="#4577B1"/>
<path d="M15.9948 14.99C17.0348 14.99 17.8315 15.1767 18.3848 15.55C18.9382 15.9167 19.2148 16.49 19.2148 17.27C19.2148 17.7567 19.1015 18.1533 18.8748 18.46C18.6548 18.76 18.3348 18.9967 17.9148 19.17C18.0548 19.3433 18.2015 19.5433 18.3548 19.77C18.5082 19.99 18.6582 20.2233 18.8048 20.47C18.9582 20.71 19.1048 20.9633 19.2448 21.23C19.3848 21.49 19.5148 21.7467 19.6348 22H17.8848C17.7582 21.7733 17.6282 21.5433 17.4948 21.31C17.3682 21.0767 17.2348 20.85 17.0948 20.63C16.9615 20.41 16.8282 20.2033 16.6948 20.01C16.5615 19.81 16.4282 19.63 16.2948 19.47H15.5248V22H13.9648V15.17C14.3048 15.1033 14.6548 15.0567 15.0148 15.03C15.3815 15.0033 15.7082 14.99 15.9948 14.99ZM16.0848 16.32C15.9715 16.32 15.8682 16.3233 15.7748 16.33C15.6882 16.3367 15.6048 16.3433 15.5248 16.35V18.23H15.9648C16.5515 18.23 16.9715 18.1567 17.2248 18.01C17.4782 17.8633 17.6048 17.6133 17.6048 17.26C17.6048 16.92 17.4748 16.68 17.2148 16.54C16.9615 16.3933 16.5848 16.32 16.0848 16.32Z" fill="white"/>
</svg>
