<svg width="27" height="30" viewBox="0 0 27 30" fill="none" xmlns="http://www.w3.org/2000/svg">
<path d="M0.876112 6.84778L12.6222 0.160206C13.0059 -0.0582554 13.4745 -0.0529706 13.8534 0.174091L25.6311 7.23257C26.0094 7.4593 26.2417 7.87327 26.2417 8.32067V21.6793C26.2417 22.1267 26.0094 22.5407 25.6311 22.7674L13.8534 29.8259C13.4745 30.053 13.0059 30.0583 12.6222 29.8398L0.876113 23.1522C0.48441 22.9292 0.241699 22.5076 0.241699 22.0502V7.94977C0.241699 7.49239 0.484409 7.0708 0.876112 6.84778Z" fill="white"/>
<path d="M2.88874 7.85152L12.6093 2.16794C13.001 1.93893 13.4794 1.94447 13.8661 2.18249L23.6189 8.18505C24.0048 8.42253 24.2417 8.85595 24.2417 9.32434V20.6757C24.2417 21.1441 24.0048 21.5775 23.6189 21.815L13.8661 27.8175C13.4794 28.0555 13.001 28.0611 12.6093 27.8321L2.88874 22.1485C2.48922 21.9149 2.2417 21.4735 2.2417 20.9946V9.00537C2.2417 8.52652 2.48922 8.08512 2.88874 7.85152Z" fill="#FF5A5A"/>
<path d="M19.9311 18.96C20.0711 18.7233 20.2045 18.4867 20.3311 18.25C20.4578 18.0133 20.5745 17.775 20.6811 17.535H21.5411C21.3511 17.9083 21.1545 18.27 20.9511 18.62C20.7478 18.97 20.5328 19.3217 20.3061 19.675V21H19.5261V19.685C19.2995 19.3317 19.0828 18.9783 18.8761 18.625C18.6728 18.2717 18.4761 17.9083 18.2861 17.535H19.1911C19.2978 17.775 19.4128 18.0133 19.5361 18.25C19.6595 18.4867 19.7911 18.7233 19.9311 18.96Z" fill="white"/>
<path d="M16.6277 21.045C16.4377 21.045 16.2477 21.0383 16.0577 21.025C15.871 21.015 15.676 20.9883 15.4727 20.945V17.585C15.6327 17.555 15.8077 17.5333 15.9977 17.52C16.1877 17.5033 16.3643 17.495 16.5277 17.495C16.7477 17.495 16.9493 17.5117 17.1327 17.545C17.3193 17.575 17.4793 17.6283 17.6127 17.705C17.746 17.7817 17.8493 17.8833 17.9227 18.01C17.9993 18.1333 18.0377 18.2867 18.0377 18.47C18.0377 18.7467 17.9043 18.965 17.6377 19.125C17.8577 19.2083 18.0077 19.3217 18.0877 19.465C18.1677 19.6083 18.2077 19.77 18.2077 19.95C18.2077 20.3133 18.0743 20.5867 17.8077 20.77C17.5443 20.9533 17.151 21.045 16.6277 21.045ZM16.2327 19.49V20.385C16.2893 20.3917 16.351 20.3967 16.4177 20.4C16.4843 20.4033 16.5577 20.405 16.6377 20.405C16.871 20.405 17.0593 20.3717 17.2027 20.305C17.346 20.2383 17.4177 20.115 17.4177 19.935C17.4177 19.775 17.3577 19.6617 17.2377 19.595C17.1177 19.525 16.946 19.49 16.7227 19.49H16.2327ZM16.2327 18.895H16.6127C16.8527 18.895 17.0243 18.865 17.1277 18.805C17.231 18.7417 17.2827 18.6417 17.2827 18.505C17.2827 18.365 17.2293 18.2667 17.1227 18.21C17.016 18.1533 16.8593 18.125 16.6527 18.125C16.586 18.125 16.5143 18.1267 16.4377 18.13C16.361 18.13 16.2927 18.1333 16.2327 18.14V18.895Z" fill="white"/>
<path d="M13.2927 21.07C13.0494 21.07 12.8394 21.0367 12.6627 20.97C12.486 20.9 12.3394 20.805 12.2227 20.685C12.1094 20.5617 12.0244 20.4167 11.9677 20.25C11.9144 20.08 11.8877 19.8933 11.8877 19.69V17.535H12.6677V19.625C12.6677 19.765 12.6827 19.885 12.7127 19.985C12.746 20.0817 12.7894 20.1617 12.8427 20.225C12.8994 20.285 12.966 20.3283 13.0427 20.355C13.1227 20.3817 13.2094 20.395 13.3027 20.395C13.4927 20.395 13.646 20.3367 13.7627 20.22C13.8827 20.1033 13.9427 19.905 13.9427 19.625V17.535H14.7227V19.69C14.7227 19.8933 14.6944 20.08 14.6377 20.25C14.581 20.42 14.4944 20.5667 14.3777 20.69C14.261 20.81 14.1127 20.9033 13.9327 20.97C13.7527 21.0367 13.5394 21.07 13.2927 21.07Z" fill="white"/>
<path d="M9.6566 17.495C10.1766 17.495 10.5749 17.5883 10.8516 17.775C11.1283 17.9583 11.2666 18.245 11.2666 18.635C11.2666 18.8783 11.2099 19.0767 11.0966 19.23C10.9866 19.38 10.8266 19.4983 10.6166 19.585C10.6866 19.6717 10.7599 19.7717 10.8366 19.885C10.9133 19.995 10.9883 20.1117 11.0616 20.235C11.1383 20.355 11.2116 20.4817 11.2816 20.615C11.3516 20.745 11.4166 20.8733 11.4766 21H10.6016C10.5383 20.8867 10.4733 20.7717 10.4066 20.655C10.3433 20.5383 10.2766 20.425 10.2066 20.315C10.1399 20.205 10.0733 20.1017 10.0066 20.005C9.93993 19.905 9.87327 19.815 9.8066 19.735H9.4216V21H8.6416V17.585C8.8116 17.5517 8.9866 17.5283 9.1666 17.515C9.34993 17.5017 9.51327 17.495 9.6566 17.495ZM9.7016 18.16C9.64494 18.16 9.59327 18.1617 9.5466 18.165C9.50327 18.1683 9.4616 18.1717 9.4216 18.175V19.115H9.6416C9.93493 19.115 10.1449 19.0783 10.2716 19.005C10.3983 18.9317 10.4616 18.8067 10.4616 18.63C10.4616 18.46 10.3966 18.34 10.2666 18.27C10.1399 18.1967 9.9516 18.16 9.7016 18.16Z" fill="white"/>
</svg>
