<svg width="27" height="30" viewBox="0 0 27 30" fill="none" xmlns="http://www.w3.org/2000/svg">
<path d="M0.876112 6.84778L12.6222 0.160206C13.0059 -0.0582554 13.4745 -0.0529706 13.8534 0.174091L25.6311 7.23257C26.0094 7.4593 26.2417 7.87327 26.2417 8.32067V21.6793C26.2417 22.1267 26.0094 22.5407 25.6311 22.7674L13.8534 29.8259C13.4745 30.053 13.0059 30.0583 12.6222 29.8398L0.876113 23.1522C0.48441 22.9292 0.241699 22.5076 0.241699 22.0502V7.94977C0.241699 7.49239 0.484409 7.0708 0.876112 6.84778Z" fill="white"/>
<path d="M2.88874 7.85152L12.6093 2.16794C13.001 1.93893 13.4794 1.94447 13.8661 2.18249L23.6189 8.18505C24.0048 8.42253 24.2417 8.85595 24.2417 9.32434V20.6757C24.2417 21.1441 24.0048 21.5775 23.6189 21.815L13.8661 27.8175C13.4794 28.0555 13.001 28.0611 12.6093 27.8321L2.88874 22.1485C2.48922 21.9149 2.2417 21.4735 2.2417 20.9946V9.00537C2.2417 8.52652 2.48922 8.08512 2.88874 7.85152Z" fill="#D36816"/>
<path d="M21.8554 17.535V18.2H20.8104V21H20.0304V18.2H18.9854V17.535H21.8554Z" fill="white"/>
<path d="M17.4178 20.405C17.5278 20.405 17.6178 20.3967 17.6878 20.38C17.7611 20.36 17.8195 20.335 17.8628 20.305C17.9061 20.2717 17.9361 20.2333 17.9528 20.19C17.9695 20.1467 17.9778 20.0983 17.9778 20.045C17.9778 19.9317 17.9245 19.8383 17.8178 19.765C17.7111 19.6883 17.5278 19.6067 17.2678 19.52C17.1545 19.48 17.0411 19.435 16.9278 19.385C16.8145 19.3317 16.7128 19.2667 16.6228 19.19C16.5328 19.11 16.4595 19.015 16.4028 18.905C16.3461 18.7917 16.3178 18.655 16.3178 18.495C16.3178 18.335 16.3478 18.1917 16.4078 18.065C16.4678 17.935 16.5528 17.825 16.6628 17.735C16.7728 17.645 16.9061 17.5767 17.0628 17.53C17.2195 17.48 17.3961 17.455 17.5928 17.455C17.8261 17.455 18.0278 17.48 18.1978 17.53C18.3678 17.58 18.5078 17.635 18.6178 17.695L18.3928 18.31C18.2961 18.26 18.1878 18.2167 18.0678 18.18C17.9511 18.14 17.8095 18.12 17.6428 18.12C17.4561 18.12 17.3211 18.1467 17.2378 18.2C17.1578 18.25 17.1178 18.3283 17.1178 18.435C17.1178 18.4983 17.1328 18.5517 17.1628 18.595C17.1928 18.6383 17.2345 18.6783 17.2878 18.715C17.3445 18.7483 17.4078 18.78 17.4778 18.81C17.5511 18.8367 17.6311 18.865 17.7178 18.895C17.8978 18.9617 18.0545 19.0283 18.1878 19.095C18.3211 19.1583 18.4311 19.2333 18.5178 19.32C18.6078 19.4067 18.6745 19.5083 18.7178 19.625C18.7611 19.7417 18.7828 19.8833 18.7828 20.05C18.7828 20.3733 18.6695 20.625 18.4428 20.805C18.2161 20.9817 17.8745 21.07 17.4178 21.07C17.2645 21.07 17.1261 21.06 17.0028 21.04C16.8795 21.0233 16.7695 21.0017 16.6728 20.975C16.5795 20.9483 16.4978 20.92 16.4278 20.89C16.3611 20.86 16.3045 20.8317 16.2578 20.805L16.4778 20.185C16.5811 20.2417 16.7078 20.2933 16.8578 20.34C17.0111 20.3833 17.1978 20.405 17.4178 20.405Z" fill="white"/>
<path d="M14.2927 21.07C14.0494 21.07 13.8394 21.0366 13.6627 20.97C13.486 20.9 13.3394 20.805 13.2227 20.685C13.1094 20.5616 13.0244 20.4166 12.9677 20.25C12.9144 20.08 12.8877 19.8933 12.8877 19.69V17.535H13.6677V19.625C13.6677 19.765 13.6827 19.885 13.7127 19.985C13.746 20.0816 13.7894 20.1616 13.8427 20.225C13.8994 20.285 13.966 20.3283 14.0427 20.355C14.1227 20.3816 14.2094 20.395 14.3027 20.395C14.4927 20.395 14.646 20.3366 14.7627 20.22C14.8827 20.1033 14.9427 19.905 14.9427 19.625V17.535H15.7227V19.69C15.7227 19.8933 15.6944 20.08 15.6377 20.25C15.581 20.42 15.4944 20.5666 15.3777 20.69C15.261 20.81 15.1127 20.9033 14.9327 20.97C14.7527 21.0366 14.5394 21.07 14.2927 21.07Z" fill="white"/>
<path d="M10.6566 17.495C11.1766 17.495 11.5749 17.5883 11.8516 17.775C12.1283 17.9583 12.2666 18.245 12.2666 18.635C12.2666 18.8783 12.2099 19.0767 12.0966 19.23C11.9866 19.38 11.8266 19.4983 11.6166 19.585C11.6866 19.6717 11.7599 19.7717 11.8366 19.885C11.9133 19.995 11.9883 20.1117 12.0616 20.235C12.1383 20.355 12.2116 20.4817 12.2816 20.615C12.3516 20.745 12.4166 20.8733 12.4766 21H11.6016C11.5383 20.8867 11.4733 20.7717 11.4066 20.655C11.3433 20.5383 11.2766 20.425 11.2066 20.315C11.1399 20.205 11.0733 20.1017 11.0066 20.005C10.9399 19.905 10.8733 19.815 10.8066 19.735H10.4216V21H9.6416V17.585C9.8116 17.5517 9.9866 17.5283 10.1666 17.515C10.3499 17.5017 10.5133 17.495 10.6566 17.495ZM10.7016 18.16C10.6449 18.16 10.5933 18.1617 10.5466 18.165C10.5033 18.1683 10.4616 18.1717 10.4216 18.175V19.115H10.6416C10.9349 19.115 11.1449 19.0783 11.2716 19.005C11.3983 18.9317 11.4616 18.8067 11.4616 18.63C11.4616 18.46 11.3966 18.34 11.2666 18.27C11.1399 18.1967 10.9516 18.16 10.7016 18.16Z" fill="white"/>
</svg>
