<svg width="27" height="30" viewBox="0 0 27 30" fill="none" xmlns="http://www.w3.org/2000/svg">
<path d="M0.876112 6.84778L12.6222 0.160206C13.0059 -0.0582554 13.4745 -0.0529706 13.8534 0.174091L25.6311 7.23257C26.0094 7.4593 26.2417 7.87327 26.2417 8.32067V21.6793C26.2417 22.1267 26.0094 22.5407 25.6311 22.7674L13.8534 29.8259C13.4745 30.053 13.0059 30.0583 12.6222 29.8398L0.876113 23.1522C0.48441 22.9292 0.241699 22.5076 0.241699 22.0502V7.94977C0.241699 7.49239 0.484409 7.0708 0.876112 6.84778Z" fill="white"/>
<path d="M2.88874 7.85152L12.6093 2.16794C13.001 1.93893 13.4794 1.94447 13.8661 2.18249L23.6189 8.18505C24.0048 8.42253 24.2417 8.85595 24.2417 9.32434V20.6757C24.2417 21.1441 24.0048 21.5775 23.6189 21.815L13.8661 27.8175C13.4794 28.0555 13.001 28.0611 12.6093 27.8321L2.88874 22.1485C2.48922 21.9149 2.2417 21.4735 2.2417 20.9946V9.00537C2.2417 8.52652 2.48922 8.08512 2.88874 7.85152Z" fill="#E90505"/>
<path d="M19.022 22.14C17.8953 22.14 17.0353 21.8267 16.442 21.2C15.8553 20.5733 15.562 19.6833 15.562 18.53C15.562 17.9567 15.652 17.4467 15.832 17C16.012 16.5467 16.2587 16.1667 16.572 15.86C16.8853 15.5467 17.2587 15.31 17.692 15.15C18.1253 14.99 18.5953 14.91 19.102 14.91C19.3953 14.91 19.662 14.9333 19.902 14.98C20.142 15.02 20.352 15.07 20.532 15.13C20.712 15.1833 20.862 15.24 20.982 15.3C21.102 15.36 21.1887 15.4067 21.242 15.44L20.792 16.7C20.5787 16.5867 20.3287 16.49 20.042 16.41C19.762 16.33 19.442 16.29 19.082 16.29C18.842 16.29 18.6053 16.33 18.372 16.41C18.1453 16.49 17.942 16.62 17.762 16.8C17.5887 16.9733 17.4487 17.2 17.342 17.48C17.2353 17.76 17.182 18.1 17.182 18.5C17.182 18.82 17.2153 19.12 17.282 19.4C17.3553 19.6733 17.4687 19.91 17.622 20.11C17.782 20.31 17.9887 20.47 18.242 20.59C18.4953 20.7033 18.802 20.76 19.162 20.76C19.3887 20.76 19.592 20.7467 19.772 20.72C19.952 20.6933 20.112 20.6633 20.252 20.63C20.392 20.59 20.5153 20.5467 20.622 20.5C20.7287 20.4533 20.8253 20.41 20.912 20.37L21.342 21.62C21.122 21.7533 20.812 21.8733 20.412 21.98C20.012 22.0867 19.5487 22.14 19.022 22.14Z" fill="white"/>
<path d="M11.9318 20.81C12.1518 20.81 12.3318 20.7933 12.4718 20.76C12.6185 20.72 12.7351 20.67 12.8218 20.61C12.9085 20.5433 12.9685 20.4667 13.0018 20.38C13.0352 20.2933 13.0518 20.1967 13.0518 20.09C13.0518 19.8633 12.9451 19.6767 12.7318 19.53C12.5185 19.3767 12.1518 19.2133 11.6318 19.04C11.4051 18.96 11.1785 18.87 10.9518 18.77C10.7251 18.6633 10.5218 18.5333 10.3418 18.38C10.1618 18.22 10.0151 18.03 9.90182 17.81C9.78848 17.5833 9.73182 17.31 9.73182 16.99C9.73182 16.67 9.79182 16.3833 9.91182 16.13C10.0318 15.87 10.2018 15.65 10.4218 15.47C10.6418 15.29 10.9085 15.1533 11.2218 15.06C11.5351 14.96 11.8885 14.91 12.2818 14.91C12.7485 14.91 13.1518 14.96 13.4918 15.06C13.8318 15.16 14.1118 15.27 14.3318 15.39L13.8818 16.62C13.6885 16.52 13.4718 16.4333 13.2318 16.36C12.9985 16.28 12.7151 16.24 12.3818 16.24C12.0085 16.24 11.7385 16.2933 11.5718 16.4C11.4118 16.5 11.3318 16.6567 11.3318 16.87C11.3318 16.9967 11.3618 17.1033 11.4218 17.19C11.4818 17.2767 11.5651 17.3567 11.6718 17.43C11.7851 17.4967 11.9118 17.56 12.0518 17.62C12.1985 17.6733 12.3585 17.73 12.5318 17.79C12.8918 17.9233 13.2051 18.0567 13.4718 18.19C13.7385 18.3167 13.9585 18.4667 14.1318 18.64C14.3118 18.8133 14.4452 19.0167 14.5318 19.25C14.6185 19.4833 14.6618 19.7667 14.6618 20.1C14.6618 20.7467 14.4352 21.25 13.9818 21.61C13.5285 21.9633 12.8451 22.14 11.9318 22.14C11.6251 22.14 11.3485 22.12 11.1018 22.08C10.8551 22.0467 10.6351 22.0033 10.4418 21.95C10.2551 21.8967 10.0918 21.84 9.95182 21.78C9.81848 21.72 9.70515 21.6633 9.61182 21.61L10.0518 20.37C10.2585 20.4833 10.5118 20.5867 10.8118 20.68C11.1185 20.7667 11.4918 20.81 11.9318 20.81Z" fill="white"/>
</svg>
