<svg width="26" height="30" viewBox="0 0 26 30" fill="none" xmlns="http://www.w3.org/2000/svg">
<path d="M0.634413 6.84778L12.3805 0.160206C12.7642 -0.0582554 13.2328 -0.0529706 13.6117 0.174091L25.3894 7.23257C25.7677 7.4593 26 7.87327 26 8.32067V21.6793C26 22.1267 25.7677 22.5407 25.3894 22.7674L13.6117 29.8259C13.2328 30.053 12.7642 30.0583 12.3805 29.8398L0.634414 23.1522C0.242711 22.9292 0 22.5076 0 22.0502V7.94977C0 7.49239 0.24271 7.0708 0.634413 6.84778Z" fill="white"/>
<path d="M2.64704 7.85152L12.3676 2.16794C12.7593 1.93893 13.2377 1.94447 13.6244 2.18249L23.3772 8.18505C23.7631 8.42253 24 8.85595 24 9.32434V20.6757C24 21.1441 23.7631 21.5775 23.3772 21.815L13.6244 27.8175C13.2377 28.0555 12.7593 28.0611 12.3676 27.8321L2.64704 22.1485C2.24752 21.9149 2 21.4735 2 20.9946V9.00537C2 8.52652 2.24752 8.08512 2.64704 7.85152Z" fill="#CF649B"/>
<path d="M19.9627 20.405C20.0727 20.405 20.1627 20.3967 20.2327 20.38C20.3061 20.36 20.3644 20.335 20.4077 20.305C20.4511 20.2717 20.4811 20.2333 20.4977 20.19C20.5144 20.1467 20.5227 20.0983 20.5227 20.045C20.5227 19.9317 20.4694 19.8383 20.3627 19.765C20.2561 19.6883 20.0727 19.6067 19.8127 19.52C19.6994 19.48 19.5861 19.435 19.4727 19.385C19.3594 19.3317 19.2577 19.2667 19.1677 19.19C19.0777 19.11 19.0044 19.015 18.9477 18.905C18.8911 18.7917 18.8627 18.655 18.8627 18.495C18.8627 18.335 18.8927 18.1917 18.9527 18.065C19.0127 17.935 19.0977 17.825 19.2077 17.735C19.3177 17.645 19.4511 17.5767 19.6077 17.53C19.7644 17.48 19.9411 17.455 20.1377 17.455C20.3711 17.455 20.5727 17.48 20.7427 17.53C20.9127 17.58 21.0527 17.635 21.1627 17.695L20.9377 18.31C20.8411 18.26 20.7327 18.2167 20.6127 18.18C20.4961 18.14 20.3544 18.12 20.1877 18.12C20.0011 18.12 19.8661 18.1467 19.7827 18.2C19.7027 18.25 19.6627 18.3283 19.6627 18.435C19.6627 18.4983 19.6777 18.5517 19.7077 18.595C19.7377 18.6383 19.7794 18.6783 19.8327 18.715C19.8894 18.7483 19.9527 18.78 20.0227 18.81C20.0961 18.8367 20.1761 18.865 20.2627 18.895C20.4427 18.9617 20.5994 19.0283 20.7327 19.095C20.8661 19.1583 20.9761 19.2333 21.0627 19.32C21.1527 19.4067 21.2194 19.5083 21.2627 19.625C21.3061 19.7417 21.3277 19.8833 21.3277 20.05C21.3277 20.3733 21.2144 20.625 20.9877 20.805C20.7611 20.9817 20.4194 21.07 19.9627 21.07C19.8094 21.07 19.6711 21.06 19.5477 21.04C19.4244 21.0233 19.3144 21.0017 19.2177 20.975C19.1244 20.9483 19.0427 20.92 18.9727 20.89C18.9061 20.86 18.8494 20.8317 18.8027 20.805L19.0227 20.185C19.1261 20.2417 19.2527 20.2933 19.4027 20.34C19.5561 20.3833 19.7427 20.405 19.9627 20.405Z" fill="white"/>
<path d="M17.0526 20.405C17.1626 20.405 17.2526 20.3967 17.3226 20.38C17.3959 20.36 17.4542 20.335 17.4976 20.305C17.5409 20.2717 17.5709 20.2333 17.5876 20.19C17.6042 20.1467 17.6126 20.0983 17.6126 20.045C17.6126 19.9317 17.5592 19.8383 17.4526 19.765C17.3459 19.6883 17.1626 19.6067 16.9026 19.52C16.7892 19.48 16.6759 19.435 16.5626 19.385C16.4492 19.3317 16.3476 19.2667 16.2576 19.19C16.1676 19.11 16.0942 19.015 16.0376 18.905C15.9809 18.7917 15.9526 18.655 15.9526 18.495C15.9526 18.335 15.9826 18.1917 16.0426 18.065C16.1026 17.935 16.1876 17.825 16.2976 17.735C16.4076 17.645 16.5409 17.5767 16.6976 17.53C16.8542 17.48 17.0309 17.455 17.2276 17.455C17.4609 17.455 17.6626 17.48 17.8326 17.53C18.0026 17.58 18.1426 17.635 18.2526 17.695L18.0276 18.31C17.9309 18.26 17.8226 18.2167 17.7026 18.18C17.5859 18.14 17.4442 18.12 17.2776 18.12C17.0909 18.12 16.9559 18.1467 16.8726 18.2C16.7926 18.25 16.7526 18.3283 16.7526 18.435C16.7526 18.4983 16.7676 18.5517 16.7976 18.595C16.8276 18.6383 16.8692 18.6783 16.9226 18.715C16.9792 18.7483 17.0426 18.78 17.1126 18.81C17.1859 18.8367 17.2659 18.865 17.3526 18.895C17.5326 18.9617 17.6892 19.0283 17.8226 19.095C17.9559 19.1583 18.0659 19.2333 18.1526 19.32C18.2426 19.4067 18.3092 19.5083 18.3526 19.625C18.3959 19.7417 18.4176 19.8833 18.4176 20.05C18.4176 20.3733 18.3042 20.625 18.0776 20.805C17.8509 20.9817 17.5092 21.07 17.0526 21.07C16.8992 21.07 16.7609 21.06 16.6376 21.04C16.5142 21.0233 16.4042 21.0017 16.3076 20.975C16.2142 20.9483 16.1326 20.92 16.0626 20.89C15.9959 20.86 15.9392 20.8317 15.8926 20.805L16.1126 20.185C16.2159 20.2417 16.3426 20.2933 16.4926 20.34C16.6459 20.3833 16.8326 20.405 17.0526 20.405Z" fill="white"/>
<path d="M14.3623 21.07C13.799 21.07 13.369 20.9133 13.0723 20.6C12.779 20.2867 12.6323 19.8417 12.6323 19.265C12.6323 18.9783 12.6773 18.7233 12.7673 18.5C12.8573 18.2733 12.9807 18.0833 13.1373 17.93C13.294 17.7733 13.4807 17.655 13.6973 17.575C13.914 17.495 14.149 17.455 14.4023 17.455C14.549 17.455 14.6823 17.4667 14.8023 17.49C14.9223 17.51 15.0273 17.535 15.1173 17.565C15.2073 17.5917 15.2823 17.62 15.3423 17.65C15.4023 17.68 15.4457 17.7033 15.4723 17.72L15.2473 18.35C15.1407 18.2933 15.0157 18.245 14.8723 18.205C14.7323 18.165 14.5723 18.145 14.3923 18.145C14.2723 18.145 14.154 18.165 14.0373 18.205C13.924 18.245 13.8223 18.31 13.7323 18.4C13.6457 18.4867 13.5757 18.6 13.5223 18.74C13.469 18.88 13.4423 19.05 13.4423 19.25C13.4423 19.41 13.459 19.56 13.4923 19.7C13.529 19.8367 13.5857 19.955 13.6623 20.055C13.7423 20.155 13.8457 20.235 13.9723 20.295C14.099 20.3517 14.2523 20.38 14.4323 20.38C14.5457 20.38 14.6473 20.3733 14.7373 20.36C14.8273 20.3467 14.9073 20.3317 14.9773 20.315C15.0473 20.295 15.109 20.2733 15.1623 20.25C15.2157 20.2267 15.264 20.205 15.3073 20.185L15.5223 20.81C15.4123 20.8767 15.2573 20.9367 15.0573 20.99C14.8573 21.0433 14.6257 21.07 14.3623 21.07Z" fill="white"/>
<path d="M10.8172 20.405C10.9272 20.405 11.0172 20.3967 11.0872 20.38C11.1606 20.36 11.2189 20.335 11.2622 20.305C11.3056 20.2717 11.3356 20.2333 11.3522 20.19C11.3689 20.1467 11.3772 20.0983 11.3772 20.045C11.3772 19.9317 11.3239 19.8383 11.2172 19.765C11.1106 19.6883 10.9272 19.6067 10.6672 19.52C10.5539 19.48 10.4406 19.435 10.3272 19.385C10.2139 19.3317 10.1122 19.2667 10.0222 19.19C9.93223 19.11 9.85889 19.015 9.80223 18.905C9.74556 18.7917 9.71723 18.655 9.71723 18.495C9.71723 18.335 9.74723 18.1917 9.80723 18.065C9.86723 17.935 9.95223 17.825 10.0622 17.735C10.1722 17.645 10.3056 17.5767 10.4622 17.53C10.6189 17.48 10.7956 17.455 10.9922 17.455C11.2256 17.455 11.4272 17.48 11.5972 17.53C11.7672 17.58 11.9072 17.635 12.0172 17.695L11.7922 18.31C11.6956 18.26 11.5872 18.2167 11.4672 18.18C11.3506 18.14 11.2089 18.12 11.0422 18.12C10.8556 18.12 10.7206 18.1467 10.6372 18.2C10.5572 18.25 10.5172 18.3283 10.5172 18.435C10.5172 18.4983 10.5322 18.5517 10.5622 18.595C10.5922 18.6383 10.6339 18.6783 10.6872 18.715C10.7439 18.7483 10.8072 18.78 10.8772 18.81C10.9506 18.8367 11.0306 18.865 11.1172 18.895C11.2972 18.9617 11.4539 19.0283 11.5872 19.095C11.7206 19.1583 11.8306 19.2333 11.9172 19.32C12.0072 19.4067 12.0739 19.5083 12.1172 19.625C12.1606 19.7417 12.1822 19.8833 12.1822 20.05C12.1822 20.3733 12.0689 20.625 11.8422 20.805C11.6156 20.9817 11.2739 21.07 10.8172 21.07C10.6639 21.07 10.5256 21.06 10.4022 21.04C10.2789 21.0233 10.1689 21.0017 10.0722 20.975C9.97889 20.9483 9.89723 20.92 9.82723 20.89C9.76056 20.86 9.70389 20.8317 9.65723 20.805L9.87723 20.185C9.98056 20.2417 10.1072 20.2933 10.2572 20.34C10.4106 20.3833 10.5972 20.405 10.8172 20.405Z" fill="white"/>
</svg>
