<svg width="27" height="30" viewBox="0 0 27 30" fill="none" xmlns="http://www.w3.org/2000/svg">
<path d="M0.876112 6.84778L12.6222 0.160206C13.0059 -0.0582554 13.4745 -0.0529706 13.8534 0.174091L25.6311 7.23257C26.0094 7.4593 26.2417 7.87327 26.2417 8.32067V21.6793C26.2417 22.1267 26.0094 22.5407 25.6311 22.7674L13.8534 29.8259C13.4745 30.053 13.0059 30.0583 12.6222 29.8398L0.876113 23.1522C0.48441 22.9292 0.241699 22.5076 0.241699 22.0502V7.94977C0.241699 7.49239 0.484409 7.0708 0.876112 6.84778Z" fill="white"/>
<path d="M2.88874 7.85152L12.6093 2.16794C13.001 1.93893 13.4794 1.94447 13.8661 2.18249L23.6189 8.18505C24.0048 8.42253 24.2417 8.85595 24.2417 9.32434V20.6757C24.2417 21.1441 24.0048 21.5775 23.6189 21.815L13.8661 27.8175C13.4794 28.0555 13.001 28.0611 12.6093 27.8321L2.88874 22.1485C2.48922 21.9149 2.2417 21.4735 2.2417 20.9946V9.00537C2.2417 8.52652 2.48922 8.08512 2.88874 7.85152Z" fill="#08D088"/>
<path d="M19.0418 15.07H20.6018V22H19.0418V19.06H16.4218V22H14.8618V15.07H16.4218V17.72H19.0418V15.07Z" fill="white"/>
<path d="M10.9318 20.81C11.1518 20.81 11.3318 20.7933 11.4718 20.76C11.6185 20.72 11.7351 20.67 11.8218 20.61C11.9085 20.5433 11.9685 20.4667 12.0018 20.38C12.0352 20.2933 12.0518 20.1967 12.0518 20.09C12.0518 19.8633 11.9451 19.6767 11.7318 19.53C11.5185 19.3767 11.1518 19.2133 10.6318 19.04C10.4051 18.96 10.1785 18.87 9.95182 18.77C9.72515 18.6633 9.52182 18.5333 9.34182 18.38C9.16182 18.22 9.01515 18.03 8.90182 17.81C8.78848 17.5833 8.73182 17.31 8.73182 16.99C8.73182 16.67 8.79182 16.3833 8.91182 16.13C9.03182 15.87 9.20182 15.65 9.42182 15.47C9.64182 15.29 9.90848 15.1533 10.2218 15.06C10.5351 14.96 10.8885 14.91 11.2818 14.91C11.7485 14.91 12.1518 14.96 12.4918 15.06C12.8318 15.16 13.1118 15.27 13.3318 15.39L12.8818 16.62C12.6885 16.52 12.4718 16.4333 12.2318 16.36C11.9985 16.28 11.7151 16.24 11.3818 16.24C11.0085 16.24 10.7385 16.2933 10.5718 16.4C10.4118 16.5 10.3318 16.6567 10.3318 16.87C10.3318 16.9967 10.3618 17.1033 10.4218 17.19C10.4818 17.2767 10.5651 17.3567 10.6718 17.43C10.7851 17.4967 10.9118 17.56 11.0518 17.62C11.1985 17.6733 11.3585 17.73 11.5318 17.79C11.8918 17.9233 12.2051 18.0567 12.4718 18.19C12.7385 18.3167 12.9585 18.4667 13.1318 18.64C13.3118 18.8133 13.4452 19.0167 13.5318 19.25C13.6185 19.4833 13.6618 19.7667 13.6618 20.1C13.6618 20.7467 13.4352 21.25 12.9818 21.61C12.5285 21.9633 11.8451 22.14 10.9318 22.14C10.6251 22.14 10.3485 22.12 10.1018 22.08C9.85515 22.0467 9.63515 22.0033 9.44182 21.95C9.25515 21.8967 9.09182 21.84 8.95182 21.78C8.81848 21.72 8.70515 21.6633 8.61182 21.61L9.05182 20.37C9.25848 20.4833 9.51182 20.5867 9.81182 20.68C10.1185 20.7667 10.4918 20.81 10.9318 20.81Z" fill="white"/>
</svg>
