<svg width="27" height="30" viewBox="0 0 27 30" fill="none" xmlns="http://www.w3.org/2000/svg">
<path d="M0.876112 6.84778L12.6222 0.160206C13.0059 -0.0582554 13.4745 -0.0529706 13.8534 0.174091L25.6311 7.23257C26.0094 7.4593 26.2417 7.87327 26.2417 8.32067V21.6793C26.2417 22.1267 26.0094 22.5407 25.6311 22.7674L13.8534 29.8259C13.4745 30.053 13.0059 30.0583 12.6222 29.8398L0.876113 23.1522C0.48441 22.9292 0.241699 22.5076 0.241699 22.0502V7.94977C0.241699 7.49239 0.484409 7.0708 0.876112 6.84778Z" fill="white"/>
<path d="M2.88874 7.85152L12.6093 2.16794C13.001 1.93893 13.4794 1.94447 13.8661 2.18249L23.6189 8.18505C24.0048 8.42253 24.2417 8.85595 24.2417 9.32434V20.6757C24.2417 21.1441 24.0048 21.5775 23.6189 21.815L13.8661 27.8175C13.4794 28.0555 13.001 28.0611 12.6093 27.8321L2.88874 22.1485C2.48922 21.9149 2.2417 21.4735 2.2417 20.9946V9.00537C2.2417 8.52652 2.48922 8.08512 2.88874 7.85152Z" fill="#B2ABC0"/>
<path d="M18.6362 21V17.535H20.9562V18.19H19.4162V18.915H20.7862V19.57H19.4162V21H18.6362Z" fill="white"/>
<path d="M15.3411 19.265C15.3411 19.435 15.3611 19.5883 15.4011 19.725C15.4445 19.8617 15.5045 19.98 15.5811 20.08C15.6611 20.1767 15.7578 20.2517 15.8711 20.305C15.9845 20.3583 16.1145 20.385 16.2611 20.385C16.4045 20.385 16.5328 20.3583 16.6461 20.305C16.7628 20.2517 16.8595 20.1767 16.9361 20.08C17.0161 19.98 17.0761 19.8617 17.1161 19.725C17.1595 19.5883 17.1811 19.435 17.1811 19.265C17.1811 19.095 17.1595 18.9417 17.1161 18.805C17.0761 18.665 17.0161 18.5467 16.9361 18.45C16.8595 18.35 16.7628 18.2733 16.6461 18.22C16.5328 18.1667 16.4045 18.14 16.2611 18.14C16.1145 18.14 15.9845 18.1683 15.8711 18.225C15.7578 18.2783 15.6611 18.355 15.5811 18.455C15.5045 18.5517 15.4445 18.67 15.4011 18.81C15.3611 18.9467 15.3411 19.0983 15.3411 19.265ZM17.9861 19.265C17.9861 19.5083 17.9561 19.7283 17.8961 19.925C17.8361 20.1183 17.7511 20.2883 17.6411 20.435C17.5345 20.5817 17.4061 20.7033 17.2561 20.8C17.1061 20.8967 16.9411 20.9667 16.7611 21.01C16.7778 21.0767 16.8145 21.13 16.8711 21.17C16.9278 21.2133 16.9995 21.2483 17.0861 21.275C17.1728 21.3017 17.2728 21.3217 17.3861 21.335C17.5028 21.3483 17.6278 21.36 17.7611 21.37L17.6011 21.94C17.3411 21.93 17.1178 21.9033 16.9311 21.86C16.7478 21.82 16.5911 21.7633 16.4611 21.69C16.3345 21.6167 16.2328 21.5267 16.1561 21.42C16.0828 21.3133 16.0261 21.19 15.9861 21.05C15.7795 21.0233 15.5878 20.9667 15.4111 20.88C15.2345 20.79 15.0811 20.67 14.9511 20.52C14.8211 20.37 14.7195 20.19 14.6461 19.98C14.5728 19.77 14.5361 19.5317 14.5361 19.265C14.5361 18.9683 14.5828 18.7083 14.6761 18.485C14.7695 18.2583 14.8945 18.0683 15.0511 17.915C15.2111 17.7617 15.3945 17.6467 15.6011 17.57C15.8111 17.4933 16.0311 17.455 16.2611 17.455C16.4978 17.455 16.7211 17.4933 16.9311 17.57C17.1411 17.6467 17.3245 17.7617 17.4811 17.915C17.6378 18.0683 17.7611 18.2583 17.8511 18.485C17.9411 18.7083 17.9861 18.9683 17.9861 19.265Z" fill="white"/>
<path d="M12.721 20.405C12.831 20.405 12.921 20.3967 12.991 20.38C13.0644 20.36 13.1227 20.335 13.166 20.305C13.2094 20.2717 13.2394 20.2333 13.256 20.19C13.2727 20.1467 13.281 20.0983 13.281 20.045C13.281 19.9317 13.2277 19.8383 13.121 19.765C13.0144 19.6883 12.831 19.6067 12.571 19.52C12.4577 19.48 12.3444 19.435 12.231 19.385C12.1177 19.3317 12.016 19.2667 11.926 19.19C11.836 19.11 11.7627 19.015 11.706 18.905C11.6494 18.7917 11.621 18.655 11.621 18.495C11.621 18.335 11.651 18.1917 11.711 18.065C11.771 17.935 11.856 17.825 11.966 17.735C12.076 17.645 12.2094 17.5767 12.366 17.53C12.5227 17.48 12.6994 17.455 12.896 17.455C13.1294 17.455 13.331 17.48 13.501 17.53C13.671 17.58 13.811 17.635 13.921 17.695L13.696 18.31C13.5994 18.26 13.491 18.2167 13.371 18.18C13.2544 18.14 13.1127 18.12 12.946 18.12C12.7594 18.12 12.6244 18.1467 12.541 18.2C12.461 18.25 12.421 18.3283 12.421 18.435C12.421 18.4983 12.436 18.5517 12.466 18.595C12.496 18.6383 12.5377 18.6783 12.591 18.715C12.6477 18.7483 12.711 18.78 12.781 18.81C12.8544 18.8367 12.9344 18.865 13.021 18.895C13.201 18.9617 13.3577 19.0283 13.491 19.095C13.6244 19.1583 13.7344 19.2333 13.821 19.32C13.911 19.4067 13.9777 19.5083 14.021 19.625C14.0644 19.7417 14.086 19.8833 14.086 20.05C14.086 20.3733 13.9727 20.625 13.746 20.805C13.5194 20.9817 13.1777 21.07 12.721 21.07C12.5677 21.07 12.4294 21.06 12.306 21.04C12.1827 21.0233 12.0727 21.0017 11.976 20.975C11.8827 20.9483 11.801 20.92 11.731 20.89C11.6644 20.86 11.6077 20.8317 11.561 20.805L11.781 20.185C11.8844 20.2417 12.011 20.2933 12.161 20.34C12.3144 20.3833 12.501 20.405 12.721 20.405Z" fill="white"/>
</svg>
