<svg width="27" height="30" viewBox="0 0 27 30" fill="none" xmlns="http://www.w3.org/2000/svg">
<path d="M0.876112 6.84778L12.6222 0.160206C13.0059 -0.0582554 13.4745 -0.0529706 13.8534 0.174091L25.6311 7.23257C26.0094 7.4593 26.2417 7.87327 26.2417 8.32067V21.6793C26.2417 22.1267 26.0094 22.5407 25.6311 22.7674L13.8534 29.8259C13.4745 30.053 13.0059 30.0583 12.6222 29.8398L0.876113 23.1522C0.48441 22.9292 0.241699 22.5076 0.241699 22.0502V7.94977C0.241699 7.49239 0.484409 7.0708 0.876112 6.84778Z" fill="white"/>
<path d="M2.88874 7.85152L12.6093 2.16794C13.001 1.93893 13.4794 1.94447 13.8661 2.18249L23.6189 8.18505C24.0048 8.42253 24.2417 8.85595 24.2417 9.32434V20.6757C24.2417 21.1441 24.0048 21.5775 23.6189 21.815L13.8661 27.8175C13.4794 28.0555 13.001 28.0611 12.6093 27.8321L2.88874 22.1485C2.48922 21.9149 2.2417 21.4735 2.2417 20.9946V9.00537C2.2417 8.52652 2.48922 8.08512 2.88874 7.85152Z" fill="#EB613F"/>
<path d="M18.4146 15.81C18.4946 16.0833 18.5812 16.3933 18.6746 16.74C18.7746 17.08 18.8779 17.4333 18.9846 17.8C19.0979 18.1667 19.2112 18.5333 19.3246 18.9C19.4379 19.2667 19.5479 19.6067 19.6546 19.92C19.7412 19.58 19.8279 19.21 19.9146 18.81C20.0079 18.41 20.0946 17.9967 20.1746 17.57C20.2546 17.1433 20.3312 16.72 20.4046 16.3C20.4846 15.8733 20.5579 15.4633 20.6246 15.07H22.2446C22.0112 16.23 21.7412 17.4067 21.4346 18.6C21.1346 19.7933 20.8079 20.9267 20.4546 22H19.0246C18.7912 21.36 18.5646 20.69 18.3446 19.99C18.1246 19.2833 17.9079 18.5767 17.6946 17.87C17.4812 18.5767 17.2679 19.2833 17.0546 19.99C16.8412 20.69 16.6179 21.36 16.3846 22H14.9546C14.6012 20.9267 14.2712 19.7933 13.9646 18.6C13.6646 17.4067 13.3979 16.23 13.1646 15.07H14.8546C14.9212 15.4633 14.9946 15.8733 15.0746 16.3C15.1546 16.72 15.2379 17.1433 15.3246 17.57C15.4112 17.9967 15.4979 18.41 15.5846 18.81C15.6779 19.21 15.7712 19.58 15.8646 19.92C15.9846 19.5933 16.1012 19.2467 16.2146 18.88C16.3279 18.5133 16.4379 18.1467 16.5446 17.78C16.6512 17.4133 16.7479 17.06 16.8346 16.72C16.9279 16.38 17.0112 16.0767 17.0846 15.81H18.4146Z" fill="white"/>
<path d="M9.93182 20.81C10.1518 20.81 10.3318 20.7933 10.4718 20.76C10.6185 20.72 10.7351 20.67 10.8218 20.61C10.9085 20.5433 10.9685 20.4667 11.0018 20.38C11.0352 20.2933 11.0518 20.1967 11.0518 20.09C11.0518 19.8633 10.9451 19.6767 10.7318 19.53C10.5185 19.3767 10.1518 19.2133 9.63182 19.04C9.40515 18.96 9.17848 18.87 8.95182 18.77C8.72515 18.6633 8.52182 18.5333 8.34182 18.38C8.16182 18.22 8.01515 18.03 7.90182 17.81C7.78848 17.5833 7.73182 17.31 7.73182 16.99C7.73182 16.67 7.79182 16.3833 7.91182 16.13C8.03182 15.87 8.20182 15.65 8.42182 15.47C8.64182 15.29 8.90848 15.1533 9.22182 15.06C9.53515 14.96 9.88848 14.91 10.2818 14.91C10.7485 14.91 11.1518 14.96 11.4918 15.06C11.8318 15.16 12.1118 15.27 12.3318 15.39L11.8818 16.62C11.6885 16.52 11.4718 16.4333 11.2318 16.36C10.9985 16.28 10.7151 16.24 10.3818 16.24C10.0085 16.24 9.73848 16.2933 9.57182 16.4C9.41182 16.5 9.33182 16.6567 9.33182 16.87C9.33182 16.9967 9.36182 17.1033 9.42182 17.19C9.48182 17.2767 9.56515 17.3567 9.67182 17.43C9.78515 17.4967 9.91182 17.56 10.0518 17.62C10.1985 17.6733 10.3585 17.73 10.5318 17.79C10.8918 17.9233 11.2051 18.0567 11.4718 18.19C11.7385 18.3167 11.9585 18.4667 12.1318 18.64C12.3118 18.8133 12.4452 19.0167 12.5318 19.25C12.6185 19.4833 12.6618 19.7667 12.6618 20.1C12.6618 20.7467 12.4352 21.25 11.9818 21.61C11.5285 21.9633 10.8451 22.14 9.93182 22.14C9.62515 22.14 9.34848 22.12 9.10182 22.08C8.85515 22.0467 8.63515 22.0033 8.44182 21.95C8.25515 21.8967 8.09182 21.84 7.95182 21.78C7.81848 21.72 7.70515 21.6633 7.61182 21.61L8.05182 20.37C8.25848 20.4833 8.51182 20.5867 8.81182 20.68C9.11848 20.7667 9.49182 20.81 9.93182 20.81Z" fill="white"/>
</svg>
