<svg width="27" height="30" viewBox="0 0 27 30" fill="none" xmlns="http://www.w3.org/2000/svg">
<path d="M0.876112 6.84778L12.6222 0.160206C13.0059 -0.0582554 13.4745 -0.0529706 13.8534 0.174091L25.6311 7.23257C26.0094 7.4593 26.2417 7.87327 26.2417 8.32067V21.6793C26.2417 22.1267 26.0094 22.5407 25.6311 22.7674L13.8534 29.8259C13.4745 30.053 13.0059 30.0583 12.6222 29.8398L0.876113 23.1522C0.48441 22.9292 0.241699 22.5076 0.241699 22.0502V7.94977C0.241699 7.49239 0.484409 7.0708 0.876112 6.84778Z" fill="white"/>
<path d="M2.88874 7.85152L12.6093 2.16794C13.001 1.93893 13.4794 1.94447 13.8661 2.18249L23.6189 8.18505C24.0048 8.42253 24.2417 8.85595 24.2417 9.32434V20.6757C24.2417 21.1441 24.0048 21.5775 23.6189 21.815L13.8661 27.8175C13.4794 28.0555 13.001 28.0611 12.6093 27.8321L2.88874 22.1485C2.48922 21.9149 2.2417 21.4735 2.2417 20.9946V9.00537C2.2417 8.52652 2.48922 8.08512 2.88874 7.85152Z" fill="#4EA4A1"/>
<path d="M20.8332 21C20.7365 20.8067 20.6298 20.6117 20.5132 20.415C20.3998 20.215 20.2682 20.0117 20.1182 19.805C20.0715 19.865 20.0115 19.9483 19.9382 20.055C19.8682 20.1617 19.7965 20.275 19.7232 20.395C19.6532 20.515 19.5865 20.63 19.5232 20.74C19.4598 20.85 19.4132 20.9367 19.3832 21H18.4932C18.6398 20.73 18.8098 20.4467 19.0032 20.15C19.1998 19.8533 19.4182 19.5383 19.6582 19.205L18.5432 17.535H19.4882L20.1632 18.615L20.8232 17.535H21.7132L20.6132 19.215C20.8932 19.5783 21.1282 19.915 21.3182 20.225C21.5082 20.5317 21.6582 20.79 21.7682 21H20.8332Z" fill="white"/>
<path d="M15.7129 21V17.535H18.0529V18.19H16.4929V18.87H17.8779V19.51H16.4929V20.345H18.1679V21H15.7129Z" fill="white"/>
<path d="M15.2118 17.535V18.2H14.1668V21H13.3868V18.2H12.3418V17.535H15.2118Z" fill="white"/>
</svg>
