<svg width="27" height="30" viewBox="0 0 27 30" fill="none" xmlns="http://www.w3.org/2000/svg">
<path d="M0.876112 6.84778L12.6222 0.160206C13.0059 -0.0582554 13.4745 -0.0529706 13.8534 0.174091L25.6311 7.23257C26.0094 7.4593 26.2417 7.87327 26.2417 8.32067V21.6793C26.2417 22.1267 26.0094 22.5407 25.6311 22.7674L13.8534 29.8259C13.4745 30.053 13.0059 30.0583 12.6222 29.8398L0.876113 23.1522C0.48441 22.9292 0.241699 22.5076 0.241699 22.0502V7.94977C0.241699 7.49239 0.484409 7.0708 0.876112 6.84778Z" fill="white"/>
<path d="M2.88874 7.85152L12.6093 2.16794C13.001 1.93893 13.4794 1.94447 13.8661 2.18249L23.6189 8.18505C24.0048 8.42253 24.2417 8.85595 24.2417 9.32434V20.6757C24.2417 21.1441 24.0048 21.5775 23.6189 21.815L13.8661 27.8175C13.4794 28.0555 13.001 28.0611 12.6093 27.8321L2.88874 22.1485C2.48922 21.9149 2.2417 21.4735 2.2417 20.9946V9.00537C2.2417 8.52652 2.48922 8.08512 2.88874 7.85152Z" fill="#3178C6"/>
<path d="M18.6187 22.1966C18.0281 22.1966 17.547 22.1369 17.1754 22.0174C16.8104 21.8913 16.5417 21.7785 16.3691 21.679L16.7673 20.594C16.9531 20.7002 17.1986 20.7997 17.5039 20.8926C17.8091 20.9855 18.1807 21.032 18.6187 21.032C19.0832 21.032 19.4084 20.959 19.5942 20.813C19.78 20.6604 19.8729 20.458 19.8729 20.2058C19.8729 20.0068 19.8165 19.8442 19.7037 19.7181C19.5975 19.5854 19.4349 19.4659 19.2159 19.3598C18.9969 19.2536 18.7216 19.1441 18.3898 19.0313C18.0712 18.9118 17.766 18.7758 17.474 18.6232C17.1887 18.4639 16.9564 18.2582 16.7772 18.006C16.5981 17.7539 16.5085 17.4221 16.5085 17.0107C16.5085 16.5926 16.608 16.2343 16.8071 15.9357C17.0128 15.637 17.2982 15.4081 17.6631 15.2488C18.0347 15.0829 18.4727 15 18.977 15C19.4216 15 19.8098 15.0498 20.1416 15.1493C20.4801 15.2488 20.7554 15.3583 20.9678 15.4778L20.5597 16.5528C20.3672 16.4466 20.1483 16.357 19.9027 16.284C19.6572 16.2044 19.3719 16.1646 19.0467 16.1646C18.6618 16.1646 18.3732 16.2243 18.1807 16.3438C17.9949 16.4632 17.902 16.6523 17.902 16.9111C17.902 17.0969 17.9584 17.2496 18.0712 17.369C18.184 17.4884 18.3367 17.5946 18.5291 17.6875C18.7216 17.7738 18.9372 17.8601 19.1761 17.9463C19.634 18.1122 20.0155 18.2847 20.3208 18.4639C20.6327 18.6431 20.8682 18.8687 21.0275 19.1408C21.1934 19.4062 21.2764 19.7612 21.2764 20.2058C21.2764 20.6239 21.1768 20.9822 20.9777 21.2808C20.7787 21.5794 20.4801 21.8084 20.0819 21.9676C19.6904 22.1203 19.2026 22.1966 18.6187 22.1966Z" fill="white"/>
<path d="M12.3519 22.0572V16.3139H10.2417V15.1593H15.8158V16.3139H13.7056V22.0572H12.3519Z" fill="white"/>
</svg>
