<svg width="27" height="30" viewBox="0 0 27 30" fill="none" xmlns="http://www.w3.org/2000/svg">
<path d="M0.876112 6.84778L12.6222 0.160206C13.0059 -0.0582554 13.4745 -0.0529706 13.8534 0.174091L25.6311 7.23257C26.0094 7.4593 26.2417 7.87327 26.2417 8.32067V21.6793C26.2417 22.1267 26.0094 22.5407 25.6311 22.7674L13.8534 29.8259C13.4745 30.053 13.0059 30.0583 12.6222 29.8398L0.876113 23.1522C0.48441 22.9292 0.241699 22.5076 0.241699 22.0502V7.94977C0.241699 7.49239 0.484409 7.0708 0.876112 6.84778Z" fill="white"/>
<path d="M2.88874 7.85152L12.6093 2.16794C13.001 1.93893 13.4794 1.94447 13.8661 2.18249L23.6189 8.18505C24.0048 8.42253 24.2417 8.85595 24.2417 9.32434V20.6757C24.2417 21.1441 24.0048 21.5775 23.6189 21.815L13.8661 27.8175C13.4794 28.0555 13.001 28.0611 12.6093 27.8321L2.88874 22.1485C2.48922 21.9149 2.2417 21.4735 2.2417 20.9946V9.00537C2.2417 8.52652 2.48922 8.08512 2.88874 7.85152Z" fill="#3DB857"/>
<path d="M18.7519 17.535C18.8119 17.645 18.8803 17.7817 18.9569 17.945C19.0369 18.105 19.1186 18.28 19.2019 18.47C19.2886 18.6567 19.3736 18.8483 19.4569 19.045C19.5403 19.2417 19.6186 19.4267 19.6919 19.6C19.7653 19.4267 19.8436 19.2417 19.9269 19.045C20.0103 18.8483 20.0936 18.6567 20.1769 18.47C20.2636 18.28 20.3453 18.105 20.4219 17.945C20.5019 17.7817 20.5719 17.645 20.6319 17.535H21.3419C21.3753 17.765 21.4053 18.0233 21.4319 18.31C21.4619 18.5933 21.4869 18.89 21.5069 19.2C21.5303 19.5067 21.5503 19.815 21.5669 20.125C21.5869 20.435 21.6036 20.7267 21.6169 21H20.8569C20.8469 20.6633 20.8336 20.2967 20.8169 19.9C20.8003 19.5033 20.7753 19.1033 20.7419 18.7C20.6819 18.84 20.6153 18.995 20.5419 19.165C20.4686 19.335 20.3953 19.505 20.3219 19.675C20.2519 19.845 20.1836 20.0083 20.1169 20.165C20.0503 20.3183 19.9936 20.45 19.9469 20.56H19.4019C19.3553 20.45 19.2986 20.3183 19.2319 20.165C19.1653 20.0083 19.0953 19.845 19.0219 19.675C18.9519 19.505 18.8803 19.335 18.8069 19.165C18.7336 18.995 18.6669 18.84 18.6069 18.7C18.5736 19.1033 18.5486 19.5033 18.5319 19.9C18.5153 20.2967 18.5019 20.6633 18.4919 21H17.7319C17.7453 20.7267 17.7603 20.435 17.7769 20.125C17.7969 19.815 17.8169 19.5067 17.8369 19.2C17.8603 18.89 17.8853 18.5933 17.9119 18.31C17.9419 18.0233 17.9736 17.765 18.0069 17.535H18.7519Z" fill="white"/>
<path d="M16.25 17.535H17.03V21H16.25V17.535Z" fill="white"/>
<path d="M13.6715 21C13.5348 20.71 13.3998 20.4083 13.2665 20.095C13.1332 19.7817 13.0065 19.4717 12.8865 19.165C12.7665 18.8583 12.6548 18.565 12.5515 18.285C12.4515 18.005 12.3648 17.755 12.2915 17.535H13.1515C13.2182 17.735 13.2898 17.9517 13.3665 18.185C13.4465 18.415 13.5265 18.645 13.6065 18.875C13.6898 19.105 13.7698 19.325 13.8465 19.535C13.9232 19.745 13.9948 19.9267 14.0615 20.08C14.1248 19.9267 14.1948 19.745 14.2715 19.535C14.3515 19.325 14.4315 19.105 14.5115 18.875C14.5948 18.645 14.6748 18.415 14.7515 18.185C14.8315 17.9517 14.9048 17.735 14.9715 17.535H15.8015C15.7248 17.755 15.6365 18.005 15.5365 18.285C15.4365 18.565 15.3265 18.8583 15.2065 19.165C15.0865 19.4717 14.9598 19.7817 14.8265 20.095C14.6932 20.4083 14.5582 20.71 14.4215 21H13.6715Z" fill="white"/>
</svg>
