<svg width="27" height="30" viewBox="0 0 27 30" fill="none" xmlns="http://www.w3.org/2000/svg">
<path d="M0.876112 6.84778L12.6222 0.160206C13.0059 -0.0582554 13.4745 -0.0529706 13.8534 0.174091L25.6311 7.23257C26.0094 7.4593 26.2417 7.87327 26.2417 8.32067V21.6793C26.2417 22.1267 26.0094 22.5407 25.6311 22.7674L13.8534 29.8259C13.4745 30.053 13.0059 30.0583 12.6222 29.8398L0.876113 23.1522C0.48441 22.9292 0.241699 22.5076 0.241699 22.0502V7.94977C0.241699 7.49239 0.484409 7.0708 0.876112 6.84778Z" fill="white"/>
<path d="M2.88874 7.85152L12.6093 2.16794C13.001 1.93893 13.4794 1.94447 13.8661 2.18249L23.6189 8.18505C24.0048 8.42253 24.2417 8.85595 24.2417 9.32434V20.6757C24.2417 21.1441 24.0048 21.5775 23.6189 21.815L13.8661 27.8175C13.4794 28.0555 13.001 28.0611 12.6093 27.8321L2.88874 22.1485C2.48922 21.9149 2.2417 21.4735 2.2417 20.9946V9.00537C2.2417 8.52652 2.48922 8.08512 2.88874 7.85152Z" fill="#187D85"/>
<path d="M20.8648 20.33V21H18.5498V17.535H19.3298V20.33H20.8648Z" fill="white"/>
<path d="M16.9678 17.535H17.7478V21H16.9678V17.535Z" fill="white"/>
<path d="M16.3609 18.075C16.2543 18.185 16.1276 18.3283 15.9809 18.505C15.8343 18.6783 15.6826 18.8683 15.5259 19.075C15.3693 19.2817 15.2143 19.495 15.0609 19.715C14.9076 19.935 14.7709 20.145 14.6509 20.345H16.4159V21H13.6909V20.535C13.7843 20.365 13.8976 20.1767 14.0309 19.97C14.1676 19.76 14.3093 19.55 14.4559 19.34C14.6026 19.1267 14.7509 18.9217 14.9009 18.725C15.0543 18.525 15.1959 18.3467 15.3259 18.19H13.7709V17.535H16.3609V18.075Z" fill="white"/>
</svg>
