<svg width="99" height="83" viewBox="0 0 99 83" fill="none" xmlns="http://www.w3.org/2000/svg">
<path d="M33.7722 20.5127C43.1553 16.7816 57.5503 17.0129 65.0729 20.4177C65.7029 20.7029 66.4497 20.6024 66.9433 20.1196L85.6252 1.84287C85.7115 1.75841 85.8087 1.68311 85.9126 1.62125C89.4698 -0.497068 91.5916 -0.615236 95.5204 1.71575C97.2799 2.82715 98.0649 3.89102 98.9302 6.63102C98.9769 6.77899 99 6.93398 99 7.08909V59.9249C95.8782 86.4487 60.4175 92.1379 49.6027 66.2613C49.5249 66.075 49.2482 66.0757 49.1694 66.2616C37.7011 93.3304 1.89596 84.5693 0 59.9249V7.04167C0 6.91775 0.0146477 6.79414 0.0445018 6.67384C0.523346 4.74425 0.989826 3.61578 3.36735 1.71575C5.61224 -0.518804 10.7755 -0.518804 13.4694 1.71575L32.0097 20.1703C32.4708 20.6293 33.1667 20.7535 33.7722 20.5127Z" fill="white"/>
<path d="M37.2653 52.2876C37.2653 56.7303 33.647 60.3319 29.1837 60.3319C24.7203 60.3319 21.102 56.7303 21.102 52.2876C21.102 47.8449 24.7203 44.2434 29.1837 44.2434C33.647 44.2434 37.2653 47.8449 37.2653 52.2876Z" fill="#2E3656"/>
<path d="M77.898 52.2876C77.898 56.7303 74.2797 60.3319 69.8163 60.3319C65.353 60.3319 61.7347 56.7303 61.7347 52.2876C61.7347 47.8449 65.353 44.2434 69.8163 44.2434C74.2797 44.2434 77.898 47.8449 77.898 52.2876Z" fill="#2E3656"/>
</svg>
