<svg width="539" height="693" viewBox="0 0 539 693" fill="none" xmlns="http://www.w3.org/2000/svg">
<path d="M194.44 91.7993C236.237 75.102 300.361 76.1368 333.87 91.3744C336.676 92.6505 340.003 92.201 342.202 90.04L425.421 8.24728C425.806 7.86931 426.239 7.53233 426.701 7.25549C442.547 -2.2245 451.999 -2.75333 469.5 7.67843C477.338 12.6522 480.835 17.4133 484.689 29.6754C484.897 30.3376 485 31.0313 485 31.7254V268.178C471.094 386.879 313.133 412.34 264.958 296.536C264.611 295.702 263.378 295.705 263.027 296.537C211.941 417.677 52.4457 378.469 44 268.178V31.5132C44 30.9587 44.0652 30.4054 44.1982 29.8671C46.3313 21.2317 48.4092 16.1815 59 7.67843C69 -2.32178 92 -2.32178 104 7.67843L186.589 90.2673C188.643 92.3211 191.742 92.8769 194.44 91.7993Z" fill="#070036"/>
<circle cx="174" cy="250" r="36" fill="white"/>
<circle cx="355" cy="250" r="36" fill="white"/>
<path d="M391.5 422C438.313 415.592 459.007 404.945 483.179 373.407C483.764 372.643 485 373.046 485 374.008V436.126C485 436.367 484.911 436.603 484.752 436.784C454.796 471.049 417.927 480 391.5 480H161C111.821 480.154 87.7986 480.008 57.5068 496.597C56.6761 497.052 55.725 496.212 56.093 495.339C74.3416 452.071 107.585 429.351 161 422H391.5Z" fill="#070036" stroke="#070036"/>
<path d="M46.138 692.534C38.1927 692.534 31.1913 690.882 25.134 687.578C19.1553 684.195 14.514 679.357 11.21 673.064C7.906 666.692 6.254 659.022 6.254 650.054C6.254 640.929 8.06333 633.219 11.682 626.926C15.3007 620.554 20.178 615.716 26.314 612.412C32.45 609.029 39.2153 607.338 46.61 607.338C51.566 607.338 55.814 607.731 59.354 608.518C62.9727 609.305 65.9227 610.17 68.204 611.114C70.4853 612.058 72.0587 612.845 72.924 613.474L68.204 626.454C65.7653 625.038 62.8547 623.858 59.472 622.914C56.0893 621.891 52.4313 621.38 48.498 621.38C42.834 621.38 38.114 622.521 34.338 624.802C30.562 627.083 27.73 630.348 25.842 634.596C23.954 638.844 23.01 643.997 23.01 650.054C23.01 655.718 23.9147 660.753 25.724 665.158C27.5333 669.485 30.2473 672.828 33.866 675.188C37.4847 677.548 41.9687 678.728 47.318 678.728C49.8353 678.728 51.9593 678.649 53.69 678.492C55.4207 678.335 56.7973 678.138 57.82 677.902V648.756H73.986V688.404C71.9407 689.191 68.5187 690.056 63.72 691C59 692.023 53.1393 692.534 46.138 692.534ZM116.157 691V609.226H132.323V691H116.157ZM194.129 691V622.914H169.113V609.226H235.193V622.914H210.177V691H194.129ZM305.89 692.534C297.945 692.534 290.943 690.882 284.886 687.578C278.907 684.195 274.266 679.357 270.962 673.064C267.658 666.692 266.006 659.022 266.006 650.054C266.006 640.929 267.815 633.219 271.434 626.926C275.053 620.554 279.93 615.716 286.066 612.412C292.202 609.029 298.967 607.338 306.362 607.338C311.318 607.338 315.566 607.731 319.106 608.518C322.725 609.305 325.675 610.17 327.956 611.114C330.237 612.058 331.811 612.845 332.676 613.474L327.956 626.454C325.517 625.038 322.607 623.858 319.224 622.914C315.841 621.891 312.183 621.38 308.25 621.38C302.586 621.38 297.866 622.521 294.09 624.802C290.314 627.083 287.482 630.348 285.594 634.596C283.706 638.844 282.762 643.997 282.762 650.054C282.762 655.718 283.667 660.753 285.476 665.158C287.285 669.485 289.999 672.828 293.618 675.188C297.237 677.548 301.721 678.728 307.07 678.728C309.587 678.728 311.711 678.649 313.442 678.492C315.173 678.335 316.549 678.138 317.572 677.902V648.756H333.738V688.404C331.693 689.191 328.271 690.056 323.472 691C318.752 692.023 312.891 692.534 305.89 692.534ZM375.909 691V609.226H429.363V622.796H392.075V641.558H425.233V654.892H392.075V677.43H432.195V691H375.909ZM488.567 691V622.914H463.551V609.226H529.631V622.914H504.615V691H488.567Z" fill="#514C72"/>
</svg>
