<svg width="539" height="730" viewBox="0 0 539 730" fill="none" xmlns="http://www.w3.org/2000/svg">
<path d="M194.44 128.799C236.237 112.102 300.361 113.137 333.87 128.374C336.676 129.651 340.003 129.201 342.202 127.04L425.421 45.2473C425.806 44.8693 426.239 44.5323 426.701 44.2555C442.547 34.7755 451.999 34.2467 469.5 44.6784C477.338 49.6522 480.835 54.4133 484.689 66.6754C484.897 67.3376 485 68.0313 485 68.7254V305.178C471.094 423.879 313.133 449.34 264.958 333.536C264.611 332.702 263.378 332.705 263.027 333.537C211.941 454.677 52.4457 415.469 44 305.178V68.5132C44 67.9587 44.0652 67.4054 44.1982 66.8671C46.3313 58.2317 48.4092 53.1815 59 44.6784C69 34.6782 92 34.6782 104 44.6784L186.589 127.267C188.643 129.321 191.742 129.877 194.44 128.799Z" fill="#070036"/>
<circle cx="174" cy="287" r="36" fill="white"/>
<circle cx="355" cy="287" r="36" fill="white"/>
<path d="M391.5 459C438.313 452.592 459.007 441.945 483.179 410.407C483.764 409.643 485 410.046 485 411.008V473.126C485 473.367 484.911 473.603 484.752 473.784C454.796 508.049 417.927 517 391.5 517H161C111.821 517.154 87.7986 517.008 57.5068 533.597C56.6761 534.052 55.725 533.212 56.093 532.339C74.3416 489.071 107.585 466.351 161 459H391.5Z" fill="#070036" stroke="#070036"/>
<rect width="539" height="583" rx="30" fill="white" fill-opacity="0.3"/>
<path d="M46.138 729.534C38.1927 729.534 31.1913 727.882 25.134 724.578C19.1553 721.195 14.514 716.357 11.21 710.064C7.906 703.692 6.254 696.022 6.254 687.054C6.254 677.929 8.06333 670.219 11.682 663.926C15.3007 657.554 20.178 652.716 26.314 649.412C32.45 646.029 39.2153 644.338 46.61 644.338C51.566 644.338 55.814 644.731 59.354 645.518C62.9727 646.305 65.9227 647.17 68.204 648.114C70.4853 649.058 72.0587 649.845 72.924 650.474L68.204 663.454C65.7653 662.038 62.8547 660.858 59.472 659.914C56.0893 658.891 52.4313 658.38 48.498 658.38C42.834 658.38 38.114 659.521 34.338 661.802C30.562 664.083 27.73 667.348 25.842 671.596C23.954 675.844 23.01 680.997 23.01 687.054C23.01 692.718 23.9147 697.753 25.724 702.158C27.5333 706.485 30.2473 709.828 33.866 712.188C37.4847 714.548 41.9687 715.728 47.318 715.728C49.8353 715.728 51.9593 715.649 53.69 715.492C55.4207 715.335 56.7973 715.138 57.82 714.902V685.756H73.986V725.404C71.9407 726.191 68.5187 727.056 63.72 728C59 729.023 53.1393 729.534 46.138 729.534ZM116.157 728V646.226H132.323V728H116.157ZM194.129 728V659.914H169.113V646.226H235.193V659.914H210.177V728H194.129ZM305.89 729.534C297.945 729.534 290.943 727.882 284.886 724.578C278.907 721.195 274.266 716.357 270.962 710.064C267.658 703.692 266.006 696.022 266.006 687.054C266.006 677.929 267.815 670.219 271.434 663.926C275.053 657.554 279.93 652.716 286.066 649.412C292.202 646.029 298.967 644.338 306.362 644.338C311.318 644.338 315.566 644.731 319.106 645.518C322.725 646.305 325.675 647.17 327.956 648.114C330.237 649.058 331.811 649.845 332.676 650.474L327.956 663.454C325.517 662.038 322.607 660.858 319.224 659.914C315.841 658.891 312.183 658.38 308.25 658.38C302.586 658.38 297.866 659.521 294.09 661.802C290.314 664.083 287.482 667.348 285.594 671.596C283.706 675.844 282.762 680.997 282.762 687.054C282.762 692.718 283.667 697.753 285.476 702.158C287.285 706.485 289.999 709.828 293.618 712.188C297.237 714.548 301.721 715.728 307.07 715.728C309.587 715.728 311.711 715.649 313.442 715.492C315.173 715.335 316.549 715.138 317.572 714.902V685.756H333.738V725.404C331.693 726.191 328.271 727.056 323.472 728C318.752 729.023 312.891 729.534 305.89 729.534ZM375.909 728V646.226H429.363V659.796H392.075V678.558H425.233V691.892H392.075V714.43H432.195V728H375.909ZM488.567 728V659.914H463.551V646.226H529.631V659.914H504.615V728H488.567Z" fill="#514C72"/>
</svg>
