<svg width="442" height="498" viewBox="0 0 442 498" fill="none" xmlns="http://www.w3.org/2000/svg">
<path d="M150.44 91.7993C192.237 75.102 256.361 76.1368 289.87 91.3744C292.676 92.6505 296.003 92.201 298.202 90.04L381.421 8.24728C381.806 7.86931 382.239 7.53233 382.701 7.25549C398.547 -2.2245 407.999 -2.75333 425.5 7.67843C433.338 12.6522 436.835 17.4133 440.689 29.6754C440.897 30.3376 441 31.0313 441 31.7254V268.178C427.094 386.879 269.133 412.34 220.958 296.536C220.611 295.702 219.378 295.705 219.027 296.537C167.941 417.677 8.44566 378.469 0 268.178V31.5132C0 30.9587 0.065249 30.4054 0.198235 29.8671C2.33127 21.2317 4.40922 16.1815 15 7.67843C25 -2.32178 48 -2.32178 60 7.67843L142.589 90.2673C144.643 92.3211 147.742 92.8769 150.44 91.7993Z" fill="white"/>
<circle cx="130" cy="250" r="36" fill="#0D082D"/>
<circle cx="311" cy="250" r="36" fill="#0D082D"/>
<path d="M347.5 422C394.313 415.592 415.007 404.945 439.179 373.407C439.764 372.643 441 373.046 441 374.008V436.126C441 436.367 440.911 436.603 440.752 436.784C410.796 471.049 373.927 480 347.5 480H117C67.821 480.154 43.7986 480.008 13.5068 496.597C12.6761 497.052 11.725 496.212 12.093 495.339C30.3416 452.071 63.5845 429.351 117 422H347.5Z" fill="white" stroke="white"/>
</svg>
